<svg xmlns="http://www.w3.org/2000/svg" width="960" height="112.5" viewBox="0 0 960 112.5"><defs><clipPath id="a"><path d="M292.946 75.35h246.006V8.754H292.946V75.35z"/></clipPath><clipPath id="b"><path d="M0 0h768v90H0V0z"/></clipPath><clipPath id="c"><path d="M614.667 64c-4.4 0-8-3.6-8-8V34c0-4.4 3.6-8 8-8H740c4.4 0 8 3.6 8 8v22c0 4.4-3.6 8-8 8H614.667z"/></clipPath><linearGradient x2="1" gradientUnits="userSpaceOnUse" gradientTransform="rotate(-135 378.5 -105.74) scale(120.16)" id="d"><stop offset="0" stop-color="#39b54a"/><stop offset="1" stop-color="#009245"/></linearGradient></defs><path d="M0 112.5h960V0H0v112.5z" fill="#006837"/><g clip-path="url(#a)" opacity="0.75" transform="matrix(1.25 0 0 -1.25 0 112.5)"><path d="M307.114 56.136c0 .81-.164 1.44-.492 1.898-.328.457-.82.803-1.477 1.038-.398.152-.946.237-1.643.254-.698.018-1.632.027-2.804.027h-1.213v-6.557h.352c1.71 0 2.894.012 3.55.035.657.03 1.325.19 2.004.48.6.26 1.04.64 1.31 1.14.28.5.42 1.07.42 1.7m-1.65 10.64c0 .43-.11.86-.32 1.3-.21.45-.55.77-1.01.97-.43.19-.94.29-1.54.31-.59.02-1.47.03-2.64.03h-.45v-5.54h.83c1.13 0 1.91.01 2.37.04.45.03.92.15 1.4.37.53.25.89.59 1.09 1.02.2.44.3.94.3 1.51m8.42-10.75c0-1.3-.25-2.44-.74-3.43-.49-.99-1.15-1.8-1.98-2.44-.98-.77-2.07-1.32-3.24-1.65-1.18-.33-2.67-.49-4.49-.49h-10.48V74.2h9.25c1.92 0 3.38-.07 4.37-.22.99-.148 1.92-.456 2.79-.92.94-.508 1.64-1.18 2.1-2.026.47-.845.7-1.817.7-2.92 0-1.28-.32-2.415-.95-3.41-.63-1-1.52-1.73-2.64-2.2v-.14c1.62-.34 2.92-1.033 3.89-2.082.97-1.05 1.46-2.467 1.46-4.25M335.64 48h-6.15v2.18c-1.07-.89-2.048-1.565-2.94-2.03-.89-.46-1.95-.692-3.184-.692-1.958 0-3.484.62-4.58 1.856-1.095 1.238-1.643 3.098-1.643 5.58v12.85h6.19v-9.79c0-1.02.03-1.85.08-2.495.057-.64.18-1.19.38-1.63.19-.41.48-.72.87-.93.395-.22.94-.32 1.646-.32.43 0 .94.1 1.53.31.59.21 1.14.5 1.64.86v13.99h6.15V48zm10.863 0h-6.15v19.74h6.15V48zm.18 22.555h-6.503v4.8h6.507v-4.8zM357.368 48h-6.16v27.35h6.15V47.998zm16.502 5.45v9.684c-.31.15-.71.276-1.2.375-.496.1-.918.15-1.27.15-1.478 0-2.588-.52-3.33-1.55-.746-1.03-1.118-2.48-1.118-4.33 0-1.95.298-3.36.89-4.22.59-.87 1.55-1.3 2.874-1.3.54 0 1.084.1 1.635.31.55.21 1.05.5 1.51.86m6.15-5.44h-6.15v2.05c-.4-.33-.85-.68-1.36-1.05-.51-.38-.96-.66-1.34-.85-.49-.24-.97-.41-1.45-.53-.48-.12-1.05-.18-1.72-.18-2.25 0-4.03.93-5.34 2.79-1.31 1.86-1.97 4.35-1.97 7.47 0 1.72.22 3.21.67 4.48.45 1.27 1.06 2.37 1.85 3.3.72.86 1.58 1.53 2.6 2.03 1.02.5 2.1.75 3.24.75 1.04 0 1.88-.11 2.54-.33.67-.22 1.44-.56 2.32-1.01v8.4h6.15V48zm10.86-.01h-6.15v19.74h6.15V47.99zm.18 22.55h-6.5v4.8h6.5v-4.8zm23.03-22.55h-6.18v9.79c0 .8-.03 1.59-.09 2.38-.06.79-.18 1.38-.36 1.75-.21.45-.51.77-.91.96-.4.19-.93.29-1.6.29-.5 0-1.01-.09-1.53-.28-.51-.19-1.06-.49-1.65-.9V48h-6.16v19.74h6.15v-2.18c1.01.856 1.99 1.524 2.95 2.004.96.48 2.02.72 3.18.72 2.02 0 3.56-.635 4.62-1.906 1.07-1.272 1.6-3.114 1.6-5.528V48zm16.35 6.22v8.94c-.3.14-.68.26-1.12.35-.44.09-.89.14-1.33.14-1.47 0-2.58-.48-3.33-1.44-.74-.96-1.11-2.29-1.11-4 0-.86.06-1.58.17-2.17.11-.6.32-1.12.63-1.58.29-.45.68-.78 1.15-1.01.48-.23 1.08-.34 1.82-.34.55 0 1.09.09 1.63.28.53.19 1.04.46 1.52.81m6.15-3.96c0-1.83-.26-3.38-.79-4.66-.52-1.28-1.25-2.28-2.16-2.99-.91-.73-2.01-1.25-3.28-1.57-1.28-.33-2.69-.49-4.25-.49-1.31 0-2.56.08-3.73.25s-2.2.36-3.06.59v4.94h.72c.3-.12.66-.25 1.08-.39.42-.14.83-.27 1.26-.39.5-.13.99-.24 1.47-.32.48-.09.97-.13 1.47-.13 1.05 0 1.92.11 2.61.32.7.22 1.22.53 1.58.92.35.41.6.89.74 1.45.14.55.21 1.25.21 2.1v.37c-.69-.61-1.49-1.1-2.39-1.47-.91-.37-1.84-.56-2.8-.56-2.55 0-4.52.83-5.91 2.49-1.39 1.66-2.08 4.19-2.08 7.59 0 1.54.22 2.93.64 4.16.43 1.23 1.03 2.28 1.79 3.14.73.83 1.6 1.47 2.64 1.92 1.03.45 2.1.68 3.22.68 1.01 0 1.91-.13 2.7-.39s1.52-.61 2.18-1.04l.23.87h5.96v-17.4zm26.9-2.78c-3.92 0-7.04 1.19-9.35 3.56-2.31 2.37-3.46 5.71-3.46 10.01 0 4.15 1.16 7.46 3.47 9.92 2.32 2.47 5.44 3.7 9.36 3.7 1.04 0 1.98-.06 2.81-.18.83-.11 1.63-.28 2.39-.49.6-.17 1.25-.41 1.95-.72.71-.3 1.27-.57 1.71-.79v-6.24h-.67c-.32.29-.72.62-1.2 1.01s-1.03.77-1.64 1.15c-.61.37-1.28.69-2.01.96-.73.26-1.5.39-2.29.39-.95 0-1.82-.15-2.61-.45-.79-.3-1.55-.82-2.26-1.56-.66-.67-1.19-1.57-1.61-2.71-.41-1.14-.62-2.48-.62-4.03 0-1.63.22-3 .65-4.11.43-1.11 1-2 1.7-2.68.68-.66 1.44-1.13 2.28-1.43.84-.29 1.68-.44 2.51-.44.87 0 1.69.14 2.48.43s1.45.61 1.99.96c.59.36 1.1.73 1.55 1.11.45.37.84.71 1.16 1h.6V49.7c-.48-.226-1.03-.48-1.67-.77-.63-.285-1.28-.53-1.95-.73-.82-.243-1.58-.43-2.3-.56-.71-.123-1.7-.19-2.95-.19m25.03 10.34c0 1.17-.1 2.147-.29 2.927-.19.78-.46 1.406-.8 1.875-.36.49-.77.833-1.23 1.03-.46.193-.98.29-1.56.29-.55 0-1.05-.086-1.5-.256-.44-.17-.85-.494-1.23-.974-.35-.454-.63-1.08-.84-1.88-.21-.795-.31-1.8-.31-3.004s.1-2.18.3-2.923c.2-.74.46-1.34.78-1.78.33-.46.74-.79 1.23-1.006.5-.21 1.04-.32 1.64-.32.49 0 1 .1 1.51.31.51.22.92.53 1.22.95.37.51.64 1.11.83 1.82.19.71.28 1.69.28 2.95m6.31.03c0-3.25-.89-5.81-2.66-7.68s-4.28-2.8-7.53-2.8c-3.22 0-5.73.94-7.51 2.81-1.79 1.87-2.68 4.42-2.68 7.67 0 3.28.89 5.85 2.68 7.7 1.78 1.86 4.29 2.78 7.51 2.78 3.23 0 5.74-.94 7.52-2.81 1.78-1.87 2.67-4.43 2.67-7.69m15.07-4.41v9.68c-.3.15-.7.28-1.19.38-.49.1-.91.15-1.26.15-1.48 0-2.59-.52-3.33-1.55-.75-1.03-1.12-2.47-1.12-4.33 0-1.95.295-3.35.886-4.22.595-.87 1.55-1.3 2.878-1.3.54 0 1.088.1 1.64.32.55.21 1.06.49 1.512.86m6.15-5.44h-6.16V50c-.4-.326-.855-.68-1.36-1.05-.51-.374-.96-.656-1.346-.84-.49-.236-.97-.41-1.45-.53-.48-.12-1.05-.17-1.72-.17-2.25 0-4.03.93-5.34 2.8-1.31 1.87-1.97 4.36-1.97 7.47 0 1.73.23 3.22.67 4.49.45 1.27 1.06 2.37 1.85 3.31.72.855 1.58 1.53 2.6 2.03 1.02.5 2.1.75 3.234.75 1.03 0 1.88-.11 2.54-.326.66-.214 1.43-.55 2.31-1.01v8.4h6.15V48zM532.9 60.4c-.036 1.3-.338 2.29-.906 2.97-.57.68-1.44 1.02-2.61 1.02-1.195 0-2.13-.358-2.803-1.073-.68-.714-1.05-1.687-1.12-2.917h7.43zm-2.04-12.94c-3.727 0-6.583.89-8.57 2.673-1.987 1.782-2.98 4.32-2.98 7.612 0 3.22.926 5.794 2.777 7.715 1.852 1.924 4.442 2.885 7.77 2.885 3.023 0 5.297-.815 6.82-2.444 1.524-1.63 2.285-3.96 2.285-6.99V56.7h-13.49c.06-.915.25-1.68.58-2.295.327-.615.76-1.104 1.3-1.468.527-.363 1.142-.624 1.846-.782.703-.158 1.47-.237 2.302-.237.71 0 1.41.08 2.11.237.69.158 1.32.366 1.89.624.5.22.97.46 1.4.72.42.25.77.48 1.04.68h.65V49.1c-.51-.2-.97-.383-1.38-.552-.42-.17-.99-.343-1.72-.52-.67-.175-1.36-.31-2.07-.41-.71-.1-1.576-.15-2.595-.15M349.18 15.994V42.17h17.7v-4.99h-11.16v-4.59h10.282V27.6H355.72v-6.61h11.163v-4.993H349.18zm41.272 0h-7.207l-3.764 5.678-3.86-5.678h-7.06l7.26 9.86-7.13 9.88h7.21l3.69-5.572 3.71 5.572h7.09l-7.15-9.72 7.24-10.02zm15.346 10.02c0 1.922-.294 3.316-.886 4.184-.593.87-1.516 1.3-2.77 1.3-.55 0-1.1-.085-1.644-.26-.545-.176-1.08-.44-1.608-.79v-9.933c.327-.14.687-.24 1.08-.3.392-.057.858-.087 1.397-.087 1.5 0 2.61.49 3.34 1.467.724.98 1.09 2.452 1.09 4.42m6.29.124c0-3.15-.8-5.7-2.4-7.63-1.6-1.93-3.57-2.9-5.914-2.9-.988 0-1.84.11-2.57.33-.727.22-1.5.57-2.32 1.03V8.75h-6.154v26.99h6.15v-2.06c.9.775 1.82 1.4 2.76 1.882.93.48 2.02.72 3.25.72 2.28 0 4.05-.908 5.31-2.724 1.25-1.816 1.88-4.29 1.88-7.418m15.45 2.267c-.04 1.3-.34 2.29-.91 2.97-.57.68-1.44 1.02-2.61 1.02-1.2 0-2.13-.357-2.81-1.072-.68-.715-1.05-1.688-1.12-2.918h7.44zM425.5 15.47c-3.726 0-6.582.89-8.57 2.67-1.985 1.78-2.98 4.32-2.98 7.61 0 3.223.928 5.796 2.78 7.717 1.852 1.92 4.442 2.882 7.77 2.882 3.023 0 5.297-.82 6.82-2.45 1.524-1.63 2.285-3.96 2.285-7v-2.21h-13.48c.06-.92.252-1.68.58-2.3.33-.62.762-1.11 1.3-1.47.53-.37 1.143-.63 1.847-.78.703-.16 1.47-.24 2.302-.24.714 0 1.417.08 2.11.23.69.16 1.323.37 1.897.63.51.22.97.46 1.4.72.43.26.78.49 1.05.69h.65V17.1l-1.38-.552c-.41-.17-.98-.342-1.71-.518-.67-.176-1.35-.313-2.06-.413-.71-.1-1.57-.15-2.59-.15m24.52 14.453h-.51c-.23.08-.57.143-1.02.184-.44.04-.93.06-1.47.06-.64 0-1.32-.093-2.03-.28-.71-.188-1.4-.41-2.06-.668v-13.22h-6.15v19.74h6.15v-2.83c.29.26.67.584 1.17.977.5.392.96.706 1.37.94.45.27.97.5 1.56.695.59.193 1.15.29 1.68.29.2 0 .42-.006.67-.018.25-.012.47-.03.67-.053V29.92zm9.92-14.31c-2.51 0-4.33.516-5.48 1.547-1.14 1.03-1.71 2.72-1.71 5.062v9.22h-2.36v4.29h2.36v5.64h6.15v-5.64h5.93v-4.29h-5.92v-6.99c0-.69.01-1.3.02-1.81.02-.52.11-.98.29-1.39.16-.41.46-.74.87-.98s1.02-.36 1.82-.36c.33 0 .76.07 1.29.21.53.14.91.27 1.12.38h.53v-4.34c-.66-.18-1.37-.32-2.12-.42-.75-.1-1.67-.15-2.76-.15m13.41-.16c-1.45 0-2.83.16-4.12.47-1.29.31-2.36.68-3.21 1.1v5.2h.51c.29-.23.63-.47 1-.74s.9-.56 1.57-.85c.57-.27 1.22-.5 1.94-.7.72-.2 1.5-.29 2.35-.29.87 0 1.63.13 2.3.4.66.27.99.69.99 1.28 0 .45-.15.8-.45 1.03-.3.24-.89.46-1.77.67-.47.12-1.06.24-1.77.38-.71.13-1.34.29-1.89.47-1.55.48-2.71 1.19-3.49 2.13-.78.94-1.17 2.18-1.17 3.72 0 .88.2 1.71.61 2.48.4.78 1 1.47 1.78 2.08.79.6 1.76 1.08 2.91 1.43 1.16.35 2.46.52 3.91.52 1.39 0 2.66-.14 3.82-.41 1.16-.28 2.14-.61 2.93-1v-4.99h-.49c-.21.17-.55.39-1 .66-.46.28-.91.51-1.34.71-.52.24-1.09.43-1.73.58-.64.16-1.29.23-1.96.23-.89 0-1.64-.15-2.26-.46-.62-.3-.92-.71-.92-1.21 0-.45.15-.8.45-1.06.31-.26.97-.51 1.99-.76.52-.13 1.13-.26 1.82-.38.68-.13 1.34-.29 1.97-.5 1.42-.46 2.5-1.13 3.23-2.02.73-.88 1.1-2.06 1.1-3.52 0-.93-.22-1.81-.65-2.65-.44-.84-1.05-1.54-1.85-2.12-.85-.62-1.84-1.1-2.98-1.44-1.15-.34-2.51-.51-4.11-.51" fill="#000000"/></g><path d="M382.643 41.08c0-1.012-.205-1.802-.615-2.373-.41-.57-1.025-1.004-1.846-1.297-.498-.19-1.183-.297-2.054-.318-.873-.022-2.04-.034-3.505-.034h-1.516v8.197h.44c2.138 0 3.617-.015 4.437-.044.82-.03 1.656-.22 2.505-.59.74-.32 1.29-.79 1.63-1.41.34-.62.51-1.33.51-2.12m-2.07-13.29c0-.53-.14-1.07-.41-1.62-.27-.55-.69-.96-1.27-1.2-.55-.23-1.19-.36-1.93-.38-.74-.02-1.84-.03-3.31-.03h-.57v6.92h1.03c1.41 0 2.39-.01 2.96-.04.56-.03 1.14-.18 1.74-.46.66-.31 1.11-.73 1.36-1.27s.37-1.17.37-1.89m10.53 13.44c0 1.63-.31 3.06-.93 4.29-.62 1.23-1.44 2.25-2.48 3.05-1.23.97-2.58 1.66-4.06 2.07-1.48.41-3.35.62-5.62.62H364.9V18.54h11.557c2.4 0 4.22.09 5.46.274 1.24.185 2.4.57 3.48 1.155 1.17.63 2.045 1.47 2.624 2.52.58 1.05.87 2.27.87 3.65 0 1.6-.4 3.02-1.19 4.26-.8 1.24-1.9 2.16-3.31 2.74v.18c2.02.42 3.64 1.29 4.86 2.6 1.22 1.31 1.83 3.08 1.83 5.3m27.19 10.02h-7.69v-2.73c-1.33 1.11-2.55 1.96-3.67 2.54-1.11.57-2.43.86-3.97.86-2.45 0-4.35-.77-5.72-2.32-1.36-1.55-2.05-3.87-2.05-6.98V26.57h7.74v12.24c0 1.273.04 2.313.1 3.12.07.804.23 1.485.47 2.04.24.514.6.9 1.09 1.165.49.266 1.18.4 2.06.4.54 0 1.18-.133 1.92-.397.74-.263 1.43-.622 2.06-1.076v-17.49h7.69V51.25zm13.58 0h-7.69V26.58h7.69v24.675zm.22-28.19h-8.13v-6h8.13v6zm13.36 28.19h-7.69V17.07h7.69v34.19zm20.64-6.82v-12.1c-.38-.19-.88-.35-1.49-.47-.62-.13-1.15-.19-1.59-.19-1.85 0-3.24.64-4.17 1.93-.93 1.29-1.39 3.09-1.39 5.4 0 2.43.37 4.19 1.11 5.27.74 1.08 1.94 1.62 3.6 1.62.68 0 1.36-.13 2.04-.4.69-.27 1.32-.63 1.89-1.08m7.69 6.81h-7.69v-2.57c-.49.41-1.06.85-1.7 1.32-.63.47-1.19.82-1.68 1.05-.61.29-1.22.51-1.82.66-.6.14-1.32.22-2.15.22-2.81 0-5.04-1.17-6.68-3.5-1.64-2.33-2.46-5.44-2.46-9.34 0-2.15.28-4.02.83-5.6.56-1.59 1.33-2.96 2.31-4.13.89-1.07 1.98-1.92 3.25-2.54 1.28-.62 2.63-.94 4.05-.94 1.29 0 2.34.13 3.17.4.83.27 1.79.69 2.89 1.26V17h7.69v34.2zm13.58 0h-7.69V26.57h7.69v24.68zm.22-28.19h-8.13v-6h8.13v6zm28.79 28.19h-7.73v-12.2c0-1-.04-1.99-.12-2.98-.08-.99-.23-1.72-.45-2.19-.26-.56-.64-.96-1.14-1.2-.5-.24-1.16-.36-2-.36-.63 0-1.27.12-1.91.35-.64.23-1.33.61-2.06 1.12v17.49h-7.69V26.58h7.69v2.724c1.26-1.07 2.49-1.904 3.68-2.504 1.19-.6 2.52-.9 3.97-.9 2.52 0 4.44.794 5.77 2.383 1.34 1.59 2 3.893 2 6.91v16.063zm20.44-7.78V32.29c-.38-.175-.85-.322-1.4-.44-.55-.117-1.11-.174-1.67-.174-1.84 0-3.23.596-4.16 1.79-.93 1.194-1.39 2.86-1.39 5 0 1.07.07 1.972.21 2.712.14.74.4 1.395.78 1.967.37.557.85.978 1.44 1.263.6.287 1.35.43 2.28.43.69 0 1.37-.118 2.03-.352.67-.235 1.3-.57 1.9-1.01m7.69 4.942c0 2.285-.32 4.227-.98 5.823-.66 1.6-1.56 2.85-2.71 3.74-1.14.91-2.51 1.57-4.11 1.97-1.59.41-3.37.61-5.32.61-1.64 0-3.19-.1-4.67-.32-1.47-.21-2.75-.45-3.83-.73v-6.18h.9c.39.15.84.31 1.36.49s1.05.34 1.57.49c.63.16 1.25.3 1.85.4.6.11 1.22.16 1.85.16 1.3 0 2.39-.13 3.26-.4.87-.27 1.53-.65 1.97-1.15.44-.51.75-1.11.92-1.81.17-.69.26-1.57.26-2.62v-.46c-.86.76-1.86 1.37-2.99 1.84-1.14.46-2.31.69-3.51.69-3.2 0-5.66-1.04-7.4-3.12-1.74-2.08-2.6-5.24-2.6-9.49 0-1.93.27-3.67.8-5.2.54-1.54 1.28-2.85 2.24-3.93.91-1.04 2-1.84 3.29-2.4 1.29-.56 2.63-.84 4.02-.84 1.26 0 2.39.16 3.38.49 1 .33 1.91.76 2.73 1.3l.29-1.1h7.45V48.5zm33.62 3.472c-4.91 0-8.8-1.483-11.69-4.45-2.88-2.966-4.33-7.137-4.33-12.512 0-5.186 1.45-9.32 4.34-12.404 2.89-3.084 6.8-4.625 11.7-4.625 1.31 0 2.48.07 3.52.21s2.03.35 2.99.61c.74.22 1.56.52 2.44.9.88.38 1.59.71 2.13.99v7.8h-.84c-.39-.35-.89-.78-1.49-1.27s-1.28-.97-2.04-1.44-1.6-.87-2.52-1.2c-.92-.33-1.87-.5-2.87-.5-1.18 0-2.27.18-3.26.56-.99.37-1.93 1.02-2.82 1.94-.82.83-1.49 1.96-2.01 3.38-.52 1.42-.78 3.09-.78 5.03 0 2.03.27 3.74.81 5.13.55 1.38 1.26 2.5 2.13 3.35.85.82 1.8 1.41 2.85 1.78 1.05.36 2.09.55 3.13.55 1.09 0 2.12-.18 3.1-.54.98-.36 1.81-.76 2.48-1.2.74-.46 1.38-.92 1.94-1.39.55-.47 1.04-.89 1.45-1.25h.74v7.69c-.6.27-1.29.59-2.08.95s-1.61.66-2.44.91c-1.03.31-1.99.54-2.88.7-.89.16-2.12.24-3.69.24m31.29-12.92c0-1.47-.13-2.69-.37-3.66-.24-.98-.57-1.76-1-2.34-.45-.62-.96-1.05-1.53-1.29s-1.22-.36-1.96-.36c-.68 0-1.31.11-1.86.32-.56.21-1.07.62-1.54 1.22-.44.57-.79 1.35-1.06 2.35s-.39 2.25-.39 3.76c0 1.51.13 2.73.37 3.66.25.93.57 1.67.97 2.23.41.57.92.99 1.54 1.25s1.3.39 2.05.39c.62 0 1.24-.13 1.88-.4.64-.27 1.15-.66 1.53-1.19.46-.63.8-1.39 1.03-2.27.24-.88.36-2.11.36-3.68m7.887-.04c0 4.06-1.11 7.25-3.33 9.59-2.22 2.34-5.36 3.5-9.42 3.5-4.025 0-7.16-1.17-9.39-3.5-2.234-2.34-3.35-5.54-3.35-9.59 0-4.1 1.116-7.32 3.35-9.64 2.235-2.33 5.366-3.49 9.39-3.49 4.04 0 7.18 1.16 9.408 3.5 2.22 2.34 3.34 5.54 3.34 9.61m18.83 5.52V32.3c-.38-.19-.88-.344-1.5-.47-.61-.122-1.14-.19-1.58-.19-1.84 0-3.23.65-4.16 1.94-.93 1.29-1.395 3.09-1.395 5.4 0 2.436.37 4.19 1.11 5.278.74 1.08 1.93 1.62 3.59 1.62.67 0 1.35-.13 2.04-.395.69-.26 1.32-.62 1.89-1.08m7.69 6.82h-7.69v-2.57c-.5.41-1.07.85-1.71 1.32-.64.47-1.2.82-1.68 1.058-.616.29-1.225.51-1.825.66-.6.15-1.32.22-2.15.22-2.81 0-5.04-1.17-6.68-3.49-1.64-2.33-2.46-5.44-2.46-9.33 0-2.15.28-4.02.84-5.6.555-1.58 1.324-2.96 2.305-4.13.892-1.07 1.98-1.91 3.25-2.54 1.28-.62 2.62-.93 4.04-.93 1.29 0 2.35.13 3.18.41.83.27 1.79.69 2.89 1.26v-10.5h7.69v34.19zm21.08-15.51c-.05-1.62-.43-2.86-1.14-3.71-.71-.85-1.8-1.272-3.26-1.272-1.497 0-2.666.45-3.507 1.34-.84.9-1.3 2.11-1.39 3.65h9.29zM662.3 51.9c-4.66 0-8.23-1.11-10.71-3.34-2.487-2.227-3.728-5.4-3.728-9.514 0-4.03 1.156-7.24 3.47-9.642 2.315-2.405 5.55-3.606 9.71-3.606 3.78 0 6.624 1.013 8.527 3.05 1.9 2.035 2.86 4.95 2.86 8.744v2.77h-16.86c.07 1.14.31 2.09.72 2.86s.95 1.38 1.62 1.83c.66.45 1.43.78 2.31.97.88.2 1.84.295 2.88.295.89 0 1.77-.1 2.64-.295.87-.197 1.66-.457 2.37-.78.63-.28 1.21-.58 1.75-.9.54-.32.97-.607 1.31-.856h.81v6.35c-.63.25-1.2.48-1.72.69-.52.214-1.24.43-2.15.65-.84.22-1.7.39-2.58.516-.89.126-1.97.19-3.24.19M435.25 91.25V58.54h22.125v6.24h-13.95v5.735h12.853v6.24h-12.86v8.27h13.953v6.24h-22.13zm51.59 0h-9.01l-4.7-7.097-4.835 7.098h-8.83l9.072-12.32-8.92-12.35h9.01l4.613 6.96 4.634-6.96h8.855l-8.94 12.15 9.05 12.53zm19.18-12.52c0-2.402-.37-4.145-1.11-5.23-.74-1.083-1.89-1.625-3.46-1.625-.69 0-1.374.11-2.055.33-.68.22-1.35.55-2.01.987v12.41c.41.177.86.3 1.35.375.49.08 1.073.11 1.747.11 1.877 0 3.27-.61 4.177-1.83.9-1.22 1.36-3.062 1.36-5.524m7.86-.15c0 3.94-1 7.12-3 9.54-2 2.414-4.47 3.623-7.4 3.623-1.23 0-2.3-.14-3.21-.417-.91-.28-1.88-.71-2.9-1.3v10.28h-7.69V66.58h7.69v2.57c1.13-.967 2.28-1.75 3.45-2.35 1.17-.6 2.53-.9 4.06-.9 2.85 0 5.06 1.134 6.63 3.404 1.57 2.27 2.35 5.36 2.35 9.275m19.31-2.84c-.04-1.63-.42-2.86-1.13-3.71-.71-.85-1.8-1.28-3.27-1.28-1.5 0-2.66.44-3.51 1.34-.84.89-1.31 2.11-1.4 3.64h9.29zm-2.55 16.18c-4.66 0-8.23-1.12-10.71-3.34-2.49-2.23-3.73-5.4-3.73-9.52 0-4.03 1.15-7.25 3.47-9.65 2.31-2.4 5.55-3.61 9.71-3.61 3.78 0 6.62 1.02 8.52 3.05 1.91 2.03 2.86 4.95 2.86 8.74v2.77H523.9c.076 1.14.317 2.09.727 2.86.41.76.954 1.38 1.63 1.83.66.45 1.43.78 2.31.98.88.2 1.833.29 2.873.29.9 0 1.78-.1 2.64-.3.87-.2 1.66-.46 2.38-.78.63-.28 1.215-.58 1.75-.9.536-.33.97-.61 1.31-.86h.81v6.35c-.63.25-1.2.48-1.72.69-.52.21-1.236.43-2.145.65-.83.22-1.69.39-2.58.51-.884.12-1.965.19-3.24.19m30.64-18.06h-.64c-.294-.1-.72-.18-1.275-.23-.56-.05-1.173-.08-1.847-.08-.808 0-1.65.12-2.54.35-.89.24-1.75.51-2.585.84v16.53h-7.69V66.58h7.69v3.536c.35-.322.84-.728 1.46-1.22.63-.49 1.19-.882 1.71-1.175.56-.33 1.21-.62 1.95-.86s1.44-.36 2.1-.36c.25 0 .53.01.84.03.31.02.582.04.83.07l.002 7.27zm12.39 17.89c-3.134 0-5.414-.65-6.843-1.94-1.43-1.29-2.14-3.4-2.14-6.33v-11.5h-2.94v-5.36h2.94v-7.05h7.69v7.05h7.4v5.36h-7.4v8.74c0 .87.005 1.62.02 2.27.014.64.13 1.22.35 1.73.204.51.57.92 1.09 1.22.52.3 1.274.45 2.27.45.41 0 .95-.09 1.617-.26.67-.18 1.13-.34 1.4-.49h.66v5.42c-.83.22-1.72.39-2.66.51-.93.13-2.08.19-3.45.19m16.77.2c-1.81 0-3.53-.2-5.15-.59-1.62-.39-2.95-.85-4.01-1.38v-6.51h.64c.37.28.79.59 1.25.93.47.34 1.12.69 1.95 1.06.72.34 1.53.63 2.43.87.9.24 1.88.36 2.93.36 1.08 0 2.04-.17 2.86-.5.82-.33 1.24-.87 1.24-1.6 0-.57-.19-1-.57-1.29-.38-.29-1.12-.57-2.22-.83-.59-.15-1.33-.3-2.22-.47-.9-.17-1.69-.37-2.38-.59-1.93-.6-3.39-1.49-4.36-2.67-.98-1.18-1.46-2.73-1.46-4.65 0-1.1.25-2.14.76-3.11.5-.97 1.25-1.84 2.23-2.6.98-.75 2.19-1.34 3.64-1.78 1.44-.44 3.07-.66 4.89-.66 1.73 0 3.32.17 4.77.51 1.45.34 2.67.76 3.67 1.24v6.24h-.62c-.27-.2-.68-.48-1.26-.82-.58-.35-1.13-.64-1.67-.89-.65-.29-1.37-.54-2.17-.73-.8-.19-1.61-.29-2.45-.29-1.11 0-2.05.19-2.82.57-.77.38-1.15.88-1.15 1.51 0 .56.19 1 .57 1.32.38.32 1.21.64 2.48.94.66.16 1.41.32 2.27.47.85.16 1.68.37 2.47.63 1.77.57 3.11 1.41 4.03 2.52.92 1.1 1.37 2.57 1.37 4.4 0 1.16-.27 2.26-.82 3.31-.54 1.04-1.31 1.93-2.3 2.64-1.06.78-2.3 1.38-3.73 1.8-1.43.43-3.14.64-5.13.64" fill="#ffffff"/><g clip-path="url(#b)" transform="matrix(1.25 0 0 -1.25 0 112.5)"><path d="M239.333 5c0-85.788-69.545-155.333-155.333-155.333C-1.79-150.333-71.334-80.788-71.334 5S-1.79 160.333 84 160.333 239.334 90.788 239.334 5" fill="#43b54c"/><path d="M229.333-5c0-85.788-69.545-155.333-155.333-155.333C-11.79-160.333-81.334-90.788-81.334-5S-11.79 150.333 74 150.333 229.334 80.788 229.334-5" fill="#ffffff"/></g><path d="M61.92 82.25h-.502v3.69h.637c.848 0 1.43-.07 1.746-.216.32-.146.57-.366.74-.658.18-.293.27-.626.27-1 0-.37-.1-.702-.29-1.002-.19-.298-.47-.51-.82-.632s-.94-.183-1.76-.183m-2.18 10.27v-11.7h2.93c1.19 0 2.13.29 2.82.88.7.58 1.04 1.37 1.04 2.37 0 .68-.17 1.27-.51 1.77-.34.49-.82.86-1.46 1.11.38.24.74.58 1.1 1 .36.42.86 1.16 1.51 2.22.41.66.73 1.16.98 1.5l.62.83h-2l-.51-.77c-.01-.03-.05-.08-.1-.14l-.33-.46-.51-.86-.56-.92c-.34-.48-.66-.86-.95-1.15-.28-.29-.55-.49-.78-.62-.23-.13-.62-.19-1.17-.19h-.43v5.09h-1.68zm10.32-11.7h1.68v11.7h-1.68v-11.7zm14.35 8.98v1.84c-1.22.67-2.64 1-4.25 1-1.3 0-2.41-.26-3.32-.79-.91-.53-1.63-1.25-2.16-2.17-.53-.92-.79-1.92-.79-2.99 0-1.71.61-3.14 1.82-4.3 1.22-1.16 2.71-1.74 4.49-1.74 1.23 0 2.6.32 4.1.96v1.8c-1.36-.78-2.7-1.17-4.01-1.17-1.34 0-2.45.42-3.33 1.27-.88.84-1.33 1.9-1.33 3.17 0 1.29.44 2.34 1.31 3.17.88.82 1.99 1.24 3.35 1.24 1.42 0 2.8-.44 4.15-1.31m8.68-2.25l-1.89-4.23-1.75 4.24h3.64zm-2.46-6.81h1.18l5.25 11.77h-1.72l-1.56-3.47h-5l-1.46 3.46h-1.72l5.02-11.77zm17 .07h1.59v11.7h-1.44l-7.83-9v9.01h-1.6V80.8h1.36l7.89 9.086v-9.08zm21.62 0h1.67l-4.73 11.74h-.37l-3.82-9.51-3.86 9.51h-.36l-4.72-11.74h1.69l3.21 8.07 3.25-8.06h1.58l3.26 8.06 3.19-8.06zm8.1 1.42c-1.34 0-2.44.42-3.3 1.26-.86.83-1.29 1.9-1.29 3.2 0 1.26.44 2.31 1.3 3.15.87.84 1.95 1.25 3.25 1.25 1.31 0 2.4-.42 3.27-1.28.87-.85 1.31-1.92 1.31-3.19 0-1.24-.44-2.28-1.31-3.13-.87-.84-1.94-1.26-3.22-1.26m-.07-1.59c1.81 0 3.32.57 4.52 1.71 1.21 1.14 1.81 2.58 1.81 4.3 0 1.72-.61 3.15-1.82 4.28-1.21 1.13-2.74 1.69-4.59 1.69-1.76 0-3.23-.56-4.41-1.69-1.17-1.13-1.76-2.55-1.76-4.25 0-1.75.59-3.19 1.78-4.34 1.18-1.15 2.68-1.72 4.49-1.72m14.19 1.59c-1.34 0-2.44.42-3.3 1.25-.86.83-1.29 1.9-1.29 3.2 0 1.27.43 2.31 1.3 3.15.86.84 1.95 1.26 3.25 1.26 1.31 0 2.39-.43 3.27-1.28.88-.86 1.31-1.92 1.31-3.19 0-1.24-.43-2.29-1.31-3.13-.87-.85-1.94-1.27-3.22-1.27m-.06-1.59c1.81 0 3.32.57 4.52 1.72 1.21 1.14 1.81 2.58 1.81 4.3 0 1.72-.6 3.15-1.82 4.28-1.21 1.13-2.74 1.69-4.59 1.69-1.76 0-3.23-.57-4.41-1.7-1.17-1.13-1.76-2.55-1.76-4.25 0-1.75.59-3.19 1.78-4.34 1.18-1.14 2.68-1.72 4.49-1.72m12.16 1.66h-2.1V91h2.15c.83 0 1.48-.057 1.95-.172.46-.113.85-.26 1.16-.435.31-.176.59-.39.85-.648.83-.838 1.24-1.896 1.24-3.174 0-1.25-.43-2.28-1.28-3.07-.31-.29-.67-.54-1.08-.73-.4-.19-.79-.31-1.15-.37-.36-.06-.95-.09-1.75-.09m-3.78 10.19V80.83h3.94c1.59 0 2.85.237 3.78.715.93.48 1.66 1.18 2.21 2.107.55.927.82 1.937.82 3.032 0 .78-.15 1.53-.45 2.243-.3.715-.73 1.343-1.29 1.884-.57.56-1.23.98-1.98 1.27-.44.17-.84.29-1.21.35s-1.07.09-2.11.09h-3.7zm27.69-2.7v1.84c-1.23.67-2.65 1.01-4.25 1.01-1.3 0-2.41-.26-3.32-.79-.91-.52-1.63-1.24-2.16-2.17-.53-.92-.79-1.91-.79-2.99 0-1.7.61-3.13 1.82-4.29 1.22-1.16 2.72-1.74 4.5-1.74 1.23 0 2.59.32 4.1.97v1.8c-1.37-.78-2.7-1.17-4.01-1.17-1.34 0-2.45.42-3.34 1.27-.88.85-1.32 1.91-1.32 3.18 0 1.29.44 2.34 1.31 3.17.87.83 1.99 1.24 3.34 1.24 1.42 0 2.8-.43 4.16-1.3m7.87-7.56c-1.34 0-2.44.42-3.3 1.26-.86.84-1.29 1.91-1.29 3.21 0 1.27.43 2.32 1.29 3.15.87.84 1.95 1.26 3.25 1.26 1.31 0 2.4-.42 3.27-1.28.88-.85 1.32-1.92 1.32-3.19 0-1.24-.44-2.28-1.31-3.13-.87-.84-1.94-1.27-3.22-1.27m-.06-1.59c1.81 0 3.31.57 4.52 1.72 1.2 1.15 1.8 2.58 1.8 4.31 0 1.72-.61 3.15-1.82 4.28-1.22 1.13-2.75 1.7-4.59 1.7-1.764 0-3.23-.56-4.41-1.69-1.17-1.13-1.76-2.54-1.76-4.25 0-1.74.59-3.19 1.78-4.33s2.68-1.72 4.49-1.72m16.51.17h1.683v6.64c0 .9-.063 1.58-.193 2.04-.13.46-.29.84-.48 1.14-.2.31-.43.58-.71.82-.93.8-2.14 1.2-3.64 1.2-1.52 0-2.74-.39-3.66-1.18-.28-.25-.51-.52-.71-.83-.19-.3-.35-.68-.47-1.12-.13-.44-.19-1.13-.19-2.07V80.9h1.68v6.64c0 1.1.13 1.86.38 2.29.25.43.63.777 1.15 1.037.51.26 1.12.384 1.812.384.99 0 1.8-.26 2.43-.78.33-.28.57-.61.71-.99s.22-1.03.22-1.95v-6.7zm13.3 0h1.59V92.6h-1.44l-7.82-9.01v9.01H216V80.83h1.36l7.89 9.086v-9.08zm14.18 8.99v1.84c-1.23.67-2.65 1-4.26 1-1.31 0-2.415-.26-3.32-.78-.91-.52-1.63-1.25-2.16-2.17-.53-.92-.8-1.92-.8-2.99 0-1.7.61-3.13 1.82-4.29 1.21-1.16 2.71-1.75 4.49-1.75 1.23 0 2.59.33 4.09.97v1.8c-1.37-.78-2.71-1.17-4.02-1.17-1.34 0-2.45.43-3.33 1.27-.88.85-1.324 1.91-1.324 3.18 0 1.29.438 2.34 1.308 3.17.87.82 1.985 1.24 3.34 1.24 1.42 0 2.8-.44 4.15-1.31m2.08-8.98h1.68v11.7h-1.69V80.9zm4.27 0h1.68V91h5.267v1.523h-6.94V80.825z" fill="#036b38"/><path d="M132.267 46.32l5.7 2.45-.572 22.16-5.128-2.204V46.32z" fill="#036b38" fill-rule="evenodd"/><path d="M142.897 46.187l-5.502 2.344-.078 22.61 5.58-2.59V46.19zm19.688-9.357l-5.452 2.386v22.687l5.452-2.376V36.83z" fill="#036b38" fill-rule="evenodd"/><path d="M162.585 59.37l-.12-7.54-25.145 11.713-25.002-11.672-.124 7.54 25.124 11.73.002-.18.004.18 25.26-11.76z" fill="#036b38" fill-rule="evenodd"/><path d="M112.203 37.034l5.824 2.508v22.103l-5.824-2.503V37.034z" fill="#036b38" fill-rule="evenodd"/><path d="M123.487 34.102l.175-.156 8.68-8.176v12.14l-5.665-2.448-1.73 5.848 12.075 5.277-.004-31.744-24.222 21.153 5.682 2.485 5.01-4.37zm33.985-2.565l-5.8 2.507.002.002-8.845 3.813-.01-12.15 5.65 5.32 2.99-4.66-13.41-11.53v31.74l24.29-10.85-4.89-4.2z" fill="#43b54c" fill-rule="evenodd"/><path d="M32.485 87.566l-1.887-4.24-1.75 4.24h3.637zm-2.46-6.808H31.2l5.245 11.765H34.73l-1.56-3.467h-4.99l-1.46 3.467H25l5.024-11.765zm17.007.067h1.565v11.698h-1.683V83.42l-3.596 4.522h-.31L39.37 83.42v9.103h-1.676V80.825h1.587l3.89 4.804 3.87-4.81zm4.086 0h6.633v1.49H52.8v3.568h4.79v1.498H52.8v3.64h5.116v1.49h-6.79V80.83z" fill="#036b38"/><g clip-path="url(#c)" transform="matrix(1.25 0 0 -1.25 0 112.5)"><path d="M614.667 64c-4.4 0-8-3.6-8-8V34c0-4.4 3.6-8 8-8H740c4.4 0 8 3.6 8 8v22c0 4.4-3.6 8-8 8H614.667z" fill="url(#d)"/></g><path d="M925 80H768.334c-5.5 0-10-4.5-10-10V42.5c0-5.5 4.5-10 10-10H925c5.5 0 10 4.5 10 10V70c0 5.5-4.5 10-10 10z" fill="none" stroke="#8cc63f" stroke-width=".625" stroke-miterlimit="10"/><path d="M789.928 65.002h-10.92V48.644h4.11v13.238h6.81v3.12zm9.327-7.757c-.022-.812-.21-1.432-.565-1.856-.356-.43-.9-.64-1.632-.64-.746 0-1.33.22-1.75.67-.424.44-.656 1.05-.7 1.82h4.647zm-1.275 8.087c-2.328 0-4.115-.556-5.355-1.67-1.242-1.113-1.862-2.7-1.862-4.758 0-2.014.58-3.62 1.736-4.822 1.15-1.202 2.77-1.803 4.85-1.803 1.89 0 3.31.51 4.26 1.52.95 1.01 1.42 2.47 1.42 4.37v1.38h-8.43c.03.57.15 1.05.36 1.43.2.38.47.69.81.91.33.23.71.39 1.15.49.44.1.92.15 1.44.15.44 0 .88-.05 1.31-.15.43-.1.82-.23 1.18-.39.32-.14.61-.29.87-.45.27-.16.48-.31.65-.43h.4v3.18c-.32.12-.6.24-.86.34-.26.11-.62.21-1.07.32-.42.11-.85.19-1.29.26-.44.06-.98.09-1.62.09m13.85-3.55V59.2c-.65.066-1.18.125-1.59.17-.4.05-.8.143-1.18.283-.34.117-.6.296-.79.53-.19.24-.28.557-.28.95 0 .58.15.98.47 1.196.31.21.77.32 1.38.32.33 0 .68-.08 1.03-.23.35-.16.67-.37.96-.65m0 1.91l-.71.59c-.21.17-.49.35-.84.52-.35.17-.68.3-1.01.38-.33.09-.79.13-1.37.13-1.09 0-2-.36-2.72-1.09-.72-.74-1.08-1.66-1.08-2.77 0-.92.18-1.66.55-2.22.36-.57.89-1.01 1.58-1.34.69-.34 1.53-.57 2.49-.71.96-.13 2-.23 3.12-.31v-.06c0-.68-.25-1.15-.76-1.41-.5-.26-1.25-.39-2.26-.39-.46 0-.99.08-1.6.24-.6.17-1.2.38-1.78.63h-.33V52.9c.39-.11 1-.24 1.85-.39.85-.15 1.71-.225 2.57-.225 2.13 0 3.67.36 4.64 1.06.97.71 1.46 1.79 1.46 3.24V65h-3.82v-1.308zm14.95-7.4h-.32c-.15-.05-.36-.09-.64-.12s-.59-.04-.93-.04c-.4 0-.82.06-1.27.17-.44.11-.87.25-1.29.42V65h-3.84V52.66h3.84v1.77c.17-.16.42-.364.73-.61.31-.245.59-.44.85-.587.28-.17.6-.314.97-.434s.72-.18 1.05-.18c.13 0 .26 0 .42.01.15 0 .29.01.42.03v3.64zm13.04 8.71h-3.87v-6.12c0-.5-.02-1-.06-1.49-.04-.5-.12-.86-.23-1.1-.13-.28-.32-.48-.57-.6-.25-.13-.59-.18-1-.18-.32 0-.64.06-.96.17-.32.12-.66.3-1.03.56V65h-3.85V52.66h3.85v1.364c.63-.534 1.24-.95 1.84-1.252.59-.3 1.26-.45 1.98-.45 1.26 0 2.22.397 2.89 1.19.66.797 1 1.948 1 3.457V65zm26.37 0h-4.09V54.16l-2.98 6.998h-2.8l-2.98-7v10.844h-3.87V48.644h4.74l3.62 8.075 3.61-8.08h4.73V65zm11.06-6.14c0-.74-.06-1.34-.18-1.83s-.29-.88-.5-1.17c-.23-.31-.48-.52-.77-.64-.29-.13-.61-.19-.98-.19-.34 0-.65.05-.93.16-.28.1-.54.31-.77.61-.22.28-.4.67-.53 1.17s-.2 1.12-.2 1.88c0 .75.06 1.36.19 1.83.12.46.28.83.48 1.11.2.28.46.49.77.62s.65.2 1.02.2c.31 0 .62-.07.94-.2.32-.13.57-.33.76-.59.22-.32.4-.7.51-1.14.12-.44.18-1.06.18-1.84m3.94-.03c0 2.03-.56 3.63-1.67 4.8-1.11 1.16-2.68 1.75-4.71 1.75-2.02 0-3.58-.59-4.7-1.75-1.12-1.17-1.68-2.77-1.68-4.8 0-2.05.56-3.66 1.67-4.82 1.12-1.16 2.68-1.74 4.7-1.74s3.59.58 4.7 1.75c1.11 1.17 1.67 2.77 1.67 4.8m10.33-2.54h-.32c-.15-.05-.36-.09-.64-.12-.28-.02-.59-.04-.92-.04-.41 0-.83.06-1.27.18-.45.12-.88.26-1.29.42V65h-3.84V52.66H887v1.77c.17-.16.41-.363.73-.61.31-.244.59-.44.85-.586.28-.17.6-.314.97-.434s.72-.18 1.05-.18c.12 0 .26.002.42.01.15.006.29.017.41.032V56.3zm9.06.94c-.02-.81-.21-1.43-.57-1.86-.35-.43-.9-.64-1.63-.64-.74 0-1.33.22-1.75.67-.42.44-.65 1.05-.69 1.82h4.65zm-1.28 8.09c-2.33 0-4.11-.56-5.35-1.67-1.24-1.11-1.86-2.7-1.86-4.76 0-2.02.58-3.62 1.74-4.82 1.16-1.2 2.78-1.81 4.86-1.81 1.89 0 3.31.51 4.26 1.52.95 1.01 1.43 2.47 1.43 4.37v1.39h-8.43c.03.57.16 1.05.36 1.43s.48.69.81.92c.33.22.71.39 1.15.49.44.1.92.14 1.44.14.45 0 .89-.05 1.32-.15.43-.1.83-.23 1.19-.39.31-.14.6-.29.87-.45.27-.17.48-.31.65-.43h.4v3.18c-.31.12-.6.24-.86.34-.26.11-.618.21-1.07.32-.42.11-.85.19-1.29.26-.44.06-.98.09-1.62.09m20.31-6.85l-6.15 4.9v-3.2l3.09-2.35-3.09-2.36v-3.25l6.16 4.89v1.42z" fill="#ffffff"/></svg>