<?xml version="1.0" encoding="UTF-8" standalone="no"?>
<svg
   xmlns:dc="http://purl.org/dc/elements/1.1/"
   xmlns:cc="http://creativecommons.org/ns#"
   xmlns:rdf="http://www.w3.org/1999/02/22-rdf-syntax-ns#"
   xmlns:svg="http://www.w3.org/2000/svg"
   xmlns="http://www.w3.org/2000/svg"
   xmlns:sodipodi="http://sodipodi.sourceforge.net/DTD/sodipodi-0.dtd"
   xmlns:inkscape="http://www.inkscape.org/namespaces/inkscape"
   width="400"
   height="62.5"
   viewBox="0 0 400 62.5"
   version="1.1"
   id="svg1246"
   sodipodi:docname="AWC_320x50_CCWD (10).svg"
   inkscape:version="0.92.2 5c3e80d, 2017-08-06">
  <metadata
     id="metadata1250">
    <rdf:RDF>
      <cc:Work
         rdf:about="">
        <dc:format>image/svg+xml</dc:format>
        <dc:type
           rdf:resource="http://purl.org/dc/dcmitype/StillImage" />
        <dc:title></dc:title>
      </cc:Work>
    </rdf:RDF>
  </metadata>
  <sodipodi:namedview
     pagecolor="#ffffff"
     bordercolor="#666666"
     borderopacity="1"
     objecttolerance="10"
     gridtolerance="10"
     guidetolerance="10"
     inkscape:pageopacity="0"
     inkscape:pageshadow="2"
     inkscape:window-width="1710"
     inkscape:window-height="1044"
     id="namedview1248"
     showgrid="false"
     inkscape:zoom="3.585"
     inkscape:cx="225.1046"
     inkscape:cy="31.25"
     inkscape:window-x="12"
     inkscape:window-y="29"
     inkscape:window-maximized="0"
     inkscape:current-layer="svg1246" />
  <defs
     id="defs1206">
    <clipPath
       id="a">
      <path
         d="M0 0h320v50H0V0z"
         id="path1189" />
    </clipPath>
    <clipPath
       id="b">
      <path
         d="M0 50h320V0H0v50z"
         id="path1192" />
    </clipPath>
    <clipPath
       id="c">
      <path
         d="M110.732 36.74h134.036V11.76H110.732v24.98z"
         id="path1195" />
    </clipPath>
    <clipPath
       id="d">
      <path
         d="M0 50h320V0H0v50z"
         id="path1198" />
    </clipPath>
    <linearGradient
       x2="1"
       gradientUnits="userSpaceOnUse"
       gradientTransform="rotate(-135 159.26 -41.69) scale(46.84)"
       id="e">
      <stop
         offset="0"
         stop-color="#39b54a"
         id="stop1201" />
      <stop
         offset="1"
         stop-color="#009245"
         id="stop1203" />
    </linearGradient>
  </defs>
  <path
     d="M0 62.5h400V0H0v62.5z"
     fill="#0e5372"
     id="path1208" />
  <g
     clip-path="url(#a)"
     transform="matrix(1.25 0 0 -1.25 0 62.5)"
     id="g1214">
    <path
       d="M106.535 1.645c0-50.087-40.604-90.69-90.693-90.69-50.088 0-90.692 40.603-90.692 90.69 0 50.088 40.604 90.694 90.692 90.694 50.09-.01 90.693-40.61 90.693-90.7"
       fill="#43b54c"
       id="path1210" />
    <path
       d="M100.697-4.193c0-50.088-40.604-90.692-90.693-90.692-50.088 0-90.693 40.604-90.693 90.692 0 50.088 40.61 90.693 90.7 90.693S100.7 45.895 100.7-4.193"
       fill="#ffffff"
       id="path1212" />
  </g>
  <g
     clip-path="url(#b)"
     transform="matrix(1.25 0 0 -1.25 0 62.5)"
     id="g1222">
    <g
       clip-path="url(#c)"
       opacity="0.75"
       id="g1218">
      <path
         d="M115.096 27.193c-1.337 0-2.398.404-3.185 1.212-.78.81-1.17 1.945-1.17 3.41 0 1.412.4 2.538 1.18 3.378.79.84 1.85 1.26 3.19 1.26.36 0 .68-.02.96-.06.29-.04.56-.096.82-.167.2-.06.43-.142.67-.245.24-.1.44-.19.58-.27v-2.12h-.22c-.1.1-.24.21-.4.35-.16.14-.35.27-.55.4-.21.13-.43.24-.68.33-.25.09-.51.14-.78.14-.32 0-.62-.05-.89-.15-.27-.1-.53-.27-.77-.53-.22-.22-.4-.53-.55-.92-.14-.38-.21-.84-.21-1.37 0-.55.08-1.02.22-1.4.15-.37.34-.68.58-.91.23-.22.49-.38.78-.48.29-.1.57-.15.86-.15.3 0 .58.05.85.15.27.1.5.21.68.33.2.13.38.25.53.38l.4.34h.21V28l-.57-.26c-.21-.1-.43-.18-.66-.25-.28-.08-.54-.146-.79-.19-.24-.044-.58-.066-1-.066m8.52 3.52c0 .4-.03.73-.1.998s-.15.48-.27.64c-.12.17-.26.29-.42.35-.15.07-.33.1-.53.1-.19 0-.35-.03-.51-.083-.15-.06-.29-.17-.42-.33-.12-.16-.21-.37-.28-.64-.07-.27-.11-.61-.11-1.02 0-.41.04-.75.1-1s.16-.46.27-.61c.11-.16.25-.27.42-.34.17-.08.35-.11.56-.11.17 0 .34.03.51.11.18.07.32.18.42.32.13.17.22.38.28.62.07.24.1.58.1 1m2.15.01c0-1.11-.3-1.98-.91-2.61-.6-.64-1.46-.96-2.56-.96-1.09 0-1.95.32-2.56.95-.6.63-.91 1.5-.91 2.61 0 1.12.31 1.99.92 2.62.61.63 1.47.95 2.56.95 1.1 0 1.96-.32 2.56-.96.61-.64.91-1.51.91-2.62m5.14-1.5v3.3c-.1.05-.24.09-.4.13-.17.03-.31.05-.43.05-.5 0-.88-.18-1.14-.53-.25-.35-.38-.84-.38-1.47 0-.67.1-1.14.3-1.44.2-.3.53-.44.98-.44.18 0 .37.04.56.11.19.07.36.17.51.3m2.09-1.86H131v.7c-.14-.12-.29-.24-.47-.36-.178-.13-.33-.23-.46-.29-.17-.08-.33-.14-.498-.18-.16-.04-.36-.06-.58-.06-.764 0-1.37.32-1.82.95-.445.63-.67 1.48-.67 2.54 0 .59.08 1.1.23 1.53.153.43.363.81.63 1.13.244.29.54.52.886.69.35.17.715.25 1.1.25.35 0 .64-.04.87-.11.22-.08.49-.19.79-.35v2.86h2.09v-9.3zm5.74 4.22c-.01.45-.12.78-.31 1.01-.19.23-.49.35-.89.35-.41 0-.73-.13-.96-.37-.23-.25-.35-.58-.38-1h2.53zm-.7-4.4c-1.27 0-2.25.3-2.92.91-.68.6-1.02 1.47-1.02 2.59 0 1.09.32 1.97.95 2.62.63.65 1.51.98 2.65.98 1.03 0 1.8-.28 2.32-.84.52-.56.78-1.35.78-2.39v-.75h-4.59c.02-.31.09-.57.2-.78.11-.21.26-.38.45-.5.18-.13.39-.21.63-.27.24-.05.5-.08.78-.08.25 0 .49.03.72.08.24.06.45.13.65.21.17.08.33.16.48.25.15.09.27.17.36.24h.22v-1.73c-.17-.07-.33-.13-.47-.19-.14-.05-.33-.11-.58-.17-.23-.06-.46-.11-.7-.14-.24-.04-.53-.05-.88-.05m11.39.01c-1.33 0-2.4.4-3.18 1.21-.79.81-1.18 1.94-1.18 3.41 0 1.41.4 2.53 1.18 3.37.79.84 1.85 1.26 3.19 1.26.36 0 .68-.02.96-.06.29-.04.56-.1.82-.17.2-.06.42-.15.66-.25.24-.1.43-.19.58-.27V33.6h-.23c-.11.097-.24.21-.41.345-.17.134-.35.264-.56.392-.21.127-.44.236-.69.326-.25.09-.51.133-.78.133-.32 0-.62-.05-.89-.154-.27-.1-.52-.277-.77-.53-.22-.226-.41-.533-.55-.92-.14-.387-.21-.844-.21-1.37 0-.555.08-1.02.22-1.4.15-.375.34-.68.58-.91.23-.224.49-.386.78-.485.28-.1.57-.15.85-.15.29 0 .57.05.84.15.27.1.49.206.68.326.2.124.37.25.53.377l.39.34h.2v-2.1l-.57-.26c-.21-.1-.44-.18-.66-.25-.28-.082-.54-.146-.79-.19-.24-.044-.58-.066-1.01-.066m8.52 3.52c0 .4-.03.73-.1.998-.06.266-.15.48-.27.638-.12.17-.26.286-.42.35-.15.068-.33.1-.53.1-.19 0-.36-.03-.51-.086-.15-.06-.29-.17-.42-.336-.12-.157-.21-.37-.28-.64-.07-.273-.11-.614-.11-1.025 0-.41.04-.743.1-.997.07-.253.16-.456.27-.607.11-.16.25-.27.42-.35.17-.08.35-.11.56-.11.16 0 .34.03.51.11.17.07.31.18.41.32.13.17.22.38.28.62.07.24.1.57.1 1m2.15.01c0-1.11-.3-1.98-.91-2.62-.6-.64-1.46-.96-2.56-.96-1.09 0-1.95.32-2.56.95-.6.64-.91 1.51-.91 2.61 0 1.12.31 1.99.91 2.62.61.63 1.47.95 2.56.95 1.1 0 1.96-.32 2.56-.96.61-.64.91-1.51.91-2.62m7.41-3.36h-2.12v3.33c0 .27-.01.54-.03.81-.02.27-.06.46-.12.59-.07.15-.17.26-.31.32s-.32.1-.54.1c-.17 0-.34-.04-.52-.1-.17-.07-.36-.17-.56-.31V27.3h-2.1v6.72h2.1v-.75c.34.29.68.52 1 .687.32.16.68.242 1.08.242.68 0 1.21-.21 1.57-.65.36-.43.55-1.06.55-1.88V27.3zm5.85 7.73h-.16c-.08.02-.21.05-.38.09-.17.04-.33.06-.48.06-.42 0-.71-.08-.86-.24-.15-.16-.23-.45-.23-.88v-.06H173V32.6h-1.6v-5.27h-2.09v5.26h-.84v1.46h.84v.187c0 .823.216 1.44.648 1.85.43.41 1.087.617 1.96.617.306 0 .59-.01.85-.03s.49-.05.685-.09v-1.5zm4.69-4.39c0 .4-.03.73-.1 1-.06.26-.15.47-.27.63-.12.16-.26.28-.42.35-.15.06-.33.1-.53.1-.19 0-.36-.03-.51-.09-.15-.06-.29-.17-.42-.34-.12-.16-.22-.37-.29-.64-.07-.28-.11-.62-.11-1.03 0-.41.04-.74.1-1s.16-.46.27-.61c.11-.16.25-.27.42-.34.17-.07.35-.11.56-.11.17 0 .34.03.52.1s.31.18.42.32c.12.17.22.38.28.62.06.24.1.57.1 1m2.15.01c0-1.11-.3-1.98-.91-2.61-.61-.64-1.46-.96-2.57-.96-1.1 0-1.95.32-2.56.95-.61.63-.91 1.5-.91 2.61 0 1.12.3 1.99.91 2.63.61.63 1.46.95 2.56.95s1.96-.32 2.56-.96c.61-.64.91-1.51.91-2.62m5.63 1.38h-.17c-.08.02-.19.05-.35.06-.15.02-.32.02-.5.02-.22 0-.45-.03-.69-.09-.24-.07-.47-.14-.7-.23v-4.5h-2.09V34h2.09v-.96c.09.09.23.2.39.338.17.13.33.24.47.32.15.09.33.17.53.23.2.07.39.1.57.1.07 0 .15 0 .23-.003.09-.01.16-.01.23-.02V32.1zm8.84-4.74v3.35c0 .33 0 .61-.02.84-.01.23-.05.41-.11.56-.06.15-.15.25-.28.32-.12.07-.3.1-.53.1-.16 0-.32-.04-.47-.11-.16-.07-.33-.17-.51-.3V27.3h-2.11v3.36c0 .33 0 .61-.02.84-.01.23-.05.413-.11.56-.06.14-.15.25-.28.31-.12.06-.3.1-.52.1-.17 0-.34-.04-.5-.12-.16-.08-.32-.18-.48-.28v-4.76h-2.1v6.72h2.1v-.75c.34.29.66.52.97.68.3.165.64.247 1.02.247.41 0 .77-.098 1.08-.29.31-.2.55-.49.71-.88.41.38.79.665 1.14.87.36.2.72.3 1.09.3.31 0 .59-.05.84-.15.25-.1.46-.25.63-.45.18-.21.33-.47.42-.77.09-.29.14-.68.14-1.16v-4.37h-2.11zm5.75 0h-2.1V34h2.1v-6.7zm.06 7.68h-2.23v1.63h2.22V35zm7.84-7.68h-2.11v3.33c0 .27-.01.54-.03.81-.02.27-.06.47-.12.59-.07.15-.18.26-.31.33-.14.07-.32.1-.55.1-.17 0-.34-.03-.52-.1-.17-.06-.36-.16-.56-.3V27.3h-2.09v6.72h2.1v-.74c.35.29.68.52 1.01.68.32.16.68.24 1.08.24.68 0 1.21-.21 1.57-.65.36-.43.54-1.06.54-1.88V27.3zm5.57 2.11v3.05c-.1.05-.23.09-.38.12s-.3.05-.45.05c-.5 0-.88-.16-1.14-.49-.25-.33-.38-.78-.38-1.36 0-.29.02-.54.06-.74.04-.2.11-.38.22-.53.1-.15.23-.27.39-.34.16-.08.37-.12.62-.12.19 0 .37.03.55.1.18.06.36.15.52.27m2.1-1.34c0-.63-.09-1.15-.27-1.59-.18-.43-.42-.77-.73-1.02-.31-.24-.69-.42-1.12-.53-.44-.11-.92-.16-1.45-.16-.45 0-.87.03-1.27.08-.41.06-.75.12-1.05.2v1.67h.24c.11-.04.23-.09.37-.13.14-.05.28-.1.43-.14.17-.05.34-.08.5-.11.17-.03.33-.05.51-.05.35 0 .65.04.89.11.23.08.41.18.53.32.12.14.2.3.25.49.05.19.07.43.07.71v.13c-.23-.21-.51-.37-.82-.5-.31-.12-.62-.19-.95-.19-.87 0-1.54.28-2.013.85-.47.57-.71 1.43-.71 2.59 0 .52.075 1 .22 1.42.147.42.35.77.61 1.07.25.28.547.5.9.65.35.16.714.23 1.094.23.35 0 .66-.04.93-.13s.52-.2.74-.35l.08.3h2v-5.9zm-39.21-4.94l-2.26-8.92h-2.45l-1.43 5.52-1.39-5.51h-2.46l-2.26 8.91H167l1.23-5.98 1.5 5.98h2.22l1.42-5.98 1.29 5.98h2.265zm5.28-5.57c0 .4-.03.73-.1 1-.07.26-.16.47-.27.63-.13.17-.27.28-.42.35-.16.06-.33.1-.53.1-.19 0-.36-.03-.51-.09-.15-.06-.29-.17-.42-.33-.12-.15-.22-.37-.29-.64-.07-.27-.11-.61-.11-1.02 0-.41.03-.74.1-1 .07-.25.16-.45.26-.61.11-.16.25-.27.42-.34.17-.08.35-.11.56-.11.17 0 .34.03.52.11.17.07.31.17.418.32.13.17.22.38.28.62.06.24.1.57.1 1m2.146.01c0-1.1-.3-1.97-.91-2.61-.61-.64-1.46-.96-2.57-.96-1.1 0-1.95.32-2.56.96-.61.64-.91 1.51-.91 2.62 0 1.12.3 1.99.91 2.62.61.63 1.46.95 2.56.95s1.955-.32 2.56-.96c.61-.64.91-1.51.91-2.62m5.42-.01c0 .4-.036.73-.1 1-.07.26-.16.48-.27.64-.13.17-.27.28-.42.35-.16.06-.337.1-.536.1-.184 0-.354-.03-.51-.09-.15-.06-.29-.17-.42-.33-.12-.16-.22-.37-.29-.64-.08-.27-.11-.61-.11-1.03 0-.41.03-.74.1-.99s.15-.46.26-.61c.11-.16.25-.27.42-.34.17-.08.35-.11.56-.11.16 0 .34.03.51.11.17.07.31.18.42.32.124.17.22.38.28.62.07.24.1.57.1 1m2.15.01c0-1.11-.3-1.98-.908-2.62-.603-.64-1.46-.96-2.564-.96-1.1 0-1.95.32-2.56.96-.61.63-.91 1.51-.91 2.61 0 1.12.305 1.99.91 2.62.61.63 1.46.95 2.56.95s1.96-.32 2.56-.95c.61-.64.91-1.51.91-2.62m5.13-1.5v3.3c-.1.05-.24.1-.405.13-.16.03-.31.05-.43.05-.5 0-.88-.17-1.13-.53-.25-.35-.38-.84-.38-1.47 0-.66.1-1.14.3-1.44.2-.3.527-.45.98-.45.18 0 .367.04.55.11.188.07.36.17.51.3m2.09-1.85H197v.7c-.14-.11-.29-.23-.47-.36-.178-.13-.33-.22-.46-.29-.17-.08-.33-.14-.5-.18-.16-.04-.36-.06-.58-.06-.76 0-1.37.32-1.82.95-.44.64-.67 1.49-.67 2.55 0 .59.08 1.1.23 1.53.15.43.36.81.63 1.13.25.29.54.52.89.69.35.17.71.25 1.1.25.35 0 .64-.04.86-.12.23-.07.49-.19.79-.34v2.86h2.1v-9.3zm10.91 4.5c0 .59-.1 1.09-.3 1.51-.204.41-.514.74-.93.98-.306.16-.624.26-.96.27-.33.02-.73.02-1.194.02h-.04V15.9h.04c.5 0 .93.01 1.27.03.34.02.67.128.98.32.37.236.65.556.84.96.19.41.29.906.29 1.49m2.3-.02c0-.83-.18-1.57-.54-2.23-.36-.65-.82-1.16-1.37-1.51-.46-.3-.97-.49-1.51-.574-.55-.085-1.13-.13-1.74-.13h-2.79v8.91h2.76c.63 0 1.21-.04 1.76-.12.55-.08 1.06-.27 1.54-.58.58-.373 1.05-.88 1.39-1.52.34-.633.51-1.38.51-2.25m5.33-.22c-.01.44-.11.78-.31 1.01-.19.23-.49.35-.88.35-.41 0-.73-.12-.96-.36-.23-.24-.36-.57-.38-.99h2.53zm-.7-4.404c-1.27 0-2.24.3-2.92.91-.67.604-1.01 1.47-1.01 2.59 0 1.1.32 1.98.95 2.63.63.66 1.51.98 2.65.98 1.03 0 1.8-.27 2.32-.83.52-.55.78-1.35.78-2.38V17.2h-4.59c.02-.31.08-.57.2-.78.11-.21.26-.377.45-.5.18-.12.39-.21.63-.267.24-.05.5-.08.78-.08.25 0 .49.03.72.08.24.06.45.13.65.21.17.08.33.16.47.25.15.09.27.16.36.23h.22v-1.72l-.47-.19c-.14-.06-.34-.12-.58-.18-.23-.06-.46-.11-.71-.14-.24-.04-.54-.05-.88-.05m5.89-.01c-.49 0-.96.05-1.4.16-.44.11-.81.24-1.09.38v1.77h.17c.1-.08.22-.16.35-.25.13-.1.31-.19.54-.29.2-.09.42-.17.66-.24.25-.06.52-.1.8-.1.3 0 .56.05.78.14.23.09.34.23.34.43 0 .15-.05.27-.15.35-.1.08-.3.15-.6.22-.16.04-.36.09-.61.13-.24.05-.46.1-.64.16-.52.17-.92.41-1.19.73-.26.32-.4.74-.4 1.26 0 .3.07.58.21.85.14.27.34.5.61.71.27.2.6.37.99.49.4.11.84.17 1.34.17.47 0 .9-.05 1.3-.14.39-.1.73-.21 1-.34V19h-.17c-.07.06-.19.133-.34.227-.16.09-.31.17-.46.24-.18.08-.37.15-.59.2-.22.05-.44.076-.67.076-.3 0-.56-.05-.77-.154-.21-.11-.31-.24-.31-.41 0-.15.05-.27.16-.36.11-.09.33-.17.68-.25.18-.05.39-.09.62-.13.24-.04.46-.1.68-.17.48-.16.85-.39 1.1-.69.25-.3.37-.7.37-1.2 0-.31-.08-.61-.22-.9-.15-.28-.36-.53-.63-.72-.29-.21-.63-.38-1.02-.49-.39-.12-.86-.18-1.4-.18m6.35.19H227V21h2.094v-6.7zm.06 7.68H227v1.63h2.215v-1.63zm5.56-5.56v3.04c-.1.05-.23.09-.38.12s-.3.05-.45.05c-.5 0-.88-.17-1.14-.49-.25-.33-.38-.78-.38-1.36 0-.29.02-.54.06-.74.032-.2.102-.38.21-.54.1-.16.23-.27.39-.35.17-.08.37-.12.62-.12.19 0 .38.03.56.1.18.06.35.15.52.27m2.092-1.35c0-.62-.09-1.15-.27-1.59-.18-.44-.42-.78-.73-1.02-.31-.25-.68-.43-1.12-.54-.43-.11-.92-.17-1.45-.17-.442 0-.87.03-1.27.09s-.75.12-1.04.2v1.68h.24c.11-.04.23-.08.37-.13.14-.05.29-.09.43-.13.17-.05.34-.08.5-.11.17-.03.33-.05.51-.05.36 0 .65.03.89.11.24.07.42.18.54.31.12.14.21.3.25.49.05.19.08.43.08.71V15c-.23-.21-.504-.375-.813-.5-.31-.126-.63-.19-.96-.19-.87 0-1.54.285-2.016.85-.47.57-.71 1.43-.71 2.587 0 .53.07 1 .22 1.42.15.42.35.78.61 1.07.25.28.55.5.9.66.35.15.716.23 1.096.23.34 0 .65-.04.92-.13s.52-.21.74-.354l.08.3H237V15zm7.9-.77h-2.11v3.33c0 .27-.01.54-.03.81-.02.27-.06.47-.12.6-.07.15-.18.26-.31.32-.14.06-.32.1-.55.1-.17 0-.34-.03-.52-.1-.17-.06-.36-.17-.56-.31V14.3h-2.1v6.726h2.1v-.74c.34.293.678.52 1 .684.328.165.688.246 1.08.246.69 0 1.21-.216 1.577-.65.36-.43.54-1.06.54-1.88v-4.38z"
         fill="#000000"
         id="path1216" />
    </g>
    <path
       d="M114.346 27.943c-1.337 0-2.398.404-3.185 1.212-.78.81-1.17 1.945-1.17 3.41 0 1.412.4 2.538 1.18 3.378.79.84 1.85 1.26 3.19 1.26.36 0 .68-.02.96-.06.29-.04.56-.096.82-.167.2-.06.43-.142.67-.245.24-.1.44-.19.58-.27v-2.12h-.22c-.1.1-.24.21-.4.35-.16.14-.35.27-.55.4-.21.13-.43.24-.68.33-.25.09-.51.14-.78.14-.32 0-.62-.05-.89-.15-.27-.1-.53-.27-.77-.53-.22-.22-.4-.53-.55-.92-.14-.38-.21-.84-.21-1.37 0-.55.08-1.02.22-1.4.15-.37.34-.68.58-.91.23-.22.49-.38.78-.48.29-.1.57-.15.86-.15.3 0 .58.05.85.15.27.1.5.21.68.33.2.13.38.25.53.38l.4.34h.21v-2.1l-.57-.26c-.21-.1-.43-.18-.66-.25-.28-.08-.54-.14-.79-.19-.24-.04-.58-.06-1-.06m8.52 3.52c0 .4-.03.73-.1 1s-.15.48-.27.64c-.12.17-.26.29-.42.35-.15.07-.33.1-.53.1-.19 0-.35-.03-.51-.08-.15-.06-.29-.17-.42-.33-.12-.15-.21-.37-.28-.64-.07-.27-.11-.61-.11-1.02 0-.41.04-.74.1-1 .07-.25.16-.45.27-.61.11-.15.25-.27.42-.34.17-.07.35-.11.56-.11.17 0 .34.04.51.11.18.07.32.18.42.32.13.18.22.38.28.62.07.25.1.58.1 1.01m2.15.02c0-1.1-.3-1.97-.91-2.61-.6-.64-1.46-.95-2.56-.95-1.09 0-1.95.32-2.56.96-.6.64-.91 1.51-.91 2.61 0 1.12.31 1.99.92 2.63.61.63 1.47.95 2.56.95 1.1 0 1.96-.32 2.56-.96.61-.64.91-1.51.91-2.62m5.14-1.5v3.3c-.1.05-.24.09-.4.13-.17.03-.31.05-.43.05-.5 0-.88-.18-1.14-.53-.25-.35-.38-.84-.38-1.47 0-.66.1-1.14.3-1.44.2-.29.53-.44.98-.44.18 0 .37.04.56.11.19.08.36.17.51.3m2.09-1.85h-2.09v.7c-.14-.11-.29-.23-.46-.36-.17-.12-.33-.22-.46-.28-.17-.08-.33-.14-.5-.18-.16-.04-.36-.06-.58-.06-.76 0-1.37.32-1.82.95-.45.63-.67 1.48-.67 2.54 0 .59.08 1.1.23 1.53.15.43.36.81.63 1.13.24.29.54.52.88.69.35.17.72.26 1.11.26.35 0 .64-.04.86-.11.23-.08.49-.19.79-.35v2.86h2.1V28.2zm5.75 4.22c-.01.45-.11.78-.31 1.02-.19.23-.49.35-.89.35-.41 0-.73-.12-.95-.36-.23-.24-.36-.57-.38-.99h2.5zm-.69-4.4c-1.27 0-2.24.3-2.92.91-.67.61-1.01 1.47-1.01 2.59 0 1.1.32 1.97.95 2.63.63.66 1.52.98 2.65.98 1.03 0 1.81-.28 2.33-.83.52-.55.78-1.35.78-2.38v-.75h-4.59c.02-.31.09-.57.2-.78.12-.21.26-.37.45-.5.18-.12.39-.21.63-.26.24-.05.5-.08.78-.08.25 0 .49.03.72.08.24.06.45.13.65.21.17.08.33.16.48.25.14.09.26.17.35.23h.22v-1.8c-.17-.06-.33-.13-.47-.19-.14-.05-.34-.11-.58-.17-.23-.06-.47-.11-.71-.14-.24-.03-.53-.05-.88-.05m11.39.01c-1.33 0-2.4.41-3.18 1.21-.79.81-1.18 1.94-1.18 3.41 0 1.41.39 2.54 1.18 3.38.78.84 1.85 1.26 3.18 1.26.36 0 .68-.02.96-.06.29-.04.56-.09.82-.17.2-.06.42-.14.66-.24.24-.1.43-.19.58-.27v-2.13h-.23c-.1.1-.24.21-.4.35-.17.14-.35.27-.56.4-.21.13-.44.24-.69.33-.25.09-.51.14-.78.14-.32 0-.62-.05-.89-.15-.27-.1-.52-.28-.77-.53-.22-.23-.4-.53-.55-.92-.14-.39-.21-.84-.21-1.37 0-.55.08-1.02.22-1.4.15-.37.35-.68.59-.91.23-.22.49-.38.78-.48.28-.1.57-.15.85-.15.3 0 .58.05.84.15.27.1.49.21.68.33.2.13.38.25.53.38l.39.34h.21v-2.1l-.57-.26c-.22-.1-.44-.18-.67-.25-.28-.08-.54-.14-.78-.19-.25-.04-.58-.06-1.01-.06m8.53 3.52c0 .4-.03.73-.1 1s-.15.48-.27.64c-.12.17-.26.29-.42.35-.15.07-.33.1-.53.1-.18 0-.35-.03-.51-.09-.15-.06-.29-.17-.41-.34-.12-.15-.21-.37-.28-.64-.07-.27-.11-.61-.11-1.02 0-.41.04-.74.1-1 .07-.25.16-.45.27-.6.11-.15.25-.27.42-.34.17-.07.35-.11.56-.11.17 0 .34.04.51.11.17.07.31.18.42.33.12.17.21.38.28.62.06.24.09.58.09 1m2.15.02c0-1.11-.31-1.98-.91-2.61s-1.46-.96-2.57-.96c-1.1 0-1.95.32-2.56.96-.61.64-.91 1.51-.91 2.61 0 1.12.3 1.99.91 2.63.61.63 1.46.94 2.56.94s1.96-.32 2.56-.96c.61-.64.91-1.51.91-2.62m7.42-3.35h-2.11v3.33c0 .27-.01.54-.03.81-.02.27-.066.47-.126.6-.07.15-.177.26-.31.33-.14.06-.32.1-.55.1-.17 0-.343-.04-.52-.1-.174-.07-.36-.17-.56-.31V28.2h-2.1v6.72h2.1v-.74c.35.29.68.52 1.01.68.32.16.68.24 1.08.24.68 0 1.21-.22 1.57-.65.36-.43.55-1.06.55-1.88V28.2zm5.85 7.73h-.16c-.08.02-.21.05-.38.09-.17.04-.33.06-.48.06-.42 0-.71-.08-.862-.23-.15-.16-.23-.45-.23-.87v-.06h1.66v-1.5h-1.59v-5.27h-2.1v5.26h-.84v1.46h.84v.19c0 .82.22 1.44.65 1.85.43.41 1.09.62 1.96.62.3 0 .59-.01.85-.03s.49-.05.68-.09V35.9zm4.69-4.39c0 .4-.03.73-.1.99-.062.26-.153.48-.27.64-.122.17-.262.28-.42.35-.153.07-.33.1-.53.1-.19 0-.36-.03-.51-.09-.15-.06-.29-.17-.42-.33-.12-.15-.22-.37-.29-.64-.08-.27-.11-.61-.11-1.02 0-.41.03-.74.1-.99.068-.26.15-.46.26-.61.11-.16.25-.27.42-.34.168-.07.35-.11.55-.11.17 0 .34.04.51.11.18.07.31.18.42.32.12.17.214.38.28.62.06.24.094.58.094 1m2.15.02c0-1.11-.3-1.98-.91-2.62-.6-.63-1.46-.95-2.56-.95s-1.95.32-2.56.96c-.61.64-.91 1.51-.91 2.61 0 1.12.31 1.99.917 2.63.61.63 1.46.94 2.56.94s1.96-.32 2.56-.95c.61-.64.91-1.51.91-2.62m5.63 1.39h-.2c-.08.03-.19.05-.34.06-.16.02-.32.02-.51.02-.22 0-.45-.03-.69-.09-.24-.06-.47-.14-.7-.23v-4.5h-2.09v6.72h2.1v-.97c.09.09.23.2.39.33.17.13.33.24.47.32.15.09.32.17.53.24.2.07.39.1.57.1.07 0 .14 0 .23-.01.08-.01.16-.01.22-.02v-2zm8.84-4.74v3.35c0 .33-.01.61-.02.84-.01.23-.05.42-.11.56-.06.14-.15.25-.28.31-.12.07-.3.1-.53.1-.16 0-.32-.03-.47-.1-.15-.07-.32-.17-.51-.29v-4.8H190v3.36c0 .33-.01.61-.02.84-.02.23-.053.42-.11.56-.06.15-.155.25-.28.32-.13.07-.3.1-.524.1-.17 0-.34-.04-.5-.12-.16-.08-.32-.17-.47-.28V28.2H186v6.72h2v-.75c.34.29.663.52.97.683.3.164.64.246 1.02.246.41 0 .77-.1 1.083-.3.31-.2.547-.49.71-.88.405.37.786.66 1.14.86.36.2.72.3 1.09.3.31 0 .59-.05.836-.15.24-.1.45-.25.63-.45.18-.21.33-.47.42-.76.09-.3.14-.69.14-1.17v-4.37h-2.11zm5.75 0h-2.09v6.72h2.1V28.2zm.06 7.68h-2.21v1.63h2.21v-1.7zm7.84-7.68h-2.11v3.33c0 .27-.01.55-.03.81-.02.27-.06.47-.13.6-.07.15-.17.26-.31.33-.14.06-.32.1-.54.1-.17 0-.34-.03-.52-.1s-.36-.17-.56-.31v-4.8h-2.11v6.72h2.09v-.74c.34.29.68.52 1 .68.32.16.68.25 1.08.25.68 0 1.21-.22 1.57-.65.36-.43.54-1.06.54-1.88V28.2zm5.57 2.12v3.05c-.1.05-.23.09-.38.12s-.3.05-.45.05c-.5 0-.88-.16-1.14-.49-.25-.33-.38-.78-.38-1.36 0-.29.02-.53.06-.74.04-.2.11-.38.21-.53.1-.15.23-.26.394-.34.16-.08.37-.11.62-.11.19 0 .37.03.55.1.18.07.355.16.52.28m2.09-1.37c0-.62-.09-1.15-.27-1.59-.18-.44-.42-.78-.74-1.02-.31-.25-.68-.43-1.12-.54-.43-.11-.91-.16-1.45-.16-.45 0-.87.03-1.27.08-.4.06-.75.13-1.04.2v1.68h.25c.11-.04.23-.08.37-.13.14-.05.29-.09.43-.13.17-.05.34-.08.5-.11.17-.03.33-.05.51-.05.36 0 .65.04.89.11s.42.18.54.31c.12.14.2.3.25.49.05.19.07.42.07.71v.12c-.236-.2-.51-.37-.82-.5-.31-.12-.62-.18-.95-.18-.87 0-1.54.28-2.01.85-.476.56-.71 1.43-.71 2.58 0 .52.07 1 .22 1.41.14.42.344.78.604 1.07.24.28.54.5.9.66.35.16.71.23 1.09.23.343 0 .65-.04.92-.13s.52-.2.74-.35l.07.3h2.03v-5.95zm-39.32-5l-2.26-8.91h-2.45l-1.43 5.52-1.39-5.51h-2.45l-2.26 8.91h2.32l1.23-5.98 1.5 5.98h2.22l1.42-5.98 1.29 5.98h2.26zm5.285-5.57c0 .4-.038.73-.1 1-.07.27-.16.48-.27.64-.13.17-.27.29-.42.35-.16.07-.338.1-.538.1-.18 0-.35-.03-.51-.08-.15-.06-.29-.17-.41-.33-.12-.15-.22-.36-.29-.64-.07-.27-.11-.61-.11-1.02 0-.41.032-.74.1-.99.07-.25.153-.45.262-.61.11-.15.25-.27.42-.34.17-.07.35-.11.56-.11.164 0 .34.04.51.11.17.07.31.18.415.32.13.17.22.38.29.62.06.24.093.58.093 1m2.14.02c0-1.1-.3-1.98-.904-2.61-.61-.64-1.46-.96-2.57-.96-1.094 0-1.95.32-2.56.96-.604.64-.91 1.51-.91 2.62 0 1.12.31 1.99.91 2.62.61.63 1.46.95 2.56.95s1.95-.32 2.56-.95c.61-.64.91-1.51.91-2.62m5.42-.01c0 .4-.04.73-.1 1s-.16.48-.27.64c-.13.17-.27.29-.42.35-.16.07-.34.1-.54.1-.19 0-.36-.02-.51-.08-.15-.06-.29-.17-.42-.33-.12-.15-.22-.37-.29-.64-.07-.27-.11-.61-.11-1.02 0-.41.03-.74.1-1 .06-.25.15-.46.26-.61.11-.15.25-.27.42-.34.16-.07.35-.11.55-.11.16 0 .34.04.51.11.17.07.31.18.41.32.12.17.22.38.28.62.06.24.1.58.1 1m2.15.02c0-1.11-.3-1.98-.91-2.62-.61-.64-1.46-.95-2.57-.95-1.1 0-1.95.32-2.56.96-.61.64-.92 1.51-.92 2.61 0 1.12.3 1.99.91 2.63.61.64 1.46.95 2.56.95s1.95-.32 2.56-.95c.61-.64.91-1.51.91-2.62m5.13-1.5v3.3c-.1.05-.24.1-.41.13-.17.03-.31.05-.43.05-.5 0-.88-.17-1.13-.52-.26-.35-.38-.84-.38-1.47 0-.66.1-1.14.3-1.43.2-.3.52-.45.98-.45.18 0 .36.04.55.11.19.07.36.17.51.3m2.1-1.85h-2.1v.7c-.14-.11-.29-.23-.47-.36-.18-.13-.33-.22-.46-.29-.17-.08-.33-.14-.5-.18-.17-.04-.36-.06-.59-.06-.77 0-1.38.32-1.82.95-.45.64-.67 1.49-.67 2.55 0 .59.07 1.1.22 1.53.15.43.36.81.63 1.13.24.29.54.52.89.69.34.17.71.26 1.1.26.35 0 .64-.04.86-.11.22-.08.49-.19.78-.35v2.86h2.1V15.2zm10.99 4.46c0 .59-.1 1.09-.3 1.5-.2.42-.51.75-.93.98-.3.17-.62.26-.96.28-.34.02-.73.02-1.2.02h-.04v-5.6h.04c.5 0 .93.01 1.27.03.35.02.67.13.99.32.37.23.65.55.84.96.19.41.28.9.28 1.49m2.3-.02c0-.83-.19-1.57-.55-2.23-.36-.65-.82-1.16-1.38-1.51-.46-.3-.96-.49-1.51-.58-.54-.08-1.12-.13-1.74-.13h-2.79v8.92h2.77c.62 0 1.21-.04 1.76-.12.55-.08 1.06-.27 1.54-.58.59-.37 1.05-.88 1.39-1.52.34-.63.51-1.38.51-2.25m5.34-.22c-.01.44-.11.78-.31 1.01-.19.23-.49.35-.88.35-.41 0-.73-.13-.96-.37-.23-.25-.36-.58-.38-1h2.53zm-.69-4.4c-1.27 0-2.25.3-2.92.91-.68.6-1.02 1.47-1.02 2.59 0 1.09.31 1.97.94 2.62.63.66 1.51.98 2.65.98 1.03 0 1.8-.27 2.32-.83.52-.55.78-1.35.78-2.38V18h-4.59c.02-.31.08-.57.2-.78.11-.21.26-.377.44-.5.18-.124.39-.213.63-.267.24-.054.5-.08.78-.08.25 0 .49.026.72.08.24.054.45.124.65.212.17.075.33.157.47.244.15.08.27.16.36.23h.22v-1.73l-.47-.19c-.14-.06-.34-.12-.58-.18-.23-.06-.46-.11-.71-.14-.24-.04-.53-.05-.88-.05m5.89-.01c-.5 0-.97.05-1.41.16-.44.11-.81.23-1.09.38v1.77h.17c.1-.08.21-.16.34-.25.12-.1.3-.19.53-.29.19-.09.41-.17.66-.24.24-.07.51-.1.8-.1.29 0 .55.04.78.13.22.09.34.23.34.43 0 .15-.06.27-.16.35-.11.08-.31.15-.61.22-.16.04-.36.08-.6.13s-.46.1-.645.16c-.53.16-.93.4-1.19.72-.27.32-.4.74-.4 1.26 0 .3.07.58.21.84.14.26.34.5.61.71.27.2.6.36.99.48s.84.18 1.33.18c.47 0 .9-.05 1.3-.14.39-.1.72-.21 1-.34v-1.7h-.17c-.07.05-.19.13-.34.22-.16.09-.31.17-.46.24-.17.08-.37.14-.59.2-.22.05-.44.07-.67.07-.3 0-.56-.05-.77-.16-.21-.1-.31-.24-.31-.41 0-.15.05-.27.158-.36.1-.09.33-.17.67-.25.18-.05.39-.09.62-.13.233-.04.46-.1.672-.17.48-.16.85-.39 1.1-.69.25-.3.37-.7.37-1.2 0-.31-.07-.61-.22-.9-.15-.28-.36-.52-.63-.72-.29-.21-.63-.38-1.02-.49-.39-.12-.85-.17-1.39-.17m6.35.18h-2.12v6.73h2.1V15zm.06 7.68h-2.21v1.64h2.22v-1.6zm5.56-5.56v3.05c-.1.04-.23.08-.38.12-.15.03-.31.04-.46.04-.5 0-.88-.16-1.13-.49-.25-.32-.38-.78-.38-1.36 0-.29.02-.53.06-.74.04-.2.11-.38.21-.53.1-.15.23-.27.39-.35.16-.08.37-.12.62-.12.19 0 .37.03.55.1.19.06.36.15.52.27m2.1-1.35c0-.62-.09-1.15-.27-1.58-.18-.44-.424-.78-.735-1.02-.31-.25-.68-.43-1.12-.54-.43-.11-.915-.17-1.446-.17-.45 0-.87.03-1.27.09-.4.05-.75.12-1.04.2v1.68h.24c.1-.04.22-.09.37-.13.14-.05.28-.09.42-.13.17-.04.34-.08.5-.11.16-.03.33-.04.5-.04.35 0 .65.04.89.11.23.07.41.18.53.31.12.14.2.3.25.49.05.19.07.43.07.71v.12c-.24-.21-.51-.38-.82-.5-.31-.13-.63-.19-.95-.19-.87 0-1.54.28-2.01.85-.47.56-.71 1.42-.71 2.58 0 .53.07 1 .22 1.42.144.42.35.78.605 1.07.25.29.55.5.9.66.35.15.714.23 1.094.23.34 0 .65-.04.92-.13s.52-.21.74-.35l.08.3h2.03v-5.9zm7.9-.76h-2.1v3.34c0 .27-.01.54-.03.81-.02.27-.06.47-.12.59-.07.15-.18.26-.31.32-.14.06-.32.1-.55.1-.17 0-.34-.04-.52-.1-.17-.06-.36-.16-.56-.3V15h-2.1v6.724h2.1V21c.34.29.67.52 1 .68.32.164.68.245 1.08.245.68 0 1.21-.213 1.57-.65.36-.43.55-1.06.55-1.88v-4.38z"
       fill="#ffffff"
       id="path1220" />
  </g>
  <g
     clip-path="url(#d)"
     transform="matrix(1.25 0 0 -1.25 0 62.5)"
     id="g1238">
    <path
       d="M20.166 14.066h-.193V12.65h.244c.325 0 .55.026.67.082.12.056.216.14.283.253.067.112.1.24.1.384 0 .14-.036.26-.11.38-.077.11-.182.19-.318.24-.136.05-.362.07-.676.07m-.835-3.94v4.48h1.13c.46 0 .82-.11 1.08-.34.27-.23.4-.53.4-.92 0-.26-.06-.49-.19-.68-.13-.19-.31-.34-.56-.43.14-.1.28-.22.42-.39.14-.16.33-.45.58-.85.16-.26.28-.45.38-.58l.24-.32h-.76l-.2.29c0 .01-.02.03-.04.05l-.12.17-.2.33-.21.35c-.13.18-.25.33-.36.44-.11.11-.21.19-.3.23-.09.04-.24.07-.45.07H20V10.1h-.64zm3.96 4.49h.65v-4.49h-.64v4.48zm5.51-3.45v-.71c-.47-.26-1.01-.39-1.63-.39-.5 0-.92.1-1.27.3-.35.2-.62.47-.83.83-.2.35-.3.73-.3 1.14 0 .65.24 1.2.7 1.65.47.44 1.04.67 1.72.67.47 0 1-.13 1.57-.37v-.69c-.52.3-1.03.45-1.54.45s-.94-.17-1.28-.49c-.34-.33-.51-.73-.51-1.22s.17-.9.51-1.22c.34-.32.76-.48 1.28-.48.55 0 1.08.17 1.6.5m3.33.86l-.72 1.62-.67-1.62h1.4zm-.94 2.61h.46l2.01-4.52H33l-.598 1.33h-1.92l-.56-1.33h-.66l1.926 4.51zm6.53-.03h.61V10.1h-.55l-3 3.456v-3.45h-.6v4.49h.52l3.03-3.49v3.49zm8.3 0h.64l-1.82-4.51h-.14l-1.46 3.65-1.48-3.65h-.14l-1.81 4.5h.65l1.24-3.09 1.25 3.09h.6l1.25-3.1 1.23 3.1zm3.11-.55c-.51 0-.93-.16-1.26-.49-.33-.32-.5-.73-.5-1.23 0-.48.17-.89.5-1.21.33-.32.75-.48 1.25-.48s.92.16 1.26.49c.34.33.51.74.51 1.23 0 .47-.17.87-.5 1.2-.33.32-.74.48-1.23.48m-.03.61c.69 0 1.27-.22 1.73-.66.46-.44.69-.99.69-1.65 0-.66-.23-1.21-.7-1.64-.46-.44-1.05-.65-1.76-.65-.68 0-1.24.21-1.69.65-.45.43-.67.97-.67 1.63 0 .67.23 1.22.68 1.66.46.44 1.03.66 1.72.66m5.44-.61c-.51 0-.94-.16-1.27-.48-.33-.32-.49-.73-.49-1.23 0-.48.17-.89.5-1.21.33-.32.75-.48 1.25-.48s.92.17 1.26.49c.33.33.5.74.5 1.23 0 .47-.16.87-.5 1.2-.33.32-.75.48-1.23.48m-.03.61c.7 0 1.27-.22 1.74-.66.46-.44.7-.99.7-1.65 0-.66-.23-1.21-.7-1.65-.46-.44-1.05-.65-1.76-.65-.68 0-1.24.21-1.69.65-.45.43-.68.98-.68 1.63 0 .67.23 1.22.68 1.66.45.44 1.03.66 1.72.66M59.2 14h-.808v-3.3h.825c.32 0 .57.022.74.066.18.04.33.097.45.165.12.07.23.15.325.25.317.32.476.73.476 1.22s-.16.88-.49 1.18c-.12.12-.25.21-.41.28-.15.08-.3.12-.44.15s-.36.04-.67.04m-1.446-3.91v4.48h1.513c.61 0 1.1-.09 1.45-.27.36-.18.64-.45.85-.81.21-.35.312-.74.312-1.16 0-.3-.06-.58-.173-.86-.12-.27-.28-.51-.5-.72-.21-.21-.47-.37-.76-.48-.17-.06-.32-.11-.46-.13-.14-.02-.41-.03-.81-.03h-1.42zm10.62 1.04v-.7c-.47-.25-1.02-.38-1.635-.38-.5 0-.93.1-1.277.3-.35.2-.626.48-.83.84-.205.35-.307.73-.307 1.15 0 .66.23 1.21.7 1.65.464.45 1.04.67 1.72.67.47 0 .99-.12 1.57-.37v-.69c-.53.3-1.04.45-1.54.45-.52 0-.94-.16-1.28-.49-.34-.32-.51-.73-.51-1.22s.17-.9.5-1.21c.33-.32.76-.47 1.28-.47.54 0 1.07.17 1.59.5m3.02 2.91c-.514 0-.94-.16-1.27-.48-.33-.32-.5-.73-.5-1.23 0-.48.17-.88.5-1.21.335-.32.75-.48 1.25-.48s.92.17 1.257.49c.34.33.51.74.51 1.23 0 .47-.17.87-.5 1.2-.34.32-.75.49-1.24.49m-.03.61c.69 0 1.27-.22 1.73-.66.46-.44.696-.99.696-1.65 0-.66-.23-1.21-.7-1.64-.464-.43-1.05-.65-1.76-.65-.677 0-1.24.22-1.69.65-.455.43-.68.98-.68 1.63 0 .67.226 1.23.68 1.66.454.44 1.03.66 1.722.66m6.333-.06h.65V12.1c0-.347-.02-.606-.07-.78-.05-.18-.11-.324-.19-.44-.08-.12-.17-.22-.28-.314-.36-.304-.82-.46-1.4-.46s-1.05.155-1.4.46c-.11.094-.2.2-.27.316-.07.11-.13.26-.18.43-.05.162-.07.43-.07.79v2.54h.65v-2.55c0-.42.05-.713.15-.88.1-.163.25-.3.44-.395.2-.1.43-.15.7-.15.38 0 .69.1.93.3.13.11.22.234.27.38.06.146.08.395.08.75v2.54zm5.1 0h.61v-4.49h-.55l-3 3.46v-3.46h-.6v4.49h.52l3.03-3.48v3.49zm5.44-3.45v-.71c-.47-.25-1.02-.38-1.63-.38-.5 0-.92.1-1.27.3-.35.2-.63.48-.83.83-.2.35-.3.73-.3 1.14 0 .65.24 1.2.7 1.65.47.44 1.04.66 1.73.66.47 0 .99-.12 1.57-.37v-.69c-.53.3-1.04.45-1.54.45-.51 0-.94-.16-1.28-.48-.34-.32-.51-.73-.51-1.22s.17-.9.5-1.21c.33-.32.76-.47 1.28-.47.55 0 1.08.17 1.59.5m.81 3.44h.64v-4.49H89v4.49zm1.64 0h.64v-3.9h2.02v-.58h-2.66v4.49z"
       fill="#036b38"
       id="path1224" />
    <path
       d="M47.155 27.85l2.187-.94-.22-8.5-1.967.844v8.597z"
       fill="#036b38"
       fill-rule="evenodd"
       id="path1226" />
    <path
       d="M51.233 27.902l-2.11-.9-.03-8.672 2.14.994v8.578zm7.554 3.59l-2.092-.916v-8.704l2.092.912v8.708z"
       fill="#036b38"
       fill-rule="evenodd"
       id="path1228" />
    <path
       d="M58.787 22.844l-.046 2.892-9.64-4.493-9.6 4.477-.04-2.89 9.64-4.5v.07-.07l9.7 4.514z"
       fill="#036b38"
       fill-rule="evenodd"
       id="path1230" />
    <path
       d="M39.457 31.414l2.234-.962v-8.48l-2.23.96v8.482z"
       fill="#036b38"
       fill-rule="evenodd"
       id="path1232" />
    <path
       d="M43.786 32.54l.067.06 3.33 3.135v-4.657l-2.173.94-.663-2.245 4.632-2.025-.01 12.18-9.3-8.116 2.18-.953 1.92 1.68zm13.04.983L54.6 32.56l-3.393-1.464v4.658l2.17-2.04 1.148 1.786-5.144 4.423V27.747l9.32 4.163-1.87 1.612z"
       fill="#43b54c"
       fill-rule="evenodd"
       id="path1234" />
    <path
       d="M8.872 12.026l-.725 1.625-.67-1.62H8.87zm-.944 2.61h.45l2.014-4.512h-.658l-.598 1.33H7.22l-.56-1.33H6l1.928 4.513zm6.525-.024h.6v-4.488h-.645v3.492l-1.38-1.734h-.12l-1.395 1.734v-3.492h-.643v4.488h.61l1.49-1.843 1.483 1.84zm1.567 0h2.545v-.57h-1.902v-1.37H18.5v-.576h-1.837v-1.394h1.962v-.57H16.02v4.48z"
       fill="#036b38"
       id="path1236" />
  </g>
  <path
     d="M260.606 32.392c-1.65 0-3-1.35-3-3v-8.784c0-1.65 1.35-3 3-3h48.98c1.65 0 3 1.35 3 3v8.783c0 1.66-1.35 3.01-3 3.01h-48.98z"
     fill="#009245"
     transform="matrix(1.25 0 0 -1.25 0 62.5)"
     id="path1240" />
  <path
     style="fill:none;stroke:#8cc63f;stroke-width:0.625;stroke-miterlimit:10"
     inkscape:connector-curvature="0"
     d="m 386.984,40.49 h -61.227 c -2.063,0 -3.75,-1.69 -3.75,-3.75 V 25.76 c 0,-2.062 1.687,-3.75 3.75,-3.75 h 61.227 c 2.06,0 3.75,1.688 3.75,3.75 v 10.98 c 0,2.06 -1.69,3.75 -3.75,3.75 z"
     stroke-miterlimit="10"
     id="path1242" />
  <path
     id="path5115"
     d="m 334.4905,34.403125 h -4.2475 v -6.365 h 1.6 v 5.15 h 2.6475 z m 3.63125,-3.0175 c -0.01,-0.31625 -0.0837,-0.55625 -0.22125,-0.7225 -0.1375,-0.165 -0.35,-0.2475 -0.635,-0.2475 -0.29125,0 -0.51875,0.0875 -0.68125,0.2625 -0.1625,0.1725 -0.255,0.40875 -0.27125,0.7075 h 1.8075 z m -0.49625,3.14625 c -0.9075,0 -1.6025,-0.225 -2.08375,-0.65 -0.48375,-0.4375 -0.725,-1.05 -0.725,-1.8625 0,-0.7875 0.225,-1.4125 0.675,-1.875 0.45,-0.475 1.08,-0.7 1.8875,-0.7 0.7375,0 1.2875,0.1875 1.66,0.5875 0.37,0.3875 0.55625,0.9625 0.55625,1.7 v 0.5375 h -3.2875 c 0.0125,0.225 0.0625,0.4125 0.1375,0.5625 0.075,0.15 0.175,0.2625 0.3125,0.35 0.125,0.0875 0.275,0.15 0.45,0.1875 0.1625,0.0375 0.35,0.05 0.55,0.05 0.175,0 0.3375,-0.025 0.5125,-0.0625 0.1625,-0.0375 0.325,-0.0875 0.4625,-0.1625 0.125,-0.05 0.2375,-0.1125 0.3375,-0.175 0.1,-0.0625 0.1875,-0.1125 0.25,-0.1625 h 0.14999 v 1.2375 l -0.33749,0.1375 c -0.10001,0.0375 -0.23751,0.075 -0.42501,0.125 -0.1625,0.0375 -0.33749,0.075 -0.5,0.1 -0.175,0.025 -0.38749,0.0375 -0.63749,0.0375 m 5.38749,-1.3875 v -1 c -0.26249,0.025 -0.46249,0.05 -0.6125,0.0625 -0.1625,0.0125 -0.3125,0.05 -0.46249,0.1 -0.1375,0.05 -0.23751,0.1125 -0.3125,0.2125 -0.075,0.0875 -0.11251,0.2125 -0.11251,0.3625 0,0.225 0.05,0.375 0.17501,0.4625 0.1125,0.075 0.3,0.125 0.5375,0.125 0.125,0 0.2625,-0.0375 0.4,-0.0875 0.13749,-0.0625 0.26249,-0.15 0.3625,-0.2625 m 0,0.7375 -0.275,0.225 c -0.0875,0.0625 -0.1875,0.1375 -0.325,0.2 -0.1375,0.0625 -0.2625,0.1125 -0.4,0.15 -0.125,0.0375 -0.3,0.05 -0.525,0.05 -0.425,0 -0.7875,-0.15 -1.0625,-0.425 -0.2875,-0.2875 -0.425,-0.65 -0.425,-1.0875 0,-0.3625 0.0625,-0.65 0.2125,-0.8625 0.1375,-0.225 0.35,-0.4 0.6125,-0.525 0.2625,-0.1375 0.5875,-0.225 0.9625,-0.275 0.375,-0.05 0.775,-0.0875 1.2125,-0.125 v -0.025 c 0,-0.275 -0.1,-0.45 -0.3,-0.55 -0.2,-0.1 -0.4875,-0.15 -0.875,-0.15 -0.175,0 -0.3875,0.025 -0.625,0.0875 -0.2375,0.0625 -0.4625,0.1375 -0.6875,0.2375 h -0.125 v -1.1625 c 0.14999,-0.05 0.3875,-0.1 0.71249,-0.15 0.3375,-0.0625 0.66251,-0.0875 1,-0.0875 0.825,0 1.4375,0.1375 1.8125,0.4125 0.375,0.275 0.5625,0.6875 0.5625,1.25 v 3.28875 h -1.4875 v -0.5 z m 5.8125,-2.875 h -0.125 c -0.0625,-0.025 -0.1375,-0.0375 -0.25,-0.05 -0.1125,-0.0125 -0.22501,-0.0125 -0.3625,-0.0125 -0.16251,0 -0.325,0.0125 -0.5,0.0625 -0.17501,0.05 -0.3375,0.1 -0.5,0.1625 v 3.2125 h -1.48751 v -4.8 h 1.5 v 0.6875 c 0.075,-0.0625 0.16251,-0.1375 0.28751,-0.2375 0.125,-0.1 0.2375,-0.175 0.33749,-0.225 0.10001,-0.0625 0.23751,-0.125 0.375,-0.175 0.1375,-0.05 0.275,-0.075 0.4,-0.075 h 0.1625 c 0,0 0.11251,0.0125 0.16251,0.0125 v 1.425 z m 5.0625,3.375 h -1.5 v -2.3875 c 0,-0.1875 -0.0125,-0.3875 -0.025,-0.575 -0.0125,-0.2 -0.05,-0.3375 -0.0875,-0.425 -0.05,-0.1125 -0.125,-0.1875 -0.225,-0.2375 -0.1,-0.05 -0.225,-0.075 -0.3875,-0.075 -0.125,0 -0.25,0.0125 -0.375,0.0625 -0.125,0.0375 -0.2625,0.1125 -0.4,0.2125 v 3.4125 h -1.5 v -4.8 h 1.5 v 0.53875 c 0.2375,-0.2125 0.475,-0.375 0.7125,-0.4875 0.225,-0.125 0.4875,-0.175 0.775,-0.175 0.4875,0 0.8625,0.15 1.125,0.4625 0.25,0.3 0.3875,0.75 0.3875,1.3375 v 3.125 z m 10.25,0 h -1.58625 v -4.2125 l -1.16251,2.725 h -1.08749 l -1.16251,-2.725 v 4.225 h -1.5 v -6.375 h 1.84375 l 1.41251,3.15 1.40249,-3.1375 h 1.8375 v 6.3625 z m 4.3,-2.3875 c 0,-0.2875 -0.025,-0.525 -0.075,-0.7125 -0.05,-0.1875 -0.1125,-0.35 -0.2,-0.4625 -0.0875,-0.125 -0.1875,-0.2 -0.3,-0.25 -0.1125,-0.05 -0.2375,-0.075 -0.3875,-0.075 -0.1375,0 -0.25,0.025 -0.3625,0.0625 -0.1125,0.0375 -0.2125,0.125 -0.3,0.2375 -0.0875,0.1125 -0.15,0.2625 -0.2,0.45 -0.05,0.2 -0.075,0.4375 -0.075,0.7375 0,0.3 0.025,0.5375 0.075,0.7125 0.05,0.1875 0.1125,0.325 0.1875,0.4375 0.075,0.1125 0.175,0.2 0.3,0.25 0.1125,0.05 0.25,0.075 0.4,0.075 0.1125,0 0.2375,-0.025 0.3625,-0.075 0.125,-0.05 0.225,-0.1375 0.3,-0.2375 0.0875,-0.1125 0.15,-0.2625 0.2,-0.4375 0.0375,-0.1625 0.0625,-0.4125 0.0625,-0.7125 m 1.525,-0.0125 c 0,0.7875 -0.22501,1.4125 -0.65,1.8625 -0.4375,0.45 -1.0375,0.675 -1.8375,0.675 -0.7875,0 -1.3875,-0.225 -1.825,-0.675 -0.4375,-0.4625 -0.65,-1.075 -0.65,-1.8625 0,-0.8 0.2125,-1.425 0.65,-1.875 0.4375,-0.45 1.0375,-0.675 1.825,-0.675 0.7875,0 1.4,0.225 1.825,0.675 0.4375,0.45 0.65,1.075 0.65,1.8625 m 4.0125,-0.9875 h -0.125 c -0.05,-0.025 -0.1375,-0.0375 -0.2375,-0.05 -0.11251,-0.0125 -0.22501,-0.0125 -0.36251,-0.0125 -0.1625,0 -0.32499,0.025 -0.5,0.0625 -0.175,0.0375 -0.33749,0.1 -0.5,0.1625 v 3.21375 h -1.5 v -4.8 h 1.5 v 0.6875 c 0.075,-0.0625 0.16251,-0.1375 0.28751,-0.2375 0.1125,-0.0875 0.225,-0.1625 0.325,-0.225 0.1125,-0.0625 0.2375,-0.125 0.375,-0.165 0.13749,-0.05 0.27499,-0.075 0.39999,-0.075 0.05,0 0.10001,0.0125 0.16251,0.0125 0.0625,0 0.1125,0.0125 0.1625,0.0125 v 1.415 z m 3.5375,0.3625 c -0.0125,-0.3125 -0.0875,-0.5625 -0.225,-0.725 -0.1375,-0.1625 -0.35001,-0.25 -0.6375,-0.25 -0.2875,0 -0.525,0.0875 -0.6875,0.2625 -0.1625,0.175 -0.25,0.4125 -0.275,0.7125 h 1.875 z m -0.5,3.15 c -0.9125,0 -1.6125,-0.225 -2.0875,-0.65 -0.4875,-0.4375 -0.725,-1.05 -0.725,-1.85 0,-0.7875 0.225,-1.4125 0.675,-1.875 0.45,-0.475 1.075,-0.7 1.8875,-0.7 0.7375,0 1.2875,0.1875 1.65,0.5875 0.375,0.4 0.5625,0.9625 0.5625,1.7 v 0.5375 h -3.275 c 0.0125,0.225 0.0625,0.4125 0.1375,0.5625 0.075,0.15 0.1875,0.2625 0.3125,0.35 0.125,0.0875 0.275,0.15 0.45,0.1875 0.175,0.0375 0.3625,0.0625 0.5625,0.0625 0.175,0 0.33749,-0.025 0.5125,-0.0625 0.1625,-0.0375 0.32499,-0.0875 0.46249,-0.15 0.125,-0.05 0.2375,-0.1125 0.3375,-0.175 0.1,-0.0625 0.1875,-0.1125 0.25,-0.1625 h 0.15 v 1.2375 l -0.3375,0.125 c -0.1,0.0375 -0.2375,0.0875 -0.4125,0.125 -0.1625,0.0375 -0.3375,0.075 -0.5,0.1 -0.175,0.025 -0.3875,0.0375 -0.625,0.0375 m 7.9,-2.675 -2.32375,1.97625 v -1.2625 l 1.2,-0.9125 -1.2,-0.92 v -1.2625 l 2.425,1.9125 v 0.55 z"
     inkscape:connector-curvature="0"
     style="fill:#ffffff" />
</svg>
