<svg xmlns="http://www.w3.org/2000/svg" width="960" height="112.5" viewBox="0 0 960 112.5"><defs><clipPath id="a"><path d="M0 0h768v90H0V0z"/></clipPath><clipPath id="b"><path d="M0 90h768V0H0v90z"/></clipPath><clipPath id="c"><path d="M0 90h768V0H0v90z"/></clipPath><clipPath id="d"><path d="M252.466 71.937h328.008V10.802H252.466v61.135z"/></clipPath><clipPath id="e"><path d="M614.667 64c-4.4 0-8-3.6-8-8V34c0-4.4 3.6-8 8-8H740c4.4 0 8 3.6 8 8v22c0 4.4-3.6 8-8 8H614.667z"/></clipPath><linearGradient x2="1" gradientUnits="userSpaceOnUse" gradientTransform="rotate(-135 378.5 -105.74) scale(120.16)" id="f"><stop offset="0" stop-color="#39b54a"/><stop offset="1" stop-color="#009245"/></linearGradient><clipPath id="g"><path d="M0 90h768V0H0v90z"/></clipPath></defs><path d="M0 112.5h960V0H0v112.5z" fill="#0e5372"/><g clip-path="url(#a)" transform="matrix(1.25 0 0 -1.25 0 112.5)"><path d="M239.333 5c0-85.788-69.545-155.333-155.333-155.333C-1.79-150.333-71.334-80.788-71.334 5S-1.79 160.333 84 160.333 239.334 90.788 239.334 5" fill="#43b54c"/><path d="M229.333-5c0-85.788-69.545-155.333-155.333-155.333C-11.79-160.333-81.334-90.788-81.334-5S-11.79 150.333 74 150.333 229.334 80.788 229.334-5" fill="#ffffff"/></g><g clip-path="url(#b)" transform="matrix(1.25 0 0 -1.25 0 112.5)"><path d="M49.537 24.2h-.402v-2.953h.51c.678 0 1.143.058 1.396.174.26.12.45.3.59.53.14.24.22.5.22.8 0 .3-.08.56-.23.8-.15.24-.37.41-.66.51-.28.1-.75.15-1.41.15m-1.74-8.22v9.36h2.35c.95 0 1.7-.23 2.26-.7.56-.47.84-1.1.84-1.9 0-.54-.13-1.01-.41-1.41-.27-.39-.66-.69-1.17-.89.3-.19.59-.46.88-.8.29-.34.69-.93 1.21-1.77.33-.53.59-.93.79-1.2l.5-.67h-1.6l-.4.62-.08.12-.26.37-.42.69-.45.73c-.27.39-.53.69-.76.92-.23.22-.43.39-.62.49-.18.1-.49.15-.93.15h-.35V16H47.8zm8.26 9.36h1.34v-9.36h-1.34v9.36zm11.48-7.19v-1.48c-.98-.53-2.11-.8-3.4-.8-1.04 0-1.93.21-2.66.63-.73.42-1.3 1-1.73 1.74-.42.74-.63 1.54-.63 2.39 0 1.37.49 2.51 1.46 3.44.97.93 2.17 1.4 3.6 1.4.99 0 2.08-.25 3.28-.77v-1.44c-1.09.63-2.16.94-3.21.94-1.07 0-1.96-.34-2.67-1.01-.71-.67-1.06-1.52-1.06-2.54s.35-1.87 1.05-2.53c.7-.66 1.59-.99 2.68-.99 1.14 0 2.24.35 3.33 1.05m6.95 1.8L73 23.37l-1.4-3.39h2.91zm-2 5.42h.95L77.68 16H76.3l-1.246 2.78h-4L69.88 16H68.5l4.02 9.42zm13.6-.05h1.27V16h-1.16l-6.26 7.202v-7.21h-1.26v9.358h1.09l6.31-7.27v7.27zm17.3 0h1.34l-3.78-9.4h-.29l-3.06 7.61-3.09-7.61h-.29l-3.77 9.4h1.35l2.58-6.45 2.6 6.45h1.27l2.61-6.45 2.55 6.45zm6.48-1.14c-1.07 0-1.95-.33-2.64-1-.69-.67-1.03-1.52-1.03-2.56 0-1.01.35-1.84 1.04-2.51.69-.67 1.56-1.01 2.6-1.01 1.05 0 1.92.34 2.62 1.02.7.68 1.05 1.53 1.05 2.55 0 .99-.35 1.82-1.05 2.5-.7.67-1.56 1.01-2.57 1.01m-.05 1.27c1.45 0 2.65-.46 3.62-1.38.96-.91 1.45-2.06 1.45-3.44s-.48-2.52-1.46-3.43c-.97-.91-2.19-1.36-3.67-1.36-1.41 0-2.58.45-3.52 1.36-.94.91-1.41 2.04-1.41 3.4 0 1.4.47 2.56 1.42 3.47.94.92 2.14 1.38 3.59 1.38m11.35-1.28c-1.07 0-1.95-.33-2.64-1-.69-.67-1.03-1.52-1.03-2.56 0-1.01.35-1.84 1.04-2.51.69-.67 1.56-1.01 2.6-1.01s1.91.34 2.61 1.03 1.05 1.54 1.05 2.56c0 1-.35 1.83-1.05 2.51-.7.68-1.55 1.02-2.57 1.02m-.05 1.28c1.45 0 2.66-.46 3.62-1.37.97-.91 1.45-2.06 1.45-3.44s-.48-2.52-1.46-3.43c-.97-.9-2.19-1.35-3.67-1.35-1.41 0-2.59.45-3.53 1.36-.94.91-1.41 2.04-1.41 3.4 0 1.4.47 2.56 1.42 3.47.95.92 2.14 1.38 3.59 1.38m9.73-1.33h-1.68v-7H131c.67 0 1.19.05 1.56.14.37.09.68.21.93.35s.48.318.68.52c.663.67.994 1.52.994 2.54 0 1.01-.34 1.83-1.02 2.46-.25.24-.534.43-.86.587-.32.15-.63.25-.92.3-.29.05-.76.07-1.4.07M127.84 16v9.343h3.154c1.273 0 2.28-.19 3.022-.573.74-.383 1.33-.945 1.768-1.685.437-.742.656-1.55.656-2.426 0-.63-.12-1.23-.36-1.8-.243-.57-.586-1.08-1.034-1.51-.454-.45-.985-.79-1.587-1.02-.36-.14-.68-.23-.97-.28-.3-.05-.86-.07-1.69-.07h-2.96zm22.15 2.155V16.68c-.98-.536-2.116-.803-3.4-.803-1.047 0-1.934.21-2.66.63-.73.418-1.306.997-1.73 1.734-.424.74-.636 1.54-.636 2.39 0 1.37.485 2.51 1.457 3.44.98.93 2.17 1.4 3.6 1.4.98 0 2.07-.25 3.28-.77v-1.44c-1.09.63-2.16.94-3.21.94-1.07 0-1.96-.34-2.67-1.01-.7-.67-1.06-1.52-1.06-2.54s.35-1.87 1.05-2.53c.7-.66 1.59-.99 2.68-.99 1.14 0 2.24.35 3.32 1.05m6.3 6.05c-1.07 0-1.95-.33-2.64-1-.69-.67-1.04-1.52-1.04-2.56 0-1.01.35-1.85 1.04-2.52.69-.67 1.56-1 2.6-1 1.05 0 1.92.34 2.62 1.03.7.69 1.05 1.54 1.05 2.55 0 1-.35 1.83-1.05 2.51-.7.68-1.55 1.02-2.57 1.02m-.05 1.28c1.45 0 2.65-.46 3.62-1.38.96-.91 1.45-2.06 1.45-3.44s-.48-2.52-1.45-3.43c-.97-.9-2.19-1.35-3.67-1.35-1.41 0-2.58.45-3.52 1.36-.94.91-1.41 2.04-1.41 3.4 0 1.4.47 2.55 1.42 3.47.95.92 2.15 1.37 3.59 1.37m13.21-.13h1.35v-5.32c0-.72-.05-1.26-.16-1.62-.1-.36-.23-.67-.39-.91-.15-.24-.34-.46-.56-.65-.74-.64-1.71-.95-2.9-.95-1.22 0-2.2.31-2.93.95-.23.19-.42.41-.57.66-.16.24-.28.54-.39.89-.1.35-.15.9-.15 1.66v5.3h1.34V20.1c0-.88.1-1.5.3-1.84.21-.35.51-.62.92-.83.41-.21.9-.31 1.46-.31.8 0 1.44.21 1.94.62.27.22.46.48.57.79.12.3.18.82.18 1.56v5.31zm10.64 0h1.28V16h-1.15L174 23.208v-7.21h-1.26v9.36h1.08l6.31-7.27v7.27zm11.35-7.18v-1.5c-.99-.54-2.12-.8-3.41-.8-1.04 0-1.93.21-2.66.63-.73.42-1.3 1-1.73 1.74-.42.74-.63 1.54-.63 2.39 0 1.37.49 2.51 1.46 3.44.97.93 2.17 1.39 3.6 1.39.98 0 2.07-.26 3.28-.77V23.3c-1.09.63-2.16.94-3.21.94-1.07 0-1.96-.34-2.67-1.02-.7-.68-1.06-1.53-1.06-2.55 0-1.03.35-1.87 1.05-2.53.7-.66 1.59-.99 2.67-.99 1.14 0 2.24.344 3.33 1.04m1.66 7.19h1.34V16h-1.34v9.356zm3.41 0h1.34V17.2h4.22v-1.218h-5.55v9.358z" fill="#036b38"/><path d="M105.814 52.944l4.56-1.96-.458-17.728-4.102 1.763v17.92z" fill="#036b38" fill-rule="evenodd"/><path d="M114.318 53.05l-4.402-1.875-.062-18.083 4.464 2.073V53.05zm15.75 7.486l-4.362-1.908v-18.15l4.362 1.9v18.158z" fill="#036b38" fill-rule="evenodd"/><path d="M130.068 42.504l-.096 6.03-20.116-9.368-20.002 9.337-.1-6.03 20.1-9.38.002.142.003-.143 20.2 9.412z" fill="#036b38" fill-rule="evenodd"/><path d="M89.762 60.373l4.66-2.007V40.684l-4.66 2.002v17.687z" fill="#036b38" fill-rule="evenodd"/><path d="M98.79 62.718l.14.125 6.943 6.54v-9.71l-4.53 1.957-1.384-4.678 9.65-4.222-.01 25.395-19.37-16.922 4.54-1.988 4 3.503zm27.188 2.052l-4.64-2.005.002-.002-7.076-3.05v9.712l4.522-4.257 2.396 3.726-10.726 9.224v-25.39l19.43 8.682-3.908 3.36z" fill="#43b54c" fill-rule="evenodd"/><path d="M25.988 19.947l-1.51 3.39-1.4-3.39h2.91zm-1.97 5.446h.943l4.2-9.412h-1.37l-1.25 2.78h-3.99l-1.17-2.77H20l4.02 9.42zm13.608-.053h1.252v-9.358h-1.346v7.282l-2.877-3.617h-.248l-2.91 3.617v-7.282h-1.34v9.358h1.268l3.11-3.843 3.09 3.843zm3.27 0H46.2v-1.19h-3.966v-2.856h3.832v-1.2h-3.832V17.19h4.093v-1.193h-5.432v9.345z" fill="#036b38"/></g><g clip-path="url(#c)" transform="matrix(1.25 0 0 -1.25 0 112.5)"><g clip-path="url(#d)" opacity="0.75"><path d="M263.144 48.573c-3.27 0-5.87.99-7.793 2.966-1.92 1.97-2.88 4.75-2.88 8.34 0 3.45.97 6.21 2.9 8.27 1.93 2.05 4.53 3.08 7.8 3.08.87 0 1.65-.05 2.35-.15.7-.1 1.36-.24 2-.41.5-.15 1.04-.35 1.63-.6.59-.26 1.06-.48 1.42-.66v-5.2H270c-.264.23-.596.51-.996.84-.4.32-.854.64-1.36.96-.51.31-1.068.57-1.68.79-.61.22-1.245.33-1.91.33-.79 0-1.52-.13-2.176-.38-.66-.25-1.288-.68-1.884-1.3-.548-.56-.995-1.31-1.34-2.26-.347-.95-.52-2.07-.52-3.36 0-1.36.18-2.5.542-3.42.36-.92.835-1.67 1.42-2.24.567-.55 1.2-.94 1.897-1.19.7-.25 1.393-.37 2.09-.37.72 0 1.41.12 2.06.36.66.23 1.21.5 1.66.79.488.3.918.61 1.29.92.37.31.692.59.965.83h.5V50.4c-.4-.186-.865-.4-1.39-.637-.53-.24-1.07-.44-1.628-.606-.687-.2-1.326-.36-1.92-.47-.598-.102-1.418-.16-2.46-.16m20.86 8.616c0 .975-.08 1.79-.246 2.44-.16.65-.382 1.17-.665 1.56-.31.41-.65.693-1.03.854-.38.16-.82.243-1.3.243-.46 0-.87-.07-1.25-.215-.37-.14-.71-.41-1.03-.81-.3-.38-.53-.904-.71-1.57-.18-.66-.27-1.5-.27-2.504s.08-1.82.24-2.44c.16-.62.38-1.12.64-1.49.27-.38.61-.66 1.02-.83.41-.17.86-.26 1.36-.26.41 0 .82.09 1.25.26.42.18.76.44 1.02.79.3.42.53.93.69 1.52.15.59.23 1.41.23 2.45m5.26.03c0-2.71-.74-4.84-2.22-6.39-1.48-1.55-3.57-2.33-6.28-2.33-2.69 0-4.77.78-6.26 2.33-1.49 1.56-2.24 3.69-2.24 6.4 0 2.74.74 4.88 2.23 6.43 1.49 1.55 3.57 2.32 6.26 2.32s4.78-.78 6.27-2.34c1.48-1.55 2.22-3.69 2.22-6.41m12.55-3.67v8.07c-.25.13-.59.23-1 .32-.41.08-.76.12-1.06.12-1.23 0-2.16-.43-2.78-1.29-.62-.86-.93-2.06-.93-3.6 0-1.62.24-2.79.74-3.52.49-.72 1.29-1.08 2.39-1.08.45 0 .9.09 1.36.26.46.18.88.42 1.26.72m5.12-4.54h-5.13v1.71c-.33-.27-.71-.56-1.14-.88-.43-.31-.8-.54-1.12-.7-.41-.19-.82-.34-1.22-.44-.4-.09-.88-.14-1.44-.14-1.88 0-3.36.78-4.46 2.33-1.09 1.55-1.64 3.63-1.64 6.23 0 1.44.18 2.68.56 3.74.37 1.06.88 1.98 1.54 2.76.59.71 1.31 1.28 2.16 1.69.85.42 1.74.63 2.69.63.86 0 1.56-.09 2.12-.27.55-.18 1.19-.46 1.93-.84v7h5.13V49zM321 59.33c-.03 1.08-.28 1.906-.754 2.473-.476.568-1.2.85-2.178.85-.994 0-1.773-.3-2.334-.892-.563-.59-.873-1.4-.93-2.43H321zm-1.7-10.783c-3.107 0-5.487.743-7.14 2.227-1.658 1.485-2.485 3.6-2.485 6.343 0 2.686.77 4.83 2.314 6.43 1.54 1.602 3.7 2.403 6.47 2.403 2.52 0 4.41-.68 5.68-2.038 1.27-1.357 1.9-3.3 1.9-5.83v-1.84H314.8c.048-.762.21-1.4.483-1.91.272-.514.634-.922 1.083-1.225.44-.302.952-.52 1.54-.65.585-.133 1.224-.2 1.92-.2.593 0 1.18.067 1.756.2.576.13 1.103.304 1.582.52.42.184.806.384 1.162.6.357.214.647.404.872.57h.54V49.92c-.42-.166-.803-.32-1.15-.46-.347-.143-.823-.287-1.428-.434-.557-.146-1.13-.26-1.72-.344-.59-.083-1.31-.124-2.16-.124m27.875.015c-3.27 0-5.87.99-7.793 2.966-1.925 1.97-2.887 4.75-2.887 8.34 0 3.45.96 6.21 2.89 8.27 1.93 2.05 4.53 3.08 7.8 3.08.87 0 1.65-.05 2.34-.15.695-.1 1.36-.24 1.994-.41.5-.15 1.04-.35 1.62-.6.58-.26 1.06-.48 1.42-.66v-5.2H354c-.264.23-.596.51-.996.84-.4.32-.856.64-1.364.96-.507.31-1.066.57-1.677.79-.61.22-1.248.33-1.91.33-.793 0-1.52-.13-2.178-.38-.66-.25-1.288-.68-1.884-1.3-.54-.56-.99-1.31-1.34-2.26-.34-.95-.52-2.07-.52-3.36 0-1.36.18-2.5.55-3.42.36-.92.84-1.67 1.42-2.24.57-.55 1.2-.94 1.9-1.19s1.4-.37 2.09-.37c.73 0 1.41.12 2.07.36.66.23 1.21.5 1.66.79.49.3.92.61 1.29.92.37.31.69.59.97.83h.5V50.4c-.4-.186-.86-.4-1.39-.637-.53-.24-1.07-.44-1.63-.606-.68-.2-1.32-.36-1.92-.47-.59-.102-1.41-.16-2.46-.16m20.86 8.616c0 .975-.08 1.79-.24 2.44-.16.65-.38 1.17-.66 1.56-.3.41-.64.693-1.03.854-.38.16-.81.243-1.3.243-.46 0-.87-.07-1.24-.215-.37-.14-.71-.41-1.03-.81-.29-.38-.53-.904-.7-1.57-.17-.66-.26-1.5-.26-2.504s.09-1.82.25-2.44c.17-.62.38-1.12.65-1.49.28-.38.62-.66 1.03-.83.41-.17.87-.26 1.36-.26.41 0 .83.09 1.26.26.43.18.77.44 1.02.79.31.42.54.93.69 1.52.16.59.24 1.41.24 2.45m5.26.03c0-2.71-.74-4.84-2.22-6.39-1.48-1.55-3.57-2.33-6.28-2.33-2.68 0-4.77.78-6.26 2.33-1.49 1.56-2.23 3.69-2.23 6.4 0 2.74.75 4.88 2.23 6.43 1.49 1.55 3.58 2.32 6.26 2.32 2.69 0 4.78-.78 6.27-2.34 1.48-1.55 2.23-3.69 2.23-6.41m18.14-8.22h-5.16v8.16c0 .67-.03 1.33-.08 1.99-.05.66-.15 1.15-.3 1.46-.18.37-.43.64-.76.8-.33.16-.77.25-1.33.25-.42 0-.85-.08-1.27-.23-.43-.15-.89-.4-1.37-.74V48.99H376v16.45h5.128v-1.81c.84.714 1.658 1.27 2.453 1.67.8.4 1.68.6 2.65.6 1.68 0 2.97-.53 3.86-1.59.89-1.06 1.34-2.593 1.34-4.605V48.998zm14.31 18.94h-.39c-.19.06-.5.14-.91.23-.41.09-.8.14-1.17.14-1.03 0-1.74-.19-2.11-.57-.38-.38-.57-1.09-.57-2.14v-.13h4.07v-3.56h-3.89V48.99h-5.13v12.88h-2.05v3.574h2.05v.455c0 2.01.53 3.52 1.58 4.52 1.06 1 2.65 1.51 4.79 1.51.74 0 1.44-.03 2.08-.09.65-.06 1.2-.13 1.67-.21v-3.72zm11.49-10.73c0 .98-.08 1.79-.24 2.44-.16.65-.38 1.17-.67 1.56-.3.41-.65.7-1.03.86-.38.16-.81.25-1.3.25-.46 0-.88-.07-1.25-.21-.37-.14-.71-.41-1.02-.81-.29-.38-.52-.9-.7-1.57-.17-.66-.26-1.5-.26-2.5s.09-1.82.25-2.44c.17-.62.38-1.11.65-1.49.28-.38.62-.66 1.03-.83.41-.17.87-.26 1.37-.26.41 0 .83.09 1.25.27.42.18.76.44 1.02.79.3.42.53.93.69 1.52.16.59.23 1.41.23 2.46m5.26.03c0-2.7-.74-4.83-2.22-6.39-1.48-1.55-3.57-2.33-6.27-2.33-2.69 0-4.78.78-6.27 2.34-1.49 1.56-2.23 3.69-2.23 6.39 0 2.74.74 4.88 2.23 6.43 1.49 1.55 3.58 2.32 6.26 2.32 2.7 0 4.79-.78 6.27-2.34 1.49-1.56 2.23-3.69 2.23-6.41m13.77 3.39h-.43c-.19.07-.48.12-.85.15-.37.04-.78.05-1.23.05-.53 0-1.1-.07-1.69-.23-.59-.16-1.16-.34-1.72-.56V49h-5.11v16.45h5.13v-2.36c.23.214.56.485.97.812.42.327.8.59 1.14.784.37.225.8.417 1.3.58.49.16.96.24 1.4.24.16 0 .35-.005.55-.014.21-.01.39-.025.56-.044v-4.85zM457.86 49v8.22c0 .81-.015 1.49-.044 2.05-.03.554-.12 1.01-.266 1.36-.145.35-.372.606-.68.767-.307.16-.74.24-1.296.24-.39 0-.773-.09-1.153-.26s-.79-.415-1.24-.728V48.98h-5.15v8.22c0 .8-.01 1.483-.05 2.044-.03.56-.12 1.017-.27 1.37-.14.35-.37.607-.68.768-.3.16-.73.243-1.28.243-.42 0-.83-.1-1.23-.294-.4-.19-.79-.42-1.17-.69V48.99h-5.12v16.45h5.13v-1.81c.84.713 1.63 1.27 2.38 1.67.74.4 1.57.6 2.5.6 1.01 0 1.89-.24 2.65-.717.76-.48 1.34-1.192 1.74-2.14.99.92 1.92 1.624 2.79 2.118.87.5 1.76.74 2.66.74.76 0 1.44-.12 2.05-.36.61-.24 1.12-.61 1.54-1.1.46-.52.81-1.15 1.04-1.88.23-.73.35-1.68.35-2.85V49h-5.16zm14.077 0h-5.13v16.45h5.128V48.99zm.15 18.793h-5.42v4h5.42v-4zM491.277 49h-5.157v8.16c0 .664-.028 1.326-.08 1.985-.055.66-.156 1.148-.3 1.46-.178.37-.43.638-.764.8-.33.16-.775.242-1.33.242-.42 0-.847-.08-1.276-.235-.43-.154-.89-.403-1.376-.745V48.99h-5.125v16.45h5.12v-1.81c.84.714 1.66 1.27 2.45 1.67.79.4 1.67.6 2.64.6 1.68 0 2.96-.53 3.85-1.59.89-1.06 1.33-2.593 1.33-4.605V48.998zm13.623 5.18v7.458c-.257.114-.57.212-.94.29-.37.08-.74.12-1.114.12-1.23 0-2.152-.4-2.772-1.196-.62-.795-.93-1.905-.93-3.33 0-.713.048-1.316.14-1.81.094-.49.266-.93.52-1.31.245-.37.566-.65.96-.843.397-.19.9-.29 1.517-.29.46 0 .91.07 1.36.23.45.15.87.38 1.27.67m5.13-3.3c0-1.53-.22-2.82-.66-3.89-.44-1.06-1.04-1.89-1.8-2.49-.76-.6-1.68-1.04-2.74-1.31-1.06-.27-2.25-.4-3.54-.4-1.09 0-2.13.07-3.11.21-.98.14-1.83.3-2.55.49v4.12h.6c.26-.1.56-.21.91-.32.35-.12.69-.23 1.05-.32.42-.11.83-.2 1.23-.27s.81-.1 1.23-.1c.87 0 1.6.09 2.18.27.58.18 1.02.43 1.31.77.3.34.5.74.62 1.2.12.46.18 1.05.18 1.75v.31c-.57-.51-1.24-.92-2-1.23-.75-.31-1.53-.46-2.33-.46-2.13 0-3.77.69-4.93 2.08-1.15 1.38-1.73 3.49-1.73 6.32 0 1.29.18 2.44.53 3.47.36 1.02.85 1.9 1.49 2.62.61.69 1.34 1.23 2.2 1.6.86.38 1.76.56 2.68.56.84 0 1.59-.11 2.26-.33.67-.22 1.27-.5 1.82-.87l.19.73h4.97V50.87zM414.07 38.8L408.54 17h-6.004l-3.5 13.49L395.62 17h-6.004L384.1 38.81h5.684l3.004-14.634 3.663 14.634h5.44l3.48-14.634 3.17 14.634h5.54zM427 25.17c0 .98-.08 1.79-.24 2.44-.16.65-.384 1.17-.667 1.56-.307.41-.65.697-1.03.86-.38.16-.815.24-1.303.24-.46 0-.87-.07-1.243-.21-.37-.14-.712-.41-1.025-.813-.29-.38-.526-.9-.7-1.564-.18-.66-.268-1.493-.268-2.5s.086-1.82.25-2.44c.168-.62.38-1.115.647-1.49.27-.38.61-.66 1.02-.83.41-.177.87-.264 1.37-.264.41 0 .83.08 1.25.26.43.17.76.44 1.02.79.31.42.54.92.69 1.52.16.59.24 1.41.24 2.45m5.26.03c0-2.71-.74-4.84-2.22-6.4-1.48-1.56-3.57-2.34-6.27-2.34-2.68 0-4.77.78-6.26 2.34-1.49 1.55-2.23 3.68-2.23 6.39 0 2.73.75 4.87 2.23 6.42 1.49 1.55 3.58 2.32 6.26 2.32 2.7 0 4.79-.78 6.27-2.33 1.49-1.56 2.23-3.7 2.23-6.41m13.26-.03c0 .97-.08 1.79-.24 2.44-.16.65-.38 1.17-.67 1.56-.3.41-.64.69-1.02.85-.38.16-.81.24-1.3.24-.46 0-.87-.07-1.25-.21-.37-.14-.71-.41-1.02-.82-.29-.38-.53-.9-.7-1.57-.17-.66-.26-1.5-.26-2.5s.09-1.82.25-2.44c.17-.62.38-1.12.65-1.49.28-.38.62-.66 1.03-.83.41-.17.87-.26 1.37-.26.41 0 .83.09 1.25.26.43.18.77.44 1.02.79.3.42.53.93.69 1.52.16.59.23 1.41.23 2.45m5.26.03c0-2.7-.74-4.84-2.22-6.39-1.48-1.56-3.57-2.34-6.27-2.34-2.69 0-4.77.77-6.26 2.33-1.49 1.55-2.23 3.69-2.23 6.39 0 2.73.74 4.87 2.23 6.42 1.49 1.54 3.57 2.32 6.26 2.32s4.78-.78 6.27-2.34c1.48-1.56 2.23-3.7 2.23-6.41m12.55-3.68v8.07c-.25.12-.59.23-1 .31-.41.08-.76.13-1.05.13-1.23 0-2.16-.43-2.78-1.29-.62-.86-.93-2.06-.93-3.61 0-1.62.25-2.8.74-3.52.5-.72 1.29-1.08 2.4-1.08.45 0 .9.09 1.36.26.46.18.88.42 1.26.72m5.15-4.54h-5.13v1.71c-.33-.28-.71-.57-1.13-.88-.43-.32-.8-.55-1.12-.71-.41-.19-.82-.34-1.22-.44-.4-.09-.88-.14-1.43-.14-1.87 0-3.36.78-4.45 2.33-1.1 1.55-1.64 3.63-1.64 6.23 0 1.44.18 2.68.55 3.74.37 1.06.89 1.97 1.54 2.75.6.71 1.32 1.28 2.17 1.69.85.42 1.75.63 2.7.63.86 0 1.57-.09 2.12-.27.55-.18 1.19-.46 1.93-.84v7h5.13V17zm26.86 10.93c0 1.43-.24 2.66-.74 3.68-.49 1.02-1.25 1.82-2.28 2.39-.74.41-1.52.63-2.33.67-.81.03-1.79.05-2.92.05H487v-13.6h.1c1.23 0 2.27.02 3.11.06.847.04 1.65.3 2.41.78.9.56 1.58 1.35 2.05 2.34.47.99.7 2.21.7 3.64m5.627-.05c0-2.03-.45-3.85-1.34-5.46-.89-1.608-2.014-2.84-3.37-3.7-1.134-.73-2.37-1.2-3.7-1.41-1.33-.21-2.75-.32-4.26-.32H481.5V38.8h6.766c1.533 0 2.97-.1 4.31-.29 1.334-.2 2.59-.67 3.76-1.42 1.434-.92 2.57-2.16 3.4-3.72.83-1.56 1.24-3.39 1.24-5.5m13.05-.54c-.03 1.08-.28 1.91-.754 2.47-.477.56-1.2.85-2.18.85-1 0-1.78-.3-2.34-.9-.56-.6-.87-1.41-.93-2.43h6.2zm-1.7-10.78c-3.105 0-5.485.74-7.14 2.22-1.655 1.48-2.483 3.6-2.483 6.34 0 2.68.77 4.83 2.312 6.43 1.54 1.6 3.7 2.4 6.475 2.4 2.52 0 4.417-.67 5.68-2.03 1.27-1.35 1.91-3.3 1.91-5.83v-1.85h-11.22c.05-.76.21-1.4.49-1.91s.64-.92 1.09-1.22c.44-.3.95-.52 1.54-.65.59-.13 1.23-.2 1.92-.2.6 0 1.18.07 1.76.2.58.13 1.11.31 1.59.52.42.19.81.39 1.166.6.36.22.65.41.87.57h.54V17.9c-.42-.16-.804-.32-1.15-.46-.347-.14-.824-.28-1.43-.43-.556-.15-1.13-.26-1.72-.34-.59-.09-1.31-.13-2.16-.13m14.4-.02c-1.21 0-2.357.13-3.437.39s-1.97.57-2.68.92v4.33h.42c.25-.19.52-.39.84-.62.31-.23.74-.46 1.3-.71.48-.23 1.02-.42 1.62-.58.6-.16 1.25-.24 1.95-.24.72 0 1.36.11 1.91.33.55.22.83.58.83 1.07 0 .38-.13.67-.38.86-.26.19-.75.38-1.48.55-.39.093-.89.2-1.48.31-.6.114-1.13.243-1.58.39-1.29.4-2.26.993-2.91 1.78-.65.785-.98 1.82-.98 3.1 0 .73.17 1.42.5 2.07.33.65.83 1.23 1.48 1.74.66.5 1.47.89 2.43 1.184.96.3 2.05.44 3.26.44 1.15 0 2.21-.11 3.18-.34.96-.23 1.78-.5 2.44-.83v-4.16h-.41c-.17.14-.45.32-.83.55-.38.23-.75.43-1.12.6-.43.196-.91.36-1.44.484-.53.13-1.08.19-1.64.19-.75 0-1.37-.13-1.89-.38-.51-.25-.77-.59-.77-1.01 0-.37.13-.67.38-.88.25-.22.8-.43 1.65-.63.44-.11.94-.21 1.52-.31.57-.1 1.12-.24 1.65-.42 1.18-.38 2.08-.94 2.69-1.67.61-.74.92-1.718.92-2.938 0-.77-.18-1.51-.54-2.21-.36-.7-.87-1.29-1.54-1.767-.7-.52-1.53-.92-2.48-1.2-.95-.29-2.09-.43-3.42-.43m15.55.45h-5.13V33.4h5.13V17zm.15 18.79H537v4h5.42v-4zm13.61-13.61v7.47c-.25.12-.56.216-.94.294-.37.075-.74.114-1.11.114-1.23 0-2.15-.39-2.77-1.19-.62-.8-.93-1.91-.93-3.34 0-.71.05-1.31.14-1.81.09-.49.26-.93.52-1.31.25-.37.57-.65.96-.84.4-.18.9-.28 1.52-.28.46 0 .91.08 1.35.23.44.16.87.38 1.27.68m5.13-3.29c0-1.52-.22-2.82-.66-3.88-.44-1.06-1.04-1.89-1.8-2.49-.76-.61-1.68-1.04-2.74-1.31-1.07-.27-2.25-.4-3.55-.4-1.09 0-2.13.07-3.11.21-.98.14-1.83.3-2.55.49v4.12h.6c.25-.1.55-.21.9-.32.34-.11.69-.22 1.04-.32.42-.11.83-.19 1.23-.26s.81-.1 1.23-.1c.87 0 1.59.09 2.18.27.58.18 1.02.44 1.31.77.3.34.5.74.62 1.21.12.46.17 1.05.17 1.75v.31c-.58-.51-1.24-.92-2-1.22-.76-.31-1.54-.46-2.34-.46-2.13 0-3.77.69-4.93 2.08-1.16 1.39-1.74 3.49-1.74 6.33 0 1.29.18 2.44.53 3.47.36 1.02.85 1.9 1.49 2.62.6.69 1.33 1.23 2.19 1.6.86.38 1.75.57 2.68.57.84 0 1.59-.1 2.25-.32.67-.21 1.27-.5 1.82-.86l.19.74h4.96V18.89zm19.3-1.84h-5.16v8.16c0 .67-.03 1.33-.08 1.99-.06.66-.16 1.15-.3 1.46-.18.37-.43.64-.76.8-.34.16-.78.25-1.34.25-.42 0-.85-.08-1.28-.234-.43-.157-.89-.406-1.38-.75V17h-5.125v16.45h5.13v-1.815c.84.713 1.66 1.27 2.45 1.67.79.4 1.67.6 2.64.6 1.68 0 2.96-.53 3.85-1.59.89-1.06 1.33-2.594 1.33-4.606V16.99z" fill="#000000"/></g><path d="M262.144 49.573c-3.27 0-5.87.99-7.793 2.966-1.92 1.97-2.88 4.75-2.88 8.34 0 3.45.97 6.21 2.9 8.27 1.93 2.05 4.53 3.08 7.8 3.08.87 0 1.65-.05 2.35-.15.7-.1 1.36-.24 2-.41.5-.15 1.04-.35 1.63-.6.59-.26 1.06-.48 1.42-.66v-5.2H269c-.264.23-.596.51-.996.84-.4.32-.854.64-1.36.96-.51.31-1.068.57-1.68.79-.61.22-1.245.33-1.91.33-.79 0-1.52-.13-2.176-.38-.66-.25-1.288-.68-1.884-1.3-.548-.56-.995-1.31-1.34-2.26-.347-.95-.52-2.07-.52-3.36 0-1.36.18-2.5.542-3.42.36-.92.835-1.67 1.42-2.24.567-.55 1.2-.94 1.897-1.19.7-.25 1.393-.37 2.09-.37.72 0 1.41.12 2.06.36.66.23 1.21.5 1.66.79.488.3.918.61 1.29.92.37.31.692.59.965.83h.5V51.4c-.4-.186-.865-.4-1.39-.637-.53-.24-1.07-.44-1.628-.606-.687-.2-1.326-.36-1.92-.47-.598-.102-1.418-.16-2.46-.16m20.86 8.616c0 .975-.08 1.79-.246 2.44-.16.65-.382 1.17-.665 1.56-.31.41-.65.693-1.03.854-.38.16-.82.243-1.3.243-.46 0-.87-.07-1.25-.215-.37-.14-.71-.41-1.03-.81-.3-.38-.53-.904-.71-1.57-.18-.66-.27-1.5-.27-2.504s.08-1.82.24-2.44c.16-.62.38-1.12.64-1.49.27-.38.61-.66 1.02-.83.41-.17.86-.26 1.36-.26.41 0 .82.09 1.25.26.42.18.76.44 1.02.79.3.42.53.93.69 1.52.15.59.23 1.41.23 2.45m5.26.03c0-2.71-.74-4.84-2.22-6.39-1.48-1.55-3.57-2.33-6.28-2.33-2.69 0-4.77.78-6.26 2.33-1.49 1.56-2.24 3.69-2.24 6.4 0 2.74.74 4.88 2.23 6.43 1.49 1.55 3.57 2.32 6.26 2.32s4.78-.78 6.27-2.34c1.48-1.55 2.22-3.69 2.22-6.41m12.55-3.67v8.07c-.25.13-.59.23-1 .32-.41.08-.76.12-1.06.12-1.23 0-2.16-.43-2.78-1.29-.62-.86-.93-2.06-.93-3.6 0-1.62.24-2.79.74-3.52.49-.72 1.29-1.08 2.39-1.08.45 0 .9.09 1.36.26.46.18.88.42 1.26.72m5.12-4.54h-5.13v1.71c-.33-.27-.71-.56-1.14-.88-.43-.31-.8-.54-1.12-.7-.41-.19-.82-.34-1.22-.44-.4-.09-.88-.14-1.44-.14-1.88 0-3.36.78-4.46 2.33-1.09 1.55-1.64 3.63-1.64 6.23 0 1.44.18 2.68.56 3.74.37 1.06.88 1.98 1.54 2.76.59.71 1.31 1.28 2.16 1.69.85.42 1.74.63 2.69.63.86 0 1.56-.09 2.12-.27.55-.18 1.19-.46 1.93-.84v7h5.13V50zM320 60.33c-.03 1.08-.28 1.906-.754 2.473-.476.568-1.2.85-2.178.85-.994 0-1.773-.3-2.334-.892-.563-.59-.873-1.4-.93-2.43H320zm-1.7-10.783c-3.107 0-5.487.743-7.14 2.227-1.658 1.485-2.485 3.6-2.485 6.343 0 2.686.77 4.83 2.314 6.43 1.54 1.602 3.7 2.403 6.47 2.403 2.52 0 4.41-.68 5.68-2.038 1.27-1.357 1.9-3.3 1.9-5.83v-1.84H313.8c.048-.762.21-1.4.483-1.91.272-.514.634-.922 1.083-1.225.44-.302.952-.52 1.54-.65.585-.133 1.224-.2 1.92-.2.593 0 1.18.067 1.756.2.576.13 1.103.304 1.582.52.42.184.806.384 1.162.6.357.214.647.404.872.57h.54V50.92c-.42-.166-.803-.32-1.15-.46-.347-.143-.823-.287-1.428-.434-.557-.146-1.13-.26-1.72-.344-.59-.083-1.31-.124-2.16-.124m27.875.015c-3.27 0-5.87.99-7.793 2.966-1.925 1.97-2.887 4.75-2.887 8.34 0 3.45.96 6.21 2.89 8.27 1.93 2.05 4.53 3.08 7.8 3.08.87 0 1.65-.05 2.34-.15.695-.1 1.36-.24 1.994-.41.5-.15 1.04-.35 1.62-.6.58-.26 1.06-.48 1.42-.66v-5.2H353c-.264.23-.596.51-.996.84-.4.32-.856.64-1.364.96-.507.31-1.066.57-1.677.79-.61.22-1.248.33-1.91.33-.793 0-1.52-.13-2.178-.38-.66-.25-1.288-.68-1.884-1.3-.54-.56-.99-1.31-1.34-2.26-.34-.95-.52-2.07-.52-3.36 0-1.36.18-2.5.55-3.42.36-.92.84-1.67 1.42-2.24.57-.55 1.2-.94 1.9-1.19s1.4-.37 2.09-.37c.73 0 1.41.12 2.07.36.66.23 1.21.5 1.66.79.49.3.92.61 1.29.92.37.31.69.59.97.83h.5V51.4c-.4-.186-.86-.4-1.39-.637-.53-.24-1.07-.44-1.63-.606-.68-.2-1.32-.36-1.92-.47-.59-.102-1.41-.16-2.46-.16m20.86 8.616c0 .975-.08 1.79-.24 2.44-.16.65-.38 1.17-.66 1.56-.3.41-.64.693-1.03.854-.38.16-.81.243-1.3.243-.46 0-.87-.07-1.24-.215-.37-.14-.71-.41-1.03-.81-.29-.38-.53-.904-.7-1.57-.17-.66-.26-1.5-.26-2.504s.09-1.82.25-2.44c.17-.62.38-1.12.65-1.49.28-.38.62-.66 1.03-.83.41-.17.87-.26 1.36-.26.41 0 .83.09 1.26.26.43.18.77.44 1.02.79.31.42.54.93.69 1.52.16.59.24 1.41.24 2.45m5.26.03c0-2.71-.74-4.84-2.22-6.39-1.48-1.55-3.57-2.33-6.28-2.33-2.68 0-4.77.78-6.26 2.33-1.49 1.56-2.23 3.69-2.23 6.4 0 2.74.75 4.88 2.23 6.43 1.49 1.55 3.58 2.32 6.26 2.32 2.69 0 4.78-.78 6.27-2.34 1.48-1.55 2.23-3.69 2.23-6.41m18.14-8.22h-5.16v8.16c0 .67-.03 1.33-.08 1.99-.05.66-.15 1.15-.3 1.46-.18.37-.43.64-.76.8-.33.16-.77.25-1.33.25-.42 0-.85-.08-1.27-.23-.43-.15-.89-.4-1.37-.74V49.99H375v16.45h5.128v-1.81c.84.714 1.658 1.27 2.453 1.67.8.4 1.68.6 2.65.6 1.68 0 2.97-.53 3.86-1.59.89-1.06 1.34-2.593 1.34-4.605V49.998zm14.31 18.94h-.39c-.19.06-.5.14-.91.23-.41.09-.8.14-1.17.14-1.03 0-1.74-.19-2.11-.57-.38-.38-.57-1.09-.57-2.14v-.13h4.07v-3.56h-3.89V49.99h-5.13v12.88h-2.05v3.574h2.05v.455c0 2.01.53 3.52 1.58 4.52 1.06 1 2.65 1.51 4.79 1.51.74 0 1.44-.03 2.08-.09.65-.06 1.2-.13 1.67-.21v-3.72zm11.49-10.73c0 .98-.08 1.79-.24 2.44-.16.65-.38 1.17-.67 1.56-.3.41-.65.7-1.03.86-.38.16-.81.25-1.3.25-.46 0-.88-.07-1.25-.21-.37-.14-.71-.41-1.02-.81-.29-.38-.52-.9-.7-1.57-.17-.66-.26-1.5-.26-2.5s.09-1.82.25-2.44c.17-.62.38-1.11.65-1.49.28-.38.62-.66 1.03-.83.41-.17.87-.26 1.37-.26.41 0 .83.09 1.25.27.42.18.76.44 1.02.79.3.42.53.93.69 1.52.16.59.23 1.41.23 2.46m5.26.03c0-2.7-.74-4.83-2.22-6.39-1.48-1.55-3.57-2.33-6.27-2.33-2.69 0-4.78.78-6.27 2.34-1.49 1.56-2.23 3.69-2.23 6.39 0 2.74.74 4.88 2.23 6.43 1.49 1.55 3.58 2.32 6.26 2.32 2.7 0 4.79-.78 6.27-2.34 1.49-1.56 2.23-3.69 2.23-6.41m13.77 3.39h-.43c-.19.07-.48.12-.85.15-.37.04-.78.05-1.23.05-.53 0-1.1-.07-1.69-.23-.59-.16-1.16-.34-1.72-.56V50h-5.11v16.45h5.13v-2.36c.23.214.56.485.97.812.42.327.8.59 1.14.784.37.225.8.417 1.3.58.49.16.96.24 1.4.24.16 0 .35-.005.55-.014.21-.01.39-.025.56-.044v-4.85zM456.86 50v8.22c0 .81-.015 1.49-.044 2.05-.03.554-.12 1.01-.266 1.36-.145.35-.372.606-.68.767-.307.16-.74.24-1.296.24-.39 0-.773-.09-1.153-.26s-.79-.415-1.24-.728V49.98h-5.15v8.22c0 .8-.01 1.483-.05 2.044-.03.56-.12 1.017-.27 1.37-.14.35-.37.607-.68.768-.3.16-.73.243-1.28.243-.42 0-.83-.1-1.23-.294-.4-.19-.79-.42-1.17-.69V49.99h-5.12v16.45h5.13v-1.81c.84.713 1.63 1.27 2.38 1.67.74.4 1.57.6 2.5.6 1.01 0 1.89-.24 2.65-.717.76-.48 1.34-1.192 1.74-2.14.99.92 1.92 1.624 2.79 2.118.87.5 1.76.74 2.66.74.76 0 1.44-.12 2.05-.36.61-.24 1.12-.61 1.54-1.1.46-.52.81-1.15 1.04-1.88.23-.73.35-1.68.35-2.85V50h-5.16zm14.077 0h-5.13v16.45h5.128V49.99zm.15 18.793h-5.42v4h5.42v-4zM490.277 50h-5.157v8.16c0 .664-.028 1.326-.08 1.985-.055.66-.156 1.148-.3 1.46-.178.37-.43.638-.764.8-.33.16-.775.242-1.33.242-.42 0-.847-.08-1.276-.235-.43-.154-.89-.403-1.376-.745V49.99h-5.125v16.45h5.12v-1.81c.84.714 1.66 1.27 2.45 1.67.79.4 1.67.6 2.64.6 1.68 0 2.96-.53 3.85-1.59.89-1.06 1.33-2.593 1.33-4.605V49.998zm13.623 5.18v7.458c-.257.114-.57.212-.94.29-.37.08-.74.12-1.114.12-1.23 0-2.152-.4-2.772-1.196-.62-.795-.93-1.905-.93-3.33 0-.713.048-1.316.14-1.81.094-.49.266-.93.52-1.31.245-.37.566-.65.96-.843.397-.19.9-.29 1.517-.29.46 0 .91.07 1.36.23.45.15.87.38 1.27.67m5.13-3.3c0-1.53-.22-2.82-.66-3.89-.44-1.06-1.04-1.89-1.8-2.49-.76-.6-1.68-1.04-2.74-1.31-1.06-.27-2.25-.4-3.54-.4-1.09 0-2.13.07-3.11.21-.98.14-1.83.3-2.55.49v4.12h.6c.26-.1.56-.21.91-.32.35-.12.69-.23 1.05-.32.42-.11.83-.2 1.23-.27s.81-.1 1.23-.1c.87 0 1.6.09 2.18.27.58.18 1.02.43 1.31.77.3.34.5.74.62 1.2.12.46.18 1.05.18 1.75v.31c-.57-.51-1.24-.92-2-1.23-.75-.31-1.53-.46-2.33-.46-2.13 0-3.77.69-4.93 2.08-1.15 1.38-1.73 3.49-1.73 6.32 0 1.29.18 2.44.53 3.47.36 1.02.85 1.9 1.49 2.62.61.69 1.34 1.23 2.2 1.6.86.38 1.76.56 2.68.56.84 0 1.59-.11 2.26-.33.67-.22 1.27-.5 1.82-.87l.19.73h4.97V51.87zM413.07 39.8L407.54 18h-6.004l-3.5 13.49L394.62 18h-6.004L383.1 39.81h5.684l3.004-14.634 3.663 14.634h5.44l3.48-14.634 3.17 14.634h5.54zM426 26.17c0 .98-.08 1.79-.24 2.44-.16.65-.384 1.17-.667 1.56-.307.41-.65.697-1.03.86-.38.16-.815.24-1.303.24-.46 0-.87-.07-1.243-.21-.37-.14-.712-.41-1.025-.813-.29-.38-.526-.9-.7-1.564-.18-.66-.268-1.493-.268-2.5s.086-1.82.25-2.44c.168-.62.38-1.115.647-1.49.27-.38.61-.66 1.02-.83.41-.177.87-.264 1.37-.264.41 0 .83.08 1.25.26.43.17.76.44 1.02.79.31.42.54.92.69 1.52.16.59.24 1.41.24 2.45m5.26.03c0-2.71-.74-4.84-2.22-6.4-1.48-1.56-3.57-2.34-6.27-2.34-2.68 0-4.77.78-6.26 2.34-1.49 1.55-2.23 3.68-2.23 6.39 0 2.73.75 4.87 2.23 6.42 1.49 1.55 3.58 2.32 6.26 2.32 2.7 0 4.79-.78 6.27-2.33 1.49-1.56 2.23-3.7 2.23-6.41m13.26-.03c0 .97-.08 1.79-.24 2.44-.16.65-.38 1.17-.67 1.56-.3.41-.64.69-1.02.85-.38.16-.81.24-1.3.24-.46 0-.87-.07-1.25-.21-.37-.14-.71-.41-1.02-.82-.29-.38-.53-.9-.7-1.57-.17-.66-.26-1.5-.26-2.5s.09-1.82.25-2.44c.17-.62.38-1.12.65-1.49.28-.38.62-.66 1.03-.83.41-.17.87-.26 1.37-.26.41 0 .83.09 1.25.26.43.18.77.44 1.02.79.3.42.53.93.69 1.52.16.59.23 1.41.23 2.45m5.26.03c0-2.7-.74-4.84-2.22-6.39-1.48-1.56-3.57-2.34-6.27-2.34-2.69 0-4.77.77-6.26 2.33-1.49 1.55-2.23 3.69-2.23 6.39 0 2.73.74 4.87 2.23 6.42 1.49 1.54 3.57 2.32 6.26 2.32s4.78-.78 6.27-2.34c1.48-1.56 2.23-3.7 2.23-6.41m12.55-3.68v8.07c-.25.12-.59.23-1 .31-.41.08-.76.13-1.05.13-1.23 0-2.16-.43-2.78-1.29-.62-.86-.93-2.06-.93-3.61 0-1.62.25-2.8.74-3.52.5-.72 1.29-1.08 2.4-1.08.45 0 .9.09 1.36.26.46.18.88.42 1.26.72m5.15-4.54h-5.13v1.71c-.33-.28-.71-.57-1.13-.88-.43-.32-.8-.55-1.12-.71-.41-.19-.82-.34-1.22-.44-.4-.09-.88-.14-1.43-.14-1.87 0-3.36.78-4.45 2.33-1.1 1.55-1.64 3.63-1.64 6.23 0 1.44.18 2.68.55 3.74.37 1.06.89 1.97 1.54 2.75.6.71 1.32 1.28 2.17 1.69.85.42 1.75.63 2.7.63.86 0 1.57-.09 2.12-.27.55-.18 1.19-.46 1.93-.84v7h5.13V18zm26.86 10.93c0 1.43-.24 2.66-.74 3.68-.49 1.02-1.25 1.82-2.28 2.39-.74.41-1.52.63-2.33.67-.81.03-1.79.05-2.92.05H486v-13.6h.1c1.23 0 2.27.02 3.11.06.847.04 1.65.3 2.41.78.9.56 1.58 1.35 2.05 2.34.47.99.7 2.21.7 3.64m5.627-.05c0-2.03-.45-3.85-1.34-5.46-.89-1.608-2.014-2.84-3.37-3.7-1.134-.73-2.37-1.2-3.7-1.41-1.33-.21-2.75-.32-4.26-.32H480.5V39.8h6.766c1.533 0 2.97-.1 4.31-.29 1.334-.2 2.59-.67 3.76-1.42 1.434-.92 2.57-2.16 3.4-3.72.83-1.56 1.24-3.39 1.24-5.5m13.05-.54c-.03 1.08-.28 1.91-.754 2.47-.477.56-1.2.85-2.18.85-1 0-1.78-.3-2.34-.9-.56-.6-.87-1.41-.93-2.43h6.2zm-1.7-10.78c-3.105 0-5.485.74-7.14 2.22-1.655 1.48-2.483 3.6-2.483 6.34 0 2.68.77 4.83 2.312 6.43 1.54 1.6 3.7 2.4 6.475 2.4 2.52 0 4.417-.67 5.68-2.03 1.27-1.35 1.91-3.3 1.91-5.83v-1.85h-11.22c.05-.76.21-1.4.49-1.91s.64-.92 1.09-1.22c.44-.3.95-.52 1.54-.65.59-.13 1.23-.2 1.92-.2.6 0 1.18.07 1.76.2.58.13 1.11.31 1.59.52.42.19.81.39 1.166.6.36.22.65.41.87.57h.54V18.9c-.42-.16-.804-.32-1.15-.46-.347-.14-.824-.28-1.43-.43-.556-.15-1.13-.26-1.72-.34-.59-.09-1.31-.13-2.16-.13m14.4-.02c-1.21 0-2.357.13-3.437.39s-1.97.57-2.68.92v4.33h.42c.25-.19.52-.39.84-.62.31-.23.74-.46 1.3-.71.48-.23 1.02-.42 1.62-.58.6-.16 1.25-.24 1.95-.24.72 0 1.36.11 1.91.33.55.22.83.58.83 1.07 0 .38-.13.67-.38.86-.26.19-.75.38-1.48.55-.39.093-.89.2-1.48.31-.6.114-1.13.243-1.58.39-1.29.4-2.26.993-2.91 1.78-.65.785-.98 1.82-.98 3.1 0 .73.17 1.42.5 2.07.33.65.83 1.23 1.48 1.74.66.5 1.47.89 2.43 1.184.96.3 2.05.44 3.26.44 1.15 0 2.21-.11 3.18-.34.96-.23 1.78-.5 2.44-.83v-4.16h-.41c-.17.14-.45.32-.83.55-.38.23-.75.43-1.12.6-.43.196-.91.36-1.44.484-.53.13-1.08.19-1.64.19-.75 0-1.37-.13-1.89-.38-.51-.25-.77-.59-.77-1.01 0-.37.13-.67.38-.88.25-.22.8-.43 1.65-.63.44-.11.94-.21 1.52-.31.57-.1 1.12-.24 1.65-.42 1.18-.38 2.08-.94 2.69-1.67.61-.74.92-1.718.92-2.938 0-.77-.18-1.51-.54-2.21-.36-.7-.87-1.29-1.54-1.767-.7-.52-1.53-.92-2.48-1.2-.95-.29-2.09-.43-3.42-.43m15.55.45h-5.13V34.4h5.13V18zm.15 18.79H536v4h5.42v-4zm13.61-13.61v7.47c-.25.12-.56.216-.94.294-.37.075-.74.114-1.11.114-1.23 0-2.15-.39-2.77-1.19-.62-.8-.93-1.91-.93-3.34 0-.71.05-1.31.14-1.81.09-.49.26-.93.52-1.31.25-.37.57-.65.96-.84.4-.18.9-.28 1.52-.28.46 0 .91.08 1.35.23.44.16.87.38 1.27.68m5.13-3.29c0-1.52-.22-2.82-.66-3.88-.44-1.06-1.04-1.89-1.8-2.49-.76-.61-1.68-1.04-2.74-1.31-1.07-.27-2.25-.4-3.55-.4-1.09 0-2.13.07-3.11.21-.98.14-1.83.3-2.55.49v4.12h.6c.25-.1.55-.21.9-.32.34-.11.69-.22 1.04-.32.42-.11.83-.19 1.23-.26s.81-.1 1.23-.1c.87 0 1.59.09 2.18.27.58.18 1.02.44 1.31.77.3.34.5.74.62 1.21.12.46.17 1.05.17 1.75v.31c-.58-.51-1.24-.92-2-1.22-.76-.31-1.54-.46-2.34-.46-2.13 0-3.77.69-4.93 2.08-1.16 1.39-1.74 3.49-1.74 6.33 0 1.29.18 2.44.53 3.47.36 1.02.85 1.9 1.49 2.62.6.69 1.33 1.23 2.19 1.6.86.38 1.75.57 2.68.57.84 0 1.59-.1 2.25-.32.67-.21 1.27-.5 1.82-.86l.19.74h4.96V19.89zm19.33-1.89h-5.16v8.16c0 .66-.03 1.32-.08 1.99-.06.66-.16 1.14-.3 1.46-.18.37-.43.63-.76.8-.33.16-.78.24-1.33.24-.42 0-.85-.08-1.28-.24-.43-.16-.89-.41-1.38-.75V17.99h-5.12v16.45h5.13v-1.81c.84.713 1.66 1.27 2.46 1.67.79.4 1.67.6 2.64.6 1.68 0 2.96-.53 3.85-1.59.89-1.06 1.34-2.594 1.34-4.606V17.998z" fill="#ffffff"/></g><g clip-path="url(#e)" transform="matrix(1.25 0 0 -1.25 0 112.5)"><path d="M614.667 64c-4.4 0-8-3.6-8-8V34c0-4.4 3.6-8 8-8H740c4.4 0 8 3.6 8 8v22c0 4.4-3.6 8-8 8H614.667z" fill="url(#f)"/></g><g clip-path="url(#g)" transform="matrix(1.25 0 0 -1.25 0 112.5)"><path d="M740 26H614.667c-4.4 0-8 3.6-8 8v22c0 4.4 3.6 8 8 8H740c4.4 0 8-3.6 8-8V34c0-4.4-3.6-8-8-8z" fill="none" stroke="#8cc63f" stroke-width="0.5" stroke-miterlimit="10"/><path d="M631.942 37.998h-8.736v13.087h3.287v-10.59h5.45v-2.497zm7.462 6.206c-.018.65-.17 1.146-.452 1.485-.285.34-.72.51-1.306.51-.597 0-1.065-.18-1.4-.54-.34-.36-.525-.85-.56-1.46h3.718zm-1.02-6.47c-1.863 0-3.292.446-4.284 1.337-.994.89-1.49 2.16-1.49 3.81 0 1.61.463 2.9 1.39 3.86.925.96 2.22 1.44 3.883 1.44 1.512 0 2.65-.41 3.41-1.22.762-.81 1.143-1.98 1.143-3.5v-1.11h-6.74c.028-.45.125-.84.29-1.15.163-.3.38-.55.65-.73.263-.18.57-.31.922-.39.352-.08.736-.12 1.152-.12.357 0 .71.04 1.054.12.346.08.662.19.95.31.252.11.484.23.7.36.212.13.386.25.52.34h.326v-2.54l-.69-.27c-.208-.08-.493-.17-.856-.26-.334-.09-.68-.15-1.034-.2-.354-.05-.786-.07-1.296-.07m11.076 2.85v2.06c-.522-.05-.944-.1-1.267-.14-.322-.04-.638-.11-.95-.22-.268-.09-.478-.24-.627-.42-.15-.19-.224-.44-.224-.76 0-.46.124-.78.373-.95.25-.17.617-.26 1.103-.26.27 0 .545.06.826.19.282.12.536.29.765.52m0-1.53c-.22-.18-.4-.34-.57-.48-.17-.14-.39-.28-.67-.42-.28-.13-.55-.24-.81-.31s-.63-.11-1.1-.11c-.88 0-1.6.3-2.18.88-.58.59-.87 1.33-.87 2.22 0 .74.14 1.33.44 1.78.29.45.71.81 1.26 1.07.55.27 1.22.46 1.99.57.77.11 1.6.19 2.49.25v.05c0 .55-.2.92-.61 1.13-.4.21-1.01.31-1.81.31-.36 0-.79-.06-1.28-.19s-.96-.3-1.43-.51h-.26v2.38c.3.09.79.2 1.47.32s1.36.18 2.05.18c1.7 0 2.93-.29 3.71-.85.77-.57 1.16-1.43 1.16-2.59V38h-3.06v1.047zM661.42 45h-.26c-.12.04-.29.07-.51.09-.22.02-.47.03-.74.03-.32 0-.66-.05-1.02-.14-.36-.09-.7-.2-1.04-.33V38h-3.08v9.87h3.08v-1.416c.14.13.33.29.58.488.25.197.48.354.68.47.22.136.48.252.77.348.29.097.57.145.84.145.1 0 .21-.003.33-.008.12-.006.23-.015.33-.027v-2.91zm10.42-7h-3.1v4.897c0 .4-.017.797-.05 1.19-.033.4-.09.69-.18.877-.106.22-.258.38-.457.48-.2.1-.466.144-.8.144-.25 0-.507-.047-.765-.14-.257-.095-.53-.244-.825-.45v-7h-3.07v9.87h3.076v-1.09c.5.43.99.764 1.47 1.005.47.24 1 .36 1.58.36 1 0 1.78-.318 2.31-.953.53-.638.8-1.56.8-2.766V38zm21.09 0h-3.27v8.676l-2.38-5.6h-2.24l-2.38 5.6v-8.68h-3.1v13.09h3.79l2.9-6.46 2.89 6.46h3.79V38zm8.85 4.915c0 .584-.05 1.07-.15 1.46-.097.39-.23.703-.4.937-.18.246-.388.42-.616.514-.23.097-.49.145-.784.145-.275 0-.524-.04-.746-.12-.224-.08-.43-.24-.617-.48-.176-.23-.317-.54-.423-.94-.103-.4-.156-.9-.156-1.5s.05-1.09.15-1.46c.1-.37.23-.67.386-.89.166-.23.37-.4.618-.5.246-.1.52-.16.817-.16.24 0 .49.06.75.16.25.11.46.27.61.48.18.25.32.56.41.91.09.36.14.85.14 1.47m3.15.02c0-1.62-.45-2.9-1.33-3.83-.89-.93-2.14-1.4-3.77-1.4-1.61 0-2.87.47-3.76 1.4-.9.94-1.34 2.22-1.34 3.84 0 1.64.44 2.93 1.34 3.86.89.93 2.14 1.39 3.76 1.39 1.61 0 2.87-.47 3.76-1.4.89-.94 1.33-2.22 1.33-3.85m8.26 2.03h-.26c-.12.04-.29.07-.51.09-.22.03-.47.04-.74.04-.32 0-.66-.05-1.02-.14-.36-.09-.7-.2-1.03-.33V38h-3.08v9.87h3.07v-1.416c.14.13.33.29.58.488.25.197.47.354.68.47.22.136.48.252.78.348.3.097.58.145.84.145.1 0 .21-.003.33-.008.12-.006.23-.015.33-.027v-2.91zm7.25-.75c-.02.65-.17 1.14-.45 1.48-.29.34-.72.51-1.31.51-.6 0-1.07-.18-1.4-.54-.34-.35-.53-.84-.56-1.46h3.72zm-1.02-6.47c-1.87 0-3.29.44-4.29 1.34-1 .89-1.49 2.16-1.49 3.81 0 1.61.46 2.9 1.39 3.86.92.96 2.22 1.44 3.88 1.44 1.51 0 2.65-.4 3.41-1.22.76-.81 1.14-1.98 1.14-3.5V42.4h-6.74c.03-.455.12-.84.29-1.146.16-.303.38-.55.65-.73.26-.183.57-.313.92-.393.35-.08.73-.12 1.15-.12.35 0 .71.04 1.05.12.34.08.66.19.95.32.25.11.48.23.7.36.21.13.38.25.52.34h.32V38.6l-.69-.272c-.21-.082-.49-.17-.86-.26-.34-.084-.68-.152-1.04-.203-.36-.05-.79-.08-1.3-.08m16.25 5.49l-4.92-3.92v2.6l2.47 1.88-2.47 1.884v2.6l4.92-3.91v-1.13z" fill="#ffffff"/></g></svg>