<svg xmlns="http://www.w3.org/2000/svg" width="400" height="62.5" viewBox="0 0 400 62.5"><defs><clipPath id="a"><path d="M0 0h320v50H0V0z"/></clipPath><clipPath id="b"><path d="M0 50h320V0H0v50z"/></clipPath><clipPath id="c"><path d="M119.723 38.925h123.003V5.628H119.723v33.297z"/></clipPath><clipPath id="d"><path d="M0 50h320V0H0v50z"/></clipPath><clipPath id="e"><path d="M260.606 32.392c-1.65 0-3-1.35-3-3v-8.784c0-1.65 1.35-3 3-3h48.98c1.65 0 3 1.35 3 3v8.783c0 1.66-1.35 3.01-3 3.01h-48.98z"/></clipPath><linearGradient x2="1" gradientUnits="userSpaceOnUse" gradientTransform="rotate(-135 159.26 -41.69) scale(46.84)" id="f"><stop offset="0" stop-color="#39b54a"/><stop offset="1" stop-color="#009245"/></linearGradient><clipPath id="g"><path d="M0 50h320V0H0v50z"/></clipPath></defs><path d="M0 62.5h400V0H0v62.5z" fill="#006837"/><g clip-path="url(#a)" transform="matrix(1.25 0 0 -1.25 0 62.5)"><path d="M106.535 1.645c0-50.087-40.604-90.69-90.693-90.69-50.088 0-90.692 40.603-90.692 90.69 0 50.088 40.604 90.694 90.692 90.694 50.09-.01 90.693-40.61 90.693-90.7" fill="#43b54c"/><path d="M100.697-4.193c0-50.088-40.604-90.692-90.693-90.692-50.088 0-90.693 40.604-90.693 90.692 0 50.088 40.61 90.693 90.7 90.693S100.7 45.895 100.7-4.193" fill="#ffffff"/></g><g clip-path="url(#b)" transform="matrix(1.25 0 0 -1.25 0 62.5)"><g clip-path="url(#c)" opacity="0.75"><path d="M126.807 29.318c0 .404-.082.72-.246.95-.16.228-.41.4-.73.518-.2.076-.47.118-.82.127-.35.01-.81.013-1.4.013H123v-3.278h.174c.857 0 1.45.006 1.777.018.33.01.66.09 1 .237.3.13.52.318.66.567.14.25.21.532.21.848m-.82 5.317c0 .21-.05.428-.16.65-.1.223-.27.385-.5.484-.21.09-.47.14-.77.15-.29.01-.73.01-1.32.01H123v-2.77h.413c.563 0 .957 0 1.183.01.225.01.458.07.698.18.265.12.447.29.546.51.1.21.15.46.15.75m4.21-5.38c0-.65-.122-1.22-.368-1.71-.246-.5-.577-.9-.994-1.23-.492-.39-1.032-.66-1.62-.83-.59-.17-1.338-.25-2.247-.25h-5.23V38.3h4.62c.96 0 1.69-.04 2.19-.11.5-.075.96-.23 1.4-.46.47-.255.82-.59 1.05-1.01.23-.425.35-.91.35-1.46 0-.64-.16-1.21-.48-1.71-.32-.5-.76-.863-1.32-1.1v-.07c.81-.17 1.46-.515 1.94-1.04.49-.523.73-1.23.73-2.122m10.87-4.003H138v1.09c-.533-.45-1.023-.786-1.47-1.02-.445-.23-.976-.34-1.59-.34-.98 0-1.74.31-2.29.93-.548.62-.82 1.55-.82 2.79v6.43h3.092v-4.9c0-.51.014-.927.04-1.25.03-.32.09-.594.19-.817.093-.203.24-.36.434-.464.197-.104.47-.157.82-.157.22 0 .475.06.77.16.298.11.57.25.824.43v7h3.073v-9.87zm5.43 0h-3.07v9.87h3.08v-9.87zm.09 11.274h-3.25v2.4h3.25v-2.4zm5.34-11.28h-3.07V38.9h3.08V25.25zm8.26 2.72v4.85c-.15.08-.35.14-.6.19-.24.05-.45.07-.63.07-.74 0-1.29-.26-1.66-.78-.37-.52-.55-1.24-.55-2.17 0-.98.15-1.68.45-2.11.29-.44.77-.65 1.43-.65.27 0 .54.05.82.15.28.11.53.25.76.43m3.07-2.72h-3.08v1.02c-.2-.17-.43-.34-.68-.53-.25-.19-.48-.33-.67-.43-.24-.12-.49-.21-.73-.27-.24-.06-.52-.09-.86-.09-1.12 0-2.01.47-2.67 1.4-.66.93-.99 2.18-.99 3.74 0 .86.12 1.6.34 2.24.22.63.53 1.18.92 1.65.36.43.79.76 1.3 1.01s1.05.38 1.62.38c.52 0 .94-.06 1.27-.17.33-.11.72-.28 1.16-.51v4.2h3.08v-13.6zm5.44 0h-3.08v9.87h3.08V25.2zm.08 11.27h-3.25v2.4h3.25v-2.4zm11.51-11.26h-3.1v4.9c0 .4-.01.8-.05 1.19-.03.4-.09.69-.18.88-.1.23-.26.38-.46.48-.2.1-.46.15-.8.15-.25 0-.51-.05-.76-.14-.26-.09-.53-.24-.82-.45v-6.99h-3.08v9.87h3.08V34c.5.43.99.76 1.47 1s1 .36 1.58.36c1 0 1.77-.32 2.31-.95.53-.64.8-1.56.8-2.766v-6.43zm8.18 3.11v4.48c-.15.07-.34.13-.56.17-.22.04-.45.07-.67.07-.74 0-1.3-.24-1.67-.72-.37-.48-.56-1.15-.56-2 0-.43.02-.79.08-1.09.06-.3.16-.56.31-.79.15-.22.34-.39.58-.5.23-.11.54-.17.91-.17.27 0 .54.05.81.14.26.1.52.23.76.41m3.07-1.98c0-.91-.13-1.69-.4-2.33-.27-.64-.63-1.14-1.08-1.49-.46-.37-1.01-.63-1.65-.79-.64-.16-1.35-.24-2.12-.24-.66 0-1.28.04-1.87.12-.59.08-1.1.18-1.53.29v2.47h.36c.15-.06.33-.13.54-.2.21-.07.42-.13.63-.19.25-.06.49-.12.73-.16.24-.04.49-.06.74-.06.52 0 .96.06 1.3.16.35.11.62.27.79.47.18.21.3.45.37.73.07.28.11.63.11 1.05v.18c-.34-.3-.74-.55-1.2-.73-.45-.18-.92-.27-1.4-.27-1.27 0-2.26.41-2.95 1.25-.69.83-1.04 2.1-1.04 3.8 0 .77.11 1.47.33 2.08.22.62.51 1.14.89 1.58.37.41.81.73 1.32.96.52.22 1.05.33 1.61.33.51 0 .96-.06 1.36-.19.39-.13.76-.3 1.09-.52l.11.44h2.98v-8.73zM205 24.96c-1.966 0-3.52.59-4.68 1.78-1.155 1.18-1.732 2.85-1.732 5 0 2.08.58 3.73 1.74 4.96 1.154 1.24 2.714 1.85 4.68 1.85.52 0 .99-.03 1.4-.08.42-.06.82-.14 1.2-.242.3-.09.625-.21.977-.36.35-.152.635-.284.85-.4v-3.12h-.333c-.16.14-.36.31-.6.51s-.51.388-.815.576c-.305.187-.64.347-1.006.48-.37.13-.75.197-1.15.197-.47 0-.91-.07-1.3-.22s-.77-.41-1.13-.78c-.32-.33-.59-.79-.8-1.35-.2-.57-.31-1.24-.31-2.01 0-.82.11-1.5.33-2.06.22-.55.5-1 .85-1.34.34-.33.72-.57 1.14-.71.42-.15.84-.22 1.25-.22.44 0 .85.07 1.24.21.4.15.73.31 1 .48.3.18.55.37.78.56l.58.5h.3V26.1c-.24-.112-.51-.24-.83-.383-.32-.142-.64-.263-.98-.363-.41-.123-.79-.217-1.15-.28-.36-.066-.85-.098-1.47-.098m12.52 5.165c0 .59-.05 1.08-.14 1.47-.09.39-.23.71-.4.94-.18.25-.39.42-.61.52-.22.1-.48.15-.78.15-.27 0-.52-.04-.74-.12-.22-.08-.43-.24-.62-.49-.17-.23-.32-.54-.42-.94-.11-.4-.16-.9-.16-1.5s.05-1.09.15-1.46c.1-.37.23-.67.39-.89.17-.23.37-.4.62-.5.25-.11.52-.16.82-.16.25 0 .5.05.76.16.25.1.46.26.61.47.18.26.32.56.41.91.1.36.14.85.14 1.48m3.16.02c0-1.62-.44-2.9-1.33-3.83-.89-.93-2.14-1.4-3.77-1.4-1.61 0-2.86.47-3.76 1.41-.89.93-1.34 2.21-1.34 3.84 0 1.64.45 2.93 1.34 3.86.9.93 2.15 1.39 3.76 1.39 1.62 0 2.87-.47 3.76-1.4.89-.93 1.34-2.22 1.34-3.84m7.53-2.21v4.84c-.15.08-.35.14-.6.19-.25.05-.46.07-.63.07-.74 0-1.3-.25-1.67-.77-.37-.51-.56-1.23-.56-2.16 0-.97.15-1.67.45-2.11.3-.43.78-.65 1.44-.65.27 0 .54.06.82.16.28.11.53.25.76.43m3.07-2.72h-3.07v1.03c-.2-.16-.43-.34-.68-.53-.26-.19-.48-.33-.68-.42-.24-.11-.49-.2-.73-.26s-.52-.09-.86-.09c-1.12 0-2.01.47-2.67 1.4-.66.93-.99 2.18-.99 3.74 0 .86.11 1.6.34 2.24.22.63.53 1.18.92 1.65.36.43.79.76 1.3 1.01s1.05.37 1.62.37c.52 0 .94-.05 1.27-.16.33-.11.72-.28 1.16-.51v4.2h3.07v-13.7zm8.43 6.21c-.02.65-.17 1.15-.45 1.49-.28.34-.72.51-1.3.51-.6 0-1.06-.18-1.4-.53-.34-.36-.52-.84-.56-1.46h3.72zm-1.02-6.47c-1.86 0-3.29.45-4.28 1.34-.99.89-1.49 2.16-1.49 3.81 0 1.61.46 2.9 1.39 3.86s2.22 1.44 3.89 1.44c1.51 0 2.65-.41 3.41-1.22.76-.81 1.15-1.98 1.15-3.5V29.6H236c.03-.458.123-.84.29-1.147.16-.308.38-.553.65-.734.26-.19.57-.32.92-.4.35-.08.74-.12 1.15-.12.355 0 .71.04 1.05.12.348.08.664.18.95.31.254.11.486.23.7.36.214.13.388.24.52.34h.328V25.8c-.256-.1-.486-.192-.69-.277-.21-.085-.5-.172-.86-.26-.33-.087-.68-.156-1.03-.206-.356-.05-.79-.076-1.3-.076M147.84 9.25v13.087h8.85V19.84h-5.58v-2.294h5.14V15.05h-5.14v-3.305h5.58V9.25h-8.85zm20.636 0h-3.605l-1.88 2.84-1.93-2.84h-3.53l3.63 4.93-3.56 4.94h3.61l1.85-2.786 1.86 2.786h3.54l-3.57-4.86 3.62-5.01zm7.67 5.01c0 .96-.147 1.658-.443 2.09-.298.435-.76.65-1.386.65-.275 0-.55-.042-.82-.13-.274-.09-.54-.22-.805-.395V11.51c.163-.07.343-.12.54-.15.195-.03.43-.044.698-.044.75 0 1.307.244 1.67.733.363.49.545 1.22.545 2.21m3.146.06c0-1.58-.4-2.85-1.2-3.81-.8-.97-1.78-1.45-2.95-1.45-.49 0-.92.05-1.28.16s-.75.28-1.16.52V5.63h-3.07v13.49h3.08v-1.027c.45.388.91.7 1.38.94.47.242 1.01.362 1.63.362 1.14 0 2.03-.454 2.66-1.362.63-.91.94-2.145.94-3.71m7.73 1.13c-.02.65-.17 1.147-.45 1.486-.29.34-.72.51-1.31.51-.6 0-1.07-.18-1.4-.54-.33-.36-.52-.85-.55-1.46h3.72zM186 8.983c-1.86 0-3.29.448-4.283 1.338-.993.9-1.49 2.16-1.49 3.81 0 1.61.464 2.9 1.39 3.86.926.96 2.22 1.44 3.884 1.44 1.52 0 2.65-.41 3.41-1.22.77-.81 1.15-1.98 1.15-3.5V13.6h-6.74c.03-.458.13-.84.29-1.148.17-.308.38-.552.65-.733.27-.19.57-.32.92-.4.35-.08.74-.12 1.15-.12.36 0 .71.04 1.06.11.35.08.67.18.95.31.26.11.49.23.7.36.22.13.39.24.52.34h.33V9.8l-.69-.277c-.2-.085-.49-.17-.85-.258-.33-.088-.68-.158-1.03-.208-.35-.05-.78-.075-1.29-.075m12.26 7.228h-.25c-.12.04-.29.07-.51.092-.22.02-.47.03-.74.03-.32 0-.66-.046-1.01-.14-.35-.093-.7-.205-1.03-.334v-6.61h-3.07v9.87h3.08v-1.414c.14.13.34.29.59.487.25.2.48.36.68.48.22.14.48.25.78.35.3.1.58.15.84.15.1 0 .21 0 .33-.01.12 0 .24-.01.34-.02v-2.91zm4.96-7.154c-1.25 0-2.16.258-2.74.773-.57.51-.85 1.36-.85 2.53v4.61h-1.18v2.14h1.18v2.82h3.08v-2.82h2.96v-2.14h-2.96v-3.5c0-.35 0-.65.01-.91s.05-.49.14-.7c.08-.21.23-.37.44-.49s.51-.18.91-.18c.17 0 .38.03.65.1s.46.13.56.19h.27V9.33c-.33-.09-.69-.157-1.06-.207-.37-.05-.83-.074-1.38-.074m6.71-.08c-.73 0-1.41.08-2.06.23-.64.16-1.18.34-1.6.55v2.6h.26c.15-.12.31-.24.5-.37.19-.14.45-.28.78-.42.29-.14.61-.26.97-.35.36-.1.76-.15 1.18-.15.43 0 .82.07 1.15.2.33.13.5.35.5.64 0 .23-.07.4-.22.52-.15.11-.45.23-.89.33-.23.06-.53.12-.88.19-.36.07-.68.14-.95.23-.78.24-1.36.59-1.75 1.07-.39.47-.59 1.09-.59 1.86 0 .44.1.85.3 1.24.2.39.5.74.89 1.04.39.3.88.54 1.45.71.58.17 1.23.26 1.96.26.69 0 1.33-.07 1.91-.21.58-.14 1.07-.3 1.47-.5v-2.49h-.24c-.11.08-.28.19-.5.33-.23.13-.46.25-.67.35-.26.12-.55.21-.87.29-.32.07-.64.11-.98.11-.44 0-.82-.08-1.13-.23-.31-.15-.46-.35-.46-.61 0-.22.08-.4.23-.53.15-.13.48-.25.99-.38.27-.06.57-.12.91-.19.34-.06.67-.14.99-.25.71-.22 1.25-.56 1.61-1 .37-.44.55-1.03.55-1.76 0-.47-.11-.91-.32-1.33-.22-.42-.53-.77-.93-1.06-.42-.31-.92-.55-1.49-.72-.57-.17-1.25-.25-2.05-.25" fill="#000000"/></g><path d="M126.057 30.068c0 .404-.082.72-.246.95-.16.228-.41.4-.73.518-.2.076-.47.118-.82.127-.35.01-.81.013-1.4.013h-.6v-3.278h.18c.86 0 1.45.006 1.78.018.33.01.66.09 1 .237.3.13.52.318.66.567.14.25.21.532.21.848m-.82 5.317c0 .21-.05.428-.16.65-.1.223-.27.385-.5.484-.21.09-.47.14-.77.15-.29.01-.73.01-1.32.01h-.23v-2.77h.42c.56 0 .96 0 1.18.01.23.01.46.07.7.18.27.12.45.29.55.51.1.21.15.46.15.75m4.21-5.38c0-.65-.12-1.22-.37-1.71-.24-.5-.57-.9-.99-1.23-.49-.39-1.03-.66-1.62-.83-.59-.17-1.34-.25-2.24-.25H119v13.09h4.62c.96 0 1.69-.04 2.184-.11.498-.08.96-.23 1.396-.46.47-.26.82-.59 1.05-1.01.23-.43.345-.91.345-1.46 0-.64-.16-1.21-.48-1.71-.32-.5-.76-.87-1.322-1.1v-.07c.81-.17 1.457-.52 1.94-1.04.49-.53.73-1.23.73-2.13m10.87-4h-3.075v1.09c-.533-.45-1.023-.79-1.468-1.02-.448-.23-.98-.35-1.594-.35-.977 0-1.74.31-2.29.92-.546.62-.82 1.55-.82 2.79v6.42h3.094v-4.9c0-.51.016-.93.04-1.25.03-.33.09-.6.19-.82.095-.21.24-.36.436-.47.197-.11.47-.16.82-.16.22 0 .475.05.77.16.298.1.57.25.824.43v7h3.075V26zm5.43 0h-3.074v9.87h3.08V26zm.09 11.27H142.6v2.4h3.254v-2.4zM151.175 26H148.1v13.675h3.076V26zm8.255 2.724v4.843c-.155.076-.355.14-.6.19-.247.05-.458.073-.63.073-.74 0-1.297-.257-1.67-.773-.37-.516-.557-1.236-.557-2.162 0-.973.148-1.676.444-2.11.294-.433.773-.65 1.435-.65.27 0 .545.053.82.158.276.106.527.25.756.43m3.08-2.723h-3.076v1.028c-.2-.164-.428-.34-.683-.528-.26-.187-.48-.328-.68-.422-.25-.117-.49-.205-.73-.263-.24-.06-.53-.088-.86-.088-1.13 0-2.02.466-2.67 1.397-.66.932-.98 2.177-.98 3.736 0 .86.11 1.608.33 2.24.22.634.53 1.185.92 1.653.35.428.79.766 1.3 1.015.51.25 1.05.374 1.61.374.51 0 .94-.054 1.27-.163.33-.11.72-.28 1.15-.51v4.2h3.07V26zm5.433 0h-3.07v9.87h3.08V26zm.09 11.275h-3.25v2.4h3.25v-2.4zM179.54 26h-3.094v4.895c0 .398-.015.795-.048 1.19-.032.396-.092.687-.18.875-.106.223-.258.382-.457.48-.2.096-.47.144-.8.144-.26 0-.51-.047-.77-.14-.26-.094-.53-.244-.83-.45V26h-3.07v9.87h3.08v-1.09c.51.427 1 .76 1.48 1s1.01.362 1.59.362c1.01 0 1.78-.318 2.31-.954.54-.636.8-1.557.8-2.764V26zm8.174 3.11v4.474c-.15.07-.34.13-.56.175-.224.04-.447.07-.67.07-.74 0-1.292-.24-1.665-.72s-.56-1.15-.56-2c0-.43.02-.79.08-1.09.05-.3.16-.56.31-.79.15-.23.34-.39.58-.51.23-.12.54-.17.91-.17.27 0 .54.04.81.14.27.09.52.23.76.4m3.07-1.98c0-.92-.13-1.69-.4-2.33-.27-.64-.63-1.14-1.08-1.5-.46-.37-1.01-.63-1.65-.79-.64-.16-1.35-.24-2.13-.24-.65 0-1.27.04-1.86.12-.59.08-1.1.18-1.53.29v2.47h.36c.15-.06.33-.12.54-.19.21-.07.42-.14.63-.2.25-.07.5-.12.74-.16.24-.04.49-.07.74-.07.52 0 .95.05 1.3.16.35.1.61.26.79.46.17.2.3.44.37.72.07.28.1.63.1 1.05v.19c-.35-.31-.75-.55-1.2-.74-.46-.19-.92-.28-1.4-.28-1.28 0-2.27.41-2.96 1.24-.7.83-1.04 2.1-1.04 3.79 0 .77.11 1.47.32 2.08.21.61.51 1.14.89 1.57.37.41.8.74 1.32.96.52.22 1.05.34 1.61.34.5 0 .95-.07 1.35-.2.4-.13.76-.3 1.09-.52l.11.44h2.98v-8.7zm13.44-1.39c-1.97 0-3.52.59-4.68 1.78-1.16 1.18-1.74 2.85-1.74 5 0 2.07.58 3.72 1.73 4.96 1.15 1.23 2.71 1.85 4.68 1.85.52 0 .99-.03 1.4-.09.41-.06.81-.14 1.19-.25.3-.09.62-.21.97-.36.35-.16.64-.29.85-.4V35.1h-.33c-.16.14-.36.31-.6.505s-.51.39-.82.575c-.3.186-.64.346-1 .48-.37.13-.75.196-1.15.196-.47 0-.91-.08-1.3-.23-.39-.15-.77-.41-1.13-.777-.33-.34-.59-.79-.8-1.36-.21-.57-.31-1.24-.31-2.01 0-.82.11-1.5.32-2.06.21-.56.5-1 .85-1.34.34-.33.72-.57 1.14-.72.42-.15.83-.22 1.25-.22.43 0 .85.07 1.24.21.39.14.72.3.99.48.29.18.55.36.78.55.22.19.42.35.58.5h.3v-3.07c-.24-.11-.52-.24-.84-.38-.32-.15-.65-.27-.98-.37-.41-.13-.79-.22-1.15-.28-.36-.07-.85-.1-1.48-.1m12.52 5.17c0 .58-.04 1.07-.14 1.46-.09.39-.23.7-.4.93-.18.25-.38.42-.61.51-.22.1-.48.15-.78.15-.27 0-.52-.04-.74-.13-.23-.09-.43-.25-.62-.49-.18-.23-.32-.55-.42-.94-.11-.4-.16-.9-.16-1.51s.05-1.09.15-1.46c.1-.37.23-.67.38-.89.17-.23.37-.4.62-.5.25-.11.52-.16.82-.16.25 0 .5.05.75.16.26.1.46.26.61.47.18.25.32.55.42.91.1.35.14.84.14 1.47m3.16.01c0-1.62-.44-2.9-1.33-3.84-.89-.94-2.15-1.4-3.77-1.4-1.61 0-2.87.47-3.76 1.4-.89.93-1.34 2.21-1.34 3.83 0 1.64.45 2.92 1.34 3.85.89.93 2.15 1.39 3.76 1.39s2.87-.47 3.76-1.4c.89-.93 1.33-2.22 1.33-3.84m7.54-2.21v4.84c-.16.08-.36.14-.6.19-.25.05-.46.07-.64.07-.74 0-1.29-.25-1.67-.77s-.56-1.24-.56-2.16c0-.97.15-1.68.44-2.11.29-.43.77-.65 1.44-.65.27 0 .54.05.81.16.27.1.53.25.75.43m3.07-2.73h-3.07V27c-.2-.17-.43-.34-.68-.53-.25-.19-.48-.33-.67-.425-.25-.118-.49-.206-.73-.264-.24-.06-.53-.09-.86-.09-1.12 0-2.02.47-2.67 1.4-.66.93-.99 2.18-.99 3.74 0 .86.11 1.61.33 2.24.23.64.53 1.19.93 1.66.36.43.79.77 1.3 1.02s1.05.38 1.62.38c.52 0 .94-.05 1.27-.16.33-.11.72-.28 1.16-.51v4.2h3.07V26zm8.43 6.2c-.02.65-.17 1.14-.45 1.48-.28.34-.72.51-1.31.51-.6 0-1.07-.18-1.4-.54-.34-.36-.53-.85-.56-1.46h3.71zm-1.02-6.47c-1.86 0-3.29.44-4.28 1.33-1 .9-1.49 2.16-1.49 3.81 0 1.61.46 2.9 1.39 3.86.92.96 2.22 1.44 3.88 1.44 1.51 0 2.65-.41 3.41-1.22.76-.81 1.14-1.98 1.14-3.5v-1.1h-6.74c.03-.46.12-.84.29-1.15.16-.31.38-.56.65-.74.26-.18.57-.31.92-.39.35-.08.74-.12 1.15-.12.36 0 .71.04 1.052.12.34.08.66.18.95.31.25.11.48.23.7.36.21.13.38.24.52.34h.32v-2.5c-.25-.1-.48-.197-.69-.28-.21-.08-.49-.17-.85-.26-.33-.087-.68-.15-1.03-.2-.36-.05-.79-.08-1.3-.08M147.09 10v13.086h8.85V20.59h-5.58v-2.294h5.14V15.8h-5.14v-3.305h5.58V10h-8.85zm20.637 0h-3.604l-1.88 2.838-1.935-2.84h-3.533l3.63 4.932-3.567 4.94h3.604l1.847-2.787 1.85 2.786h3.54l-3.58-4.86 3.62-5.01zm7.672 5.01c0 .96-.15 1.657-.45 2.09-.3.434-.76.65-1.39.65-.28 0-.55-.043-.83-.13-.28-.09-.54-.22-.81-.396v-4.966c.16-.07.34-.12.54-.15.19-.03.43-.043.7-.043.75 0 1.3.244 1.67.733.36.49.54 1.227.54 2.21m3.15.063c0-1.57-.4-2.84-1.2-3.81-.8-.96-1.79-1.45-2.96-1.45-.5 0-.92.06-1.29.17-.37.11-.75.29-1.16.52V6.38h-3.08v13.49h3.07v-1.027c.45.388.91.7 1.38.94.47.242 1.01.362 1.62.362 1.14 0 2.02-.454 2.65-1.362.63-.91.94-2.145.94-3.71m7.73 1.13c-.02.65-.17 1.147-.45 1.486-.29.34-.72.51-1.31.51-.6 0-1.07-.18-1.4-.54-.34-.36-.53-.85-.56-1.46h3.72zm-1.02-6.47c-1.86 0-3.29.448-4.28 1.338-1 .9-1.49 2.16-1.49 3.81 0 1.61.46 2.9 1.39 3.86.92.96 2.22 1.44 3.88 1.44 1.51 0 2.65-.41 3.41-1.22.76-.81 1.14-1.98 1.14-3.5v-1.11h-6.74c.03-.46.12-.84.29-1.15.16-.3.38-.55.65-.73.26-.18.57-.31.92-.39.35-.08.73-.12 1.15-.12.36 0 .71.04 1.05.12.34.08.66.19.95.32.25.11.48.23.69.36.21.13.39.24.52.34h.33v-2.54l-.69-.27c-.21-.08-.49-.17-.86-.25-.34-.09-.68-.16-1.04-.21-.35-.05-.79-.07-1.3-.07m12.26 7.23h-.25c-.12.04-.29.07-.51.09-.22.02-.47.03-.74.03-.32 0-.66-.04-1.02-.14-.36-.09-.7-.2-1.03-.33V10h-3.08v9.87h3.07v-1.414c.14.13.33.29.58.487.25.2.47.356.68.473.22.135.48.25.77.347.3.097.58.145.84.145.1 0 .21-.003.34-.008.12-.006.23-.015.33-.027v-2.91zm4.96-7.15c-1.25 0-2.16.26-2.73.77-.57.52-.86 1.36-.86 2.53v4.62h-1.18v2.14h1.18v2.82h3.07V19.9h2.96v-2.15h-2.96v-3.5c0-.343 0-.645.01-.9 0-.26.05-.49.14-.694.08-.205.22-.37.43-.49s.51-.18.91-.18c.16 0 .38.03.64.1s.45.137.56.19h.26V10.1c-.34-.09-.69-.154-1.06-.204-.38-.05-.84-.076-1.38-.076m6.71-.076c-.73 0-1.42.08-2.06.24-.65.16-1.18.347-1.61.56v2.6h.25l.5-.37c.19-.134.45-.275.78-.42.29-.136.61-.25.97-.35.36-.096.76-.144 1.18-.144.44 0 .82.07 1.15.205.33.13.5.346.5.64 0 .23-.07.4-.22.52-.15.115-.45.226-.89.33-.24.06-.53.12-.89.19s-.68.147-.95.235c-.78.24-1.36.595-1.75 1.07-.39.472-.59 1.092-.59 1.86 0 .44.1.853.31 1.242.2.39.5.74.89 1.04.39.3.87.537 1.45.71.58.177 1.23.265 1.95.265.69 0 1.33-.07 1.91-.21.58-.14 1.07-.3 1.47-.493v-2.5h-.24c-.1.08-.27.19-.5.33-.23.136-.45.255-.67.354-.254.116-.544.21-.86.29-.32.075-.65.113-.98.113-.45 0-.83-.08-1.13-.23-.31-.15-.46-.35-.46-.61 0-.22.07-.4.22-.53s.486-.26.995-.38c.26-.06.56-.13.91-.19.34-.06.67-.14.983-.25.71-.23 1.25-.56 1.61-1 .37-.44.55-1.03.55-1.76 0-.46-.11-.9-.32-1.32-.21-.42-.52-.77-.92-1.05-.42-.31-.92-.55-1.49-.72-.57-.17-1.25-.25-2.05-.25" fill="#ffffff"/></g><g clip-path="url(#d)" transform="matrix(1.25 0 0 -1.25 0 62.5)"><path d="M20.166 14.066h-.193V12.65h.244c.325 0 .55.026.67.082.12.056.216.14.283.253.067.112.1.24.1.384 0 .14-.036.26-.11.38-.077.11-.182.19-.318.24-.136.05-.362.07-.676.07m-.835-3.94v4.48h1.13c.46 0 .82-.11 1.08-.34.27-.23.4-.53.4-.92 0-.26-.06-.49-.19-.68-.13-.19-.31-.34-.56-.43.14-.1.28-.22.42-.39.14-.16.33-.45.58-.85.16-.26.28-.45.38-.58l.24-.32h-.76l-.2.29c0 .01-.02.03-.04.05l-.12.17-.2.33-.21.35c-.13.18-.25.33-.36.44-.11.11-.21.19-.3.23-.09.04-.24.07-.45.07H20V10.1h-.64zm3.96 4.49h.65v-4.49h-.64v4.48zm5.51-3.45v-.71c-.47-.26-1.01-.39-1.63-.39-.5 0-.92.1-1.27.3-.35.2-.62.47-.83.83-.2.35-.3.73-.3 1.14 0 .65.24 1.2.7 1.65.47.44 1.04.67 1.72.67.47 0 1-.13 1.57-.37v-.69c-.52.3-1.03.45-1.54.45s-.94-.17-1.28-.49c-.34-.33-.51-.73-.51-1.22s.17-.9.51-1.22c.34-.32.76-.48 1.28-.48.55 0 1.08.17 1.6.5m3.33.86l-.72 1.62-.67-1.62h1.4zm-.94 2.61h.46l2.01-4.52H33l-.598 1.33h-1.92l-.56-1.33h-.66l1.926 4.51zm6.53-.03h.61V10.1h-.55l-3 3.456v-3.45h-.6v4.49h.52l3.03-3.49v3.49zm8.3 0h.64l-1.82-4.51h-.14l-1.46 3.65-1.48-3.65h-.14l-1.81 4.5h.65l1.24-3.09 1.25 3.09h.6l1.25-3.1 1.23 3.1zm3.11-.55c-.51 0-.93-.16-1.26-.49-.33-.32-.5-.73-.5-1.23 0-.48.17-.89.5-1.21.33-.32.75-.48 1.25-.48s.92.16 1.26.49c.34.33.51.74.51 1.23 0 .47-.17.87-.5 1.2-.33.32-.74.48-1.23.48m-.03.61c.69 0 1.27-.22 1.73-.66.46-.44.69-.99.69-1.65 0-.66-.23-1.21-.7-1.64-.46-.44-1.05-.65-1.76-.65-.68 0-1.24.21-1.69.65-.45.43-.67.97-.67 1.63 0 .67.23 1.22.68 1.66.46.44 1.03.66 1.72.66m5.44-.61c-.51 0-.94-.16-1.27-.48-.33-.32-.49-.73-.49-1.23 0-.48.17-.89.5-1.21.33-.32.75-.48 1.25-.48s.92.17 1.26.49c.33.33.5.74.5 1.23 0 .47-.16.87-.5 1.2-.33.32-.75.48-1.23.48m-.03.61c.7 0 1.27-.22 1.74-.66.46-.44.7-.99.7-1.65 0-.66-.23-1.21-.7-1.65-.46-.44-1.05-.65-1.76-.65-.68 0-1.24.21-1.69.65-.45.43-.68.98-.68 1.63 0 .67.23 1.22.68 1.66.45.44 1.03.66 1.72.66M59.2 14h-.808v-3.3h.825c.32 0 .57.022.74.066.18.04.33.097.45.165.12.07.23.15.325.25.317.32.476.73.476 1.22s-.16.88-.49 1.18c-.12.12-.25.21-.41.28-.15.08-.3.12-.44.15s-.36.04-.67.04m-1.446-3.91v4.48h1.513c.61 0 1.1-.09 1.45-.27.36-.18.64-.45.85-.81.21-.35.312-.74.312-1.16 0-.3-.06-.58-.173-.86-.12-.27-.28-.51-.5-.72-.21-.21-.47-.37-.76-.48-.17-.06-.32-.11-.46-.13-.14-.02-.41-.03-.81-.03h-1.42zm10.62 1.04v-.7c-.47-.25-1.02-.38-1.635-.38-.5 0-.93.1-1.277.3-.35.2-.626.48-.83.84-.205.35-.307.73-.307 1.15 0 .66.23 1.21.7 1.65.464.45 1.04.67 1.72.67.47 0 .99-.12 1.57-.37v-.69c-.53.3-1.04.45-1.54.45-.52 0-.94-.16-1.28-.49-.34-.32-.51-.73-.51-1.22s.17-.9.5-1.21c.33-.32.76-.47 1.28-.47.54 0 1.07.17 1.59.5m3.02 2.91c-.514 0-.94-.16-1.27-.48-.33-.32-.5-.73-.5-1.23 0-.48.17-.88.5-1.21.335-.32.75-.48 1.25-.48s.92.17 1.257.49c.34.33.51.74.51 1.23 0 .47-.17.87-.5 1.2-.34.32-.75.49-1.24.49m-.03.61c.69 0 1.27-.22 1.73-.66.46-.44.696-.99.696-1.65 0-.66-.23-1.21-.7-1.64-.464-.43-1.05-.65-1.76-.65-.677 0-1.24.22-1.69.65-.455.43-.68.98-.68 1.63 0 .67.226 1.23.68 1.66.454.44 1.03.66 1.722.66m6.333-.06h.65V12.1c0-.347-.02-.606-.07-.78-.05-.18-.11-.324-.19-.44-.08-.12-.17-.22-.28-.314-.36-.304-.82-.46-1.4-.46s-1.05.155-1.4.46c-.11.094-.2.2-.27.316-.07.11-.13.26-.18.43-.05.162-.07.43-.07.79v2.54h.65v-2.55c0-.42.05-.713.15-.88.1-.163.25-.3.44-.395.2-.1.43-.15.7-.15.38 0 .69.1.93.3.13.11.22.234.27.38.06.146.08.395.08.75v2.54zm5.1 0h.61v-4.49h-.55l-3 3.46v-3.46h-.6v4.49h.52l3.03-3.48v3.49zm5.44-3.45v-.71c-.47-.25-1.02-.38-1.63-.38-.5 0-.92.1-1.27.3-.35.2-.63.48-.83.83-.2.35-.3.73-.3 1.14 0 .65.24 1.2.7 1.65.47.44 1.04.66 1.73.66.47 0 .99-.12 1.57-.37v-.69c-.53.3-1.04.45-1.54.45-.51 0-.94-.16-1.28-.48-.34-.32-.51-.73-.51-1.22s.17-.9.5-1.21c.33-.32.76-.47 1.28-.47.55 0 1.08.17 1.59.5m.81 3.44h.64v-4.49H89v4.49zm1.64 0h.64v-3.9h2.02v-.58h-2.66v4.49z" fill="#036b38"/><path d="M47.155 27.85l2.187-.94-.22-8.5-1.967.844v8.597z" fill="#036b38" fill-rule="evenodd"/><path d="M51.233 27.902l-2.11-.9-.03-8.672 2.14.994v8.578zm7.554 3.59l-2.092-.916v-8.704l2.092.912v8.708z" fill="#036b38" fill-rule="evenodd"/><path d="M58.787 22.844l-.046 2.892-9.64-4.493-9.6 4.477-.04-2.89 9.64-4.5v.07-.07l9.7 4.514z" fill="#036b38" fill-rule="evenodd"/><path d="M39.457 31.414l2.234-.962v-8.48l-2.23.96v8.482z" fill="#036b38" fill-rule="evenodd"/><path d="M43.786 32.54l.067.06 3.33 3.135v-4.657l-2.173.94-.663-2.245 4.632-2.025-.01 12.18-9.3-8.116 2.18-.953 1.92 1.68zm13.04.983L54.6 32.56l-3.393-1.464v4.658l2.17-2.04 1.148 1.786-5.144 4.423V27.747l9.32 4.163-1.87 1.612z" fill="#43b54c" fill-rule="evenodd"/><path d="M8.872 12.026l-.725 1.625-.67-1.62H8.87zm-.944 2.61h.45l2.014-4.512h-.658l-.598 1.33H7.22l-.56-1.33H6l1.928 4.513zm6.525-.024h.6v-4.488h-.645v3.492l-1.38-1.734h-.12l-1.395 1.734v-3.492h-.643v4.488h.61l1.49-1.843 1.483 1.84zm1.567 0h2.545v-.57h-1.902v-1.37H18.5v-.576h-1.837v-1.394h1.962v-.57H16.02v4.48z" fill="#036b38"/></g><g clip-path="url(#e)" transform="matrix(1.25 0 0 -1.25 0 62.5)"><path d="M260.606 32.392c-1.65 0-3-1.35-3-3v-8.784c0-1.65 1.35-3 3-3h48.98c1.65 0 3 1.35 3 3v8.783c0 1.66-1.35 3.01-3 3.01h-48.98z" fill="url(#f)"/></g><g clip-path="url(#g)" transform="matrix(1.25 0 0 -1.25 0 62.5)"><path d="M309.587 17.608h-48.98c-1.652 0-3 1.35-3 3v8.783c0 1.65 1.348 3 3 3h48.98c1.65 0 3-1.35 3-3v-8.78c0-1.65-1.35-3-3-3z" fill="none" stroke="#8cc63f" stroke-width="0.5" stroke-miterlimit="10"/><path d="M266.615 22.514h-3.398v5.092h1.28v-4.12h2.118v-.972zm2.905 2.414c-.008.253-.067.445-.177.578-.11.132-.28.198-.508.198-.233 0-.415-.07-.545-.21-.13-.138-.204-.327-.217-.566h1.446zm-.397-2.517c-.726 0-1.282.18-1.667.52-.387.35-.58.84-.58 1.49 0 .63.18 1.13.54 1.5.36.38.864.56 1.51.56.59 0 1.03-.15 1.328-.47.296-.31.445-.77.445-1.36v-.43h-2.63c.01-.18.05-.33.11-.45s.14-.21.25-.28c.1-.07.22-.12.36-.15.13-.03.28-.04.44-.04.14 0 .27.02.41.05.13.03.26.07.37.13.1.04.19.09.27.14.08.05.15.09.2.13h.12v-.99l-.27-.11c-.08-.03-.19-.06-.34-.1-.13-.03-.27-.06-.4-.08-.14-.02-.31-.03-.51-.03m4.31 1.11v.8c-.21-.02-.37-.04-.49-.05-.13-.01-.25-.04-.37-.08-.11-.04-.19-.09-.25-.17-.06-.07-.09-.17-.09-.29 0-.18.04-.3.14-.37.09-.06.24-.1.43-.1.1 0 .21.03.32.07.11.05.21.12.29.21m0-.59l-.22-.18c-.07-.05-.15-.11-.26-.16-.11-.05-.21-.09-.32-.12-.1-.03-.24-.04-.42-.04-.34 0-.63.12-.85.34-.23.23-.34.52-.34.87 0 .29.05.52.17.69.11.18.28.32.49.42.21.11.47.18.77.22.3.04.62.07.97.1v.02c0 .22-.08.36-.24.44-.16.08-.39.12-.7.12-.14 0-.31-.02-.5-.07s-.37-.11-.55-.19h-.1v.93c.12.04.31.08.57.12.27.05.53.07.8.07.66 0 1.15-.11 1.45-.33.3-.22.45-.55.45-1V22.6h-1.19v.4zm4.65 2.3h-.1c-.05.02-.11.03-.2.04-.09.01-.18.01-.29.01-.13 0-.26-.01-.4-.05s-.27-.08-.4-.13v-2.57h-1.19v3.84h1.2v-.55c.06.05.13.11.23.19s.19.14.27.18c.08.05.19.1.3.14.11.04.22.06.32.06h.13s.09-.01.13-.01v-1.14zm4.05-2.7h-1.2v1.91c0 .15-.01.31-.02.46-.01.16-.04.27-.07.34-.04.09-.1.15-.18.19-.08.04-.18.06-.31.06-.1 0-.2-.01-.3-.05-.1-.03-.21-.09-.32-.17v-2.73h-1.2v3.84h1.2V26c.19.17.38.3.57.39.18.1.39.14.62.14.39 0 .69-.12.9-.37.2-.24.31-.6.31-1.07v-2.5zm8.2 0H289v3.37l-.93-2.18h-.87l-.93 2.18v-3.38h-1.2v5.1h1.475l1.13-2.52 1.122 2.51h1.47v-5.09zm3.44 1.91c0 .23-.02.42-.06.57-.04.15-.09.28-.16.37-.07.1-.15.16-.24.2-.09.04-.19.06-.31.06-.11 0-.2-.02-.29-.05-.09-.03-.17-.1-.24-.19-.07-.09-.12-.21-.16-.36-.04-.16-.06-.35-.06-.59s.02-.43.06-.57c.04-.15.09-.26.15-.35.06-.09.14-.16.24-.2.09-.04.2-.06.32-.06.09 0 .19.02.29.06.1.04.18.11.24.19.07.09.12.21.16.35.03.13.05.33.05.57m1.22.01c0-.63-.18-1.13-.52-1.49-.35-.36-.83-.54-1.47-.54-.63 0-1.11.18-1.46.54-.35.37-.52.86-.52 1.49 0 .64.17 1.14.52 1.5.35.36.83.54 1.46.54s1.12-.18 1.46-.54c.35-.36.52-.86.52-1.49m3.21.79h-.1c-.04.02-.11.03-.19.04-.09.01-.18.01-.29.01-.13 0-.26-.02-.4-.05s-.27-.08-.4-.13V22.6h-1.2v3.84h1.2v-.55c.06.05.13.11.23.19.09.07.18.13.26.18.09.05.19.1.3.132.11.04.22.06.32.06.04 0 .08-.01.13-.01s.09-.01.13-.01V25.3zm2.83-.29c-.01.25-.07.45-.18.58-.11.13-.28.2-.51.2-.23 0-.42-.07-.55-.21-.13-.14-.2-.33-.22-.57h1.5zm-.4-2.52c-.73 0-1.29.18-1.67.52-.39.35-.58.84-.58 1.48 0 .63.18 1.13.54 1.5.36.38.86.56 1.51.56.59 0 1.03-.15 1.32-.47.3-.32.45-.77.45-1.36v-.43h-2.62c.01-.18.05-.33.11-.45s.15-.21.25-.28c.1-.07.22-.12.36-.15.14-.03.29-.05.45-.05.14 0 .27.02.41.05.13.03.26.07.37.12.1.04.19.09.27.14.08.05.15.09.2.13h.12v-.99l-.27-.1c-.08-.03-.19-.07-.33-.1-.13-.03-.27-.06-.4-.08-.14-.02-.31-.03-.5-.03m6.32 2.14L305 23.06v1.01l.96.73-.96.736v1.01l1.94-1.53v-.44z" fill="#ffffff"/></g></svg>